<mxfile type="device" compressed="false">
    <diagram id="Network Topology" name="Network Topology">
          <mxGraphModel dx="1360" dy="864" grid="0" gridSize="10" guides="1" tooltips="1" connect="1" arrows="1" fold="1" page="1" pageScale="1" pageWidth="650.0" pageHeight="1075.0" math="0" shadow="0" background="none">
            <root>
              <mxCell id="0" />
              <mxCell id="1" parent="0" />
            <object id="clab-vt-DC1-Leaf1" label="DC1-Leaf1">
      <mxCell style="shape=image;imageAlign=center;imageVerticalAlign=middle;labelPosition=left;align=right;verticalLabelPosition=top;spacingLeft=0;verticalAlign=bottom;spacingTop=0;spacing=0;editableCssRules=\.st[0-2]$;labelBackgroundColor=none;aspect=fixed;imageAspect=0;image=data:image/svg+xml,PHN2ZyB4bWxuczp4bGluaz0iaHR0cDovL3d3dy53My5vcmcvMTk5OS94bGluayIgeG1sbnM9Imh0dHA6Ly93d3cudzMub3JnLzIwMDAvc3ZnIiB4bWw6c3BhY2U9InByZXNlcnZlIiBzdHlsZT0iZW5hYmxlLWJhY2tncm91bmQ6bmV3IDAgMCAxMjAgMTIwO2VkaXRhYmxlQ3NzUnVsZXM9Lio7IiB2aWV3Qm94PSIwIDAgMTIwIDEyMCIgeT0iMHB4IiB4PSIwcHgiIGlkPSJMYXllcl8xIiB2ZXJzaW9uPSIxLjEiPiYjeGE7PHN0eWxlIHR5cGU9InRleHQvY3NzIj4mI3hhOwkuc3Qwe2ZpbGw6IzAwMTEzNTt9JiN4YTsJLnN0MXtmaWxsOm5vbmU7c3Ryb2tlOiNGRkZGRkY7c3Ryb2tlLXdpZHRoOjQ7c3Ryb2tlLWxpbmVjYXA6cm91bmQ7c3Ryb2tlLWxpbmVqb2luOnJvdW5kO3N0cm9rZS1taXRlcmxpbWl0OjEwO30mI3hhOwkuc3Qye2ZpbGw6I0ZGRkZGRjt9JiN4YTsJLnN0M3tmaWxsOm5vbmU7c3Ryb2tlOiNGRkZGRkY7c3Ryb2tlLXdpZHRoOjQ7c3Ryb2tlLW1pdGVybGltaXQ6MTA7fSYjeGE7CS5zdDR7ZmlsbDpub25lO3N0cm9rZTojRkZGRkZGO3N0cm9rZS13aWR0aDo0O3N0cm9rZS1saW5lY2FwOnJvdW5kO3N0cm9rZS1saW5lam9pbjpyb3VuZDt9JiN4YTsJLnN0NXtmaWxsOiNGRkZGRkY7c3Ryb2tlOiNGRkZGRkY7c3Ryb2tlLXdpZHRoOjQ7c3Ryb2tlLWxpbmVjYXA6cm91bmQ7c3Ryb2tlLWxpbmVqb2luOnJvdW5kO3N0cm9rZS1taXRlcmxpbWl0OjEwO30mI3hhOwkuc3Q2e2ZpbGw6bm9uZTtzdHJva2U6I0ZGRkZGRjtzdHJva2Utd2lkdGg6NC4yMzMzO3N0cm9rZS1saW5lY2FwOnJvdW5kO3N0cm9rZS1saW5lam9pbjpyb3VuZDtzdHJva2UtbWl0ZXJsaW1pdDoxMDt9JiN4YTsJLnN0N3tmaWxsOm5vbmU7c3Ryb2tlOiNGRkZGRkY7c3Ryb2tlLXdpZHRoOjQ7c3Ryb2tlLWxpbmVjYXA6cm91bmQ7c3Ryb2tlLW1pdGVybGltaXQ6MTA7fSYjeGE7CS5zdDh7ZmlsbDojRkZGRkZGO3N0cm9rZTojRkZGRkZGO3N0cm9rZS13aWR0aDo0O3N0cm9rZS1taXRlcmxpbWl0OjEwO30mI3hhOwkuc3Q5e2ZpbGw6I0ZGRkZGRjtzdHJva2U6I0ZGRkZGRjtzdHJva2Utd2lkdGg6NDt9JiN4YTsJLnN0MTB7ZmlsbDpub25lO3N0cm9rZTojRkZGRkZGO3N0cm9rZS13aWR0aDo0O30mI3hhOwkuc3QxMXtmaWxsOiMyNjI2MjY7c3Ryb2tlOiNGRkZGRkY7c3Ryb2tlLXdpZHRoOjQuMjMzMzt9JiN4YTsJLnN0MTJ7ZmlsbC1ydWxlOmV2ZW5vZGQ7Y2xpcC1ydWxlOmV2ZW5vZGQ7ZmlsbDpub25lO3N0cm9rZTojRkZGRkZGO3N0cm9rZS13aWR0aDo0O3N0cm9rZS1taXRlcmxpbWl0OjEwO30mI3hhOwkuc3QxM3tmaWxsLXJ1bGU6ZXZlbm9kZDtjbGlwLXJ1bGU6ZXZlbm9kZDtmaWxsOiNGRkZGRkY7c3Ryb2tlOiNGRkZGRkY7c3Ryb2tlLXdpZHRoOjQ7fSYjeGE7CS5zdDE0e2ZpbGw6bm9uZTtzdHJva2U6I0ZGRkZGRjtzdHJva2Utd2lkdGg6NC4yMzMzO3N0cm9rZS1saW5lY2FwOnJvdW5kO3N0cm9rZS1saW5lam9pbjpyb3VuZDt9JiN4YTsJLnN0MTV7ZmlsbDpub25lO3N0cm9rZTojRkZGRkZGO3N0cm9rZS13aWR0aDo0O3N0cm9rZS1saW5lY2FwOnJvdW5kO30mI3hhOwkuc3QxNntmaWxsOiNGRkZGRkY7c3Ryb2tlOiNGRkZGRkY7c3Ryb2tlLW1pdGVybGltaXQ6MTA7fSYjeGE7CS5zdDE3e2ZpbGw6IzI2MjYyNjtzdHJva2U6I0ZGRkZGRjtzdHJva2Utd2lkdGg6NDtzdHJva2UtbWl0ZXJsaW1pdDoxMDt9JiN4YTsJLnN0MTh7ZmlsbDojRkZGRkZGO3N0cm9rZTojRkZGRkZGO3N0cm9rZS13aWR0aDo0O3N0cm9rZS1saW5lY2FwOnJvdW5kO3N0cm9rZS1saW5lam9pbjpyb3VuZDt9JiN4YTs8L3N0eWxlPiYjeGE7PHJlY3QgaGVpZ2h0PSIxMjAiIHdpZHRoPSIxMjAiIGNsYXNzPSJzdDAiLz4mI3hhOzxnPiYjeGE7CTxnPiYjeGE7CQk8cGF0aCBkPSJNNzEuNywxOS43VjQ4aDI4IiBjbGFzcz0ic3QxIi8+JiN4YTsJCTxwYXRoIGQ9Ik05MS4yLDM4LjVsNy41LDcuNmMxLjMsMS4zLDEuMywzLjEsMCw0LjNMOTEuMSw1OCIgY2xhc3M9InN0MSIvPiYjeGE7CTwvZz4mI3hhOwk8Zz4mI3hhOwkJPHBhdGggZD0iTTIwLDQ3LjhoMjguNHYtMjgiIGNsYXNzPSJzdDEiLz4mI3hhOwkJPHBhdGggZD0iTTM4LjgsMjguM2w3LjYtNy41YzEuMy0xLjMsMy4xLTEuMyw0LjMsMGw3LjcsNy42IiBjbGFzcz0ic3QxIi8+JiN4YTsJPC9nPiYjeGE7CTxnPiYjeGE7CQk8cGF0aCBkPSJNNDgsMTAwLjNWNzJIMjAiIGNsYXNzPSJzdDEiLz4mI3hhOwkJPHBhdGggZD0iTTI4LjUsODEuNUwyMSw3My45Yy0xLjMtMS4zLTEuMy0zLjEsMC00LjNsNy42LTcuNyIgY2xhc3M9InN0MSIvPiYjeGE7CTwvZz4mI3hhOwk8Zz4mI3hhOwkJPHBhdGggZD0iTTEwMCw3MS45SDcxLjZ2MjgiIGNsYXNzPSJzdDEiLz4mI3hhOwkJPHBhdGggZD0iTTgxLjIsOTEuNGwtNy42LDcuNWMtMS4zLDEuMy0zLjEsMS4zLTQuMywwbC03LjctNy42IiBjbGFzcz0ic3QxIi8+JiN4YTsJPC9nPiYjeGE7PC9nPiYjeGE7PC9zdmc+;" vertex="1" parent="group-clab-vt-DC1-Leaf1">
          <mxGeometry x="0.0" y="6.0" width="75" height="75" as="geometry" />
      </mxCell>
    </object><object id="clab-vt-DC1-Leaf2" label="DC1-Leaf2">
      <mxCell style="shape=image;imageAlign=center;imageVerticalAlign=middle;labelPosition=left;align=right;verticalLabelPosition=top;spacingLeft=0;verticalAlign=bottom;spacingTop=0;spacing=0;editableCssRules=\.st[0-2]$;labelBackgroundColor=none;aspect=fixed;imageAspect=0;image=data:image/svg+xml,PHN2ZyB4bWxuczp4bGluaz0iaHR0cDovL3d3dy53My5vcmcvMTk5OS94bGluayIgeG1sbnM9Imh0dHA6Ly93d3cudzMub3JnLzIwMDAvc3ZnIiB4bWw6c3BhY2U9InByZXNlcnZlIiBzdHlsZT0iZW5hYmxlLWJhY2tncm91bmQ6bmV3IDAgMCAxMjAgMTIwO2VkaXRhYmxlQ3NzUnVsZXM9Lio7IiB2aWV3Qm94PSIwIDAgMTIwIDEyMCIgeT0iMHB4IiB4PSIwcHgiIGlkPSJMYXllcl8xIiB2ZXJzaW9uPSIxLjEiPiYjeGE7PHN0eWxlIHR5cGU9InRleHQvY3NzIj4mI3hhOwkuc3Qwe2ZpbGw6IzAwMTEzNTt9JiN4YTsJLnN0MXtmaWxsOm5vbmU7c3Ryb2tlOiNGRkZGRkY7c3Ryb2tlLXdpZHRoOjQ7c3Ryb2tlLWxpbmVjYXA6cm91bmQ7c3Ryb2tlLWxpbmVqb2luOnJvdW5kO3N0cm9rZS1taXRlcmxpbWl0OjEwO30mI3hhOwkuc3Qye2ZpbGw6I0ZGRkZGRjt9JiN4YTsJLnN0M3tmaWxsOm5vbmU7c3Ryb2tlOiNGRkZGRkY7c3Ryb2tlLXdpZHRoOjQ7c3Ryb2tlLW1pdGVybGltaXQ6MTA7fSYjeGE7CS5zdDR7ZmlsbDpub25lO3N0cm9rZTojRkZGRkZGO3N0cm9rZS13aWR0aDo0O3N0cm9rZS1saW5lY2FwOnJvdW5kO3N0cm9rZS1saW5lam9pbjpyb3VuZDt9JiN4YTsJLnN0NXtmaWxsOiNGRkZGRkY7c3Ryb2tlOiNGRkZGRkY7c3Ryb2tlLXdpZHRoOjQ7c3Ryb2tlLWxpbmVjYXA6cm91bmQ7c3Ryb2tlLWxpbmVqb2luOnJvdW5kO3N0cm9rZS1taXRlcmxpbWl0OjEwO30mI3hhOwkuc3Q2e2ZpbGw6bm9uZTtzdHJva2U6I0ZGRkZGRjtzdHJva2Utd2lkdGg6NC4yMzMzO3N0cm9rZS1saW5lY2FwOnJvdW5kO3N0cm9rZS1saW5lam9pbjpyb3VuZDtzdHJva2UtbWl0ZXJsaW1pdDoxMDt9JiN4YTsJLnN0N3tmaWxsOm5vbmU7c3Ryb2tlOiNGRkZGRkY7c3Ryb2tlLXdpZHRoOjQ7c3Ryb2tlLWxpbmVjYXA6cm91bmQ7c3Ryb2tlLW1pdGVybGltaXQ6MTA7fSYjeGE7CS5zdDh7ZmlsbDojRkZGRkZGO3N0cm9rZTojRkZGRkZGO3N0cm9rZS13aWR0aDo0O3N0cm9rZS1taXRlcmxpbWl0OjEwO30mI3hhOwkuc3Q5e2ZpbGw6I0ZGRkZGRjtzdHJva2U6I0ZGRkZGRjtzdHJva2Utd2lkdGg6NDt9JiN4YTsJLnN0MTB7ZmlsbDpub25lO3N0cm9rZTojRkZGRkZGO3N0cm9rZS13aWR0aDo0O30mI3hhOwkuc3QxMXtmaWxsOiMyNjI2MjY7c3Ryb2tlOiNGRkZGRkY7c3Ryb2tlLXdpZHRoOjQuMjMzMzt9JiN4YTsJLnN0MTJ7ZmlsbC1ydWxlOmV2ZW5vZGQ7Y2xpcC1ydWxlOmV2ZW5vZGQ7ZmlsbDpub25lO3N0cm9rZTojRkZGRkZGO3N0cm9rZS13aWR0aDo0O3N0cm9rZS1taXRlcmxpbWl0OjEwO30mI3hhOwkuc3QxM3tmaWxsLXJ1bGU6ZXZlbm9kZDtjbGlwLXJ1bGU6ZXZlbm9kZDtmaWxsOiNGRkZGRkY7c3Ryb2tlOiNGRkZGRkY7c3Ryb2tlLXdpZHRoOjQ7fSYjeGE7CS5zdDE0e2ZpbGw6bm9uZTtzdHJva2U6I0ZGRkZGRjtzdHJva2Utd2lkdGg6NC4yMzMzO3N0cm9rZS1saW5lY2FwOnJvdW5kO3N0cm9rZS1saW5lam9pbjpyb3VuZDt9JiN4YTsJLnN0MTV7ZmlsbDpub25lO3N0cm9rZTojRkZGRkZGO3N0cm9rZS13aWR0aDo0O3N0cm9rZS1saW5lY2FwOnJvdW5kO30mI3hhOwkuc3QxNntmaWxsOiNGRkZGRkY7c3Ryb2tlOiNGRkZGRkY7c3Ryb2tlLW1pdGVybGltaXQ6MTA7fSYjeGE7CS5zdDE3e2ZpbGw6IzI2MjYyNjtzdHJva2U6I0ZGRkZGRjtzdHJva2Utd2lkdGg6NDtzdHJva2UtbWl0ZXJsaW1pdDoxMDt9JiN4YTsJLnN0MTh7ZmlsbDojRkZGRkZGO3N0cm9rZTojRkZGRkZGO3N0cm9rZS13aWR0aDo0O3N0cm9rZS1saW5lY2FwOnJvdW5kO3N0cm9rZS1saW5lam9pbjpyb3VuZDt9JiN4YTs8L3N0eWxlPiYjeGE7PHJlY3QgaGVpZ2h0PSIxMjAiIHdpZHRoPSIxMjAiIGNsYXNzPSJzdDAiLz4mI3hhOzxnPiYjeGE7CTxnPiYjeGE7CQk8cGF0aCBkPSJNNzEuNywxOS43VjQ4aDI4IiBjbGFzcz0ic3QxIi8+JiN4YTsJCTxwYXRoIGQ9Ik05MS4yLDM4LjVsNy41LDcuNmMxLjMsMS4zLDEuMywzLjEsMCw0LjNMOTEuMSw1OCIgY2xhc3M9InN0MSIvPiYjeGE7CTwvZz4mI3hhOwk8Zz4mI3hhOwkJPHBhdGggZD0iTTIwLDQ3LjhoMjguNHYtMjgiIGNsYXNzPSJzdDEiLz4mI3hhOwkJPHBhdGggZD0iTTM4LjgsMjguM2w3LjYtNy41YzEuMy0xLjMsMy4xLTEuMyw0LjMsMGw3LjcsNy42IiBjbGFzcz0ic3QxIi8+JiN4YTsJPC9nPiYjeGE7CTxnPiYjeGE7CQk8cGF0aCBkPSJNNDgsMTAwLjNWNzJIMjAiIGNsYXNzPSJzdDEiLz4mI3hhOwkJPHBhdGggZD0iTTI4LjUsODEuNUwyMSw3My45Yy0xLjMtMS4zLTEuMy0zLjEsMC00LjNsNy42LTcuNyIgY2xhc3M9InN0MSIvPiYjeGE7CTwvZz4mI3hhOwk8Zz4mI3hhOwkJPHBhdGggZD0iTTEwMCw3MS45SDcxLjZ2MjgiIGNsYXNzPSJzdDEiLz4mI3hhOwkJPHBhdGggZD0iTTgxLjIsOTEuNGwtNy42LDcuNWMtMS4zLDEuMy0zLjEsMS4zLTQuMywwbC03LjctNy42IiBjbGFzcz0ic3QxIi8+JiN4YTsJPC9nPiYjeGE7PC9nPiYjeGE7PC9zdmc+;" vertex="1" parent="group-clab-vt-DC1-Leaf2">
          <mxGeometry x="0.0" y="6.0" width="75" height="75" as="geometry" />
      </mxCell>
    </object><object id="clab-vt-DC2-Leaf1" label="DC2-Leaf1">
      <mxCell style="shape=image;imageAlign=center;imageVerticalAlign=middle;labelPosition=left;align=right;verticalLabelPosition=top;spacingLeft=0;verticalAlign=bottom;spacingTop=0;spacing=0;editableCssRules=\.st[0-2]$;labelBackgroundColor=none;aspect=fixed;imageAspect=0;image=data:image/svg+xml,PHN2ZyB4bWxuczp4bGluaz0iaHR0cDovL3d3dy53My5vcmcvMTk5OS94bGluayIgeG1sbnM9Imh0dHA6Ly93d3cudzMub3JnLzIwMDAvc3ZnIiB4bWw6c3BhY2U9InByZXNlcnZlIiBzdHlsZT0iZW5hYmxlLWJhY2tncm91bmQ6bmV3IDAgMCAxMjAgMTIwO2VkaXRhYmxlQ3NzUnVsZXM9Lio7IiB2aWV3Qm94PSIwIDAgMTIwIDEyMCIgeT0iMHB4IiB4PSIwcHgiIGlkPSJMYXllcl8xIiB2ZXJzaW9uPSIxLjEiPiYjeGE7PHN0eWxlIHR5cGU9InRleHQvY3NzIj4mI3hhOwkuc3Qwe2ZpbGw6IzAwMTEzNTt9JiN4YTsJLnN0MXtmaWxsOm5vbmU7c3Ryb2tlOiNGRkZGRkY7c3Ryb2tlLXdpZHRoOjQ7c3Ryb2tlLWxpbmVjYXA6cm91bmQ7c3Ryb2tlLWxpbmVqb2luOnJvdW5kO3N0cm9rZS1taXRlcmxpbWl0OjEwO30mI3hhOwkuc3Qye2ZpbGw6I0ZGRkZGRjt9JiN4YTsJLnN0M3tmaWxsOm5vbmU7c3Ryb2tlOiNGRkZGRkY7c3Ryb2tlLXdpZHRoOjQ7c3Ryb2tlLW1pdGVybGltaXQ6MTA7fSYjeGE7CS5zdDR7ZmlsbDpub25lO3N0cm9rZTojRkZGRkZGO3N0cm9rZS13aWR0aDo0O3N0cm9rZS1saW5lY2FwOnJvdW5kO3N0cm9rZS1saW5lam9pbjpyb3VuZDt9JiN4YTsJLnN0NXtmaWxsOiNGRkZGRkY7c3Ryb2tlOiNGRkZGRkY7c3Ryb2tlLXdpZHRoOjQ7c3Ryb2tlLWxpbmVjYXA6cm91bmQ7c3Ryb2tlLWxpbmVqb2luOnJvdW5kO3N0cm9rZS1taXRlcmxpbWl0OjEwO30mI3hhOwkuc3Q2e2ZpbGw6bm9uZTtzdHJva2U6I0ZGRkZGRjtzdHJva2Utd2lkdGg6NC4yMzMzO3N0cm9rZS1saW5lY2FwOnJvdW5kO3N0cm9rZS1saW5lam9pbjpyb3VuZDtzdHJva2UtbWl0ZXJsaW1pdDoxMDt9JiN4YTsJLnN0N3tmaWxsOm5vbmU7c3Ryb2tlOiNGRkZGRkY7c3Ryb2tlLXdpZHRoOjQ7c3Ryb2tlLWxpbmVjYXA6cm91bmQ7c3Ryb2tlLW1pdGVybGltaXQ6MTA7fSYjeGE7CS5zdDh7ZmlsbDojRkZGRkZGO3N0cm9rZTojRkZGRkZGO3N0cm9rZS13aWR0aDo0O3N0cm9rZS1taXRlcmxpbWl0OjEwO30mI3hhOwkuc3Q5e2ZpbGw6I0ZGRkZGRjtzdHJva2U6I0ZGRkZGRjtzdHJva2Utd2lkdGg6NDt9JiN4YTsJLnN0MTB7ZmlsbDpub25lO3N0cm9rZTojRkZGRkZGO3N0cm9rZS13aWR0aDo0O30mI3hhOwkuc3QxMXtmaWxsOiMyNjI2MjY7c3Ryb2tlOiNGRkZGRkY7c3Ryb2tlLXdpZHRoOjQuMjMzMzt9JiN4YTsJLnN0MTJ7ZmlsbC1ydWxlOmV2ZW5vZGQ7Y2xpcC1ydWxlOmV2ZW5vZGQ7ZmlsbDpub25lO3N0cm9rZTojRkZGRkZGO3N0cm9rZS13aWR0aDo0O3N0cm9rZS1taXRlcmxpbWl0OjEwO30mI3hhOwkuc3QxM3tmaWxsLXJ1bGU6ZXZlbm9kZDtjbGlwLXJ1bGU6ZXZlbm9kZDtmaWxsOiNGRkZGRkY7c3Ryb2tlOiNGRkZGRkY7c3Ryb2tlLXdpZHRoOjQ7fSYjeGE7CS5zdDE0e2ZpbGw6bm9uZTtzdHJva2U6I0ZGRkZGRjtzdHJva2Utd2lkdGg6NC4yMzMzO3N0cm9rZS1saW5lY2FwOnJvdW5kO3N0cm9rZS1saW5lam9pbjpyb3VuZDt9JiN4YTsJLnN0MTV7ZmlsbDpub25lO3N0cm9rZTojRkZGRkZGO3N0cm9rZS13aWR0aDo0O3N0cm9rZS1saW5lY2FwOnJvdW5kO30mI3hhOwkuc3QxNntmaWxsOiNGRkZGRkY7c3Ryb2tlOiNGRkZGRkY7c3Ryb2tlLW1pdGVybGltaXQ6MTA7fSYjeGE7CS5zdDE3e2ZpbGw6IzI2MjYyNjtzdHJva2U6I0ZGRkZGRjtzdHJva2Utd2lkdGg6NDtzdHJva2UtbWl0ZXJsaW1pdDoxMDt9JiN4YTsJLnN0MTh7ZmlsbDojRkZGRkZGO3N0cm9rZTojRkZGRkZGO3N0cm9rZS13aWR0aDo0O3N0cm9rZS1saW5lY2FwOnJvdW5kO3N0cm9rZS1saW5lam9pbjpyb3VuZDt9JiN4YTs8L3N0eWxlPiYjeGE7PHJlY3QgaGVpZ2h0PSIxMjAiIHdpZHRoPSIxMjAiIGNsYXNzPSJzdDAiLz4mI3hhOzxnPiYjeGE7CTxnPiYjeGE7CQk8cGF0aCBkPSJNNzEuNywxOS43VjQ4aDI4IiBjbGFzcz0ic3QxIi8+JiN4YTsJCTxwYXRoIGQ9Ik05MS4yLDM4LjVsNy41LDcuNmMxLjMsMS4zLDEuMywzLjEsMCw0LjNMOTEuMSw1OCIgY2xhc3M9InN0MSIvPiYjeGE7CTwvZz4mI3hhOwk8Zz4mI3hhOwkJPHBhdGggZD0iTTIwLDQ3LjhoMjguNHYtMjgiIGNsYXNzPSJzdDEiLz4mI3hhOwkJPHBhdGggZD0iTTM4LjgsMjguM2w3LjYtNy41YzEuMy0xLjMsMy4xLTEuMyw0LjMsMGw3LjcsNy42IiBjbGFzcz0ic3QxIi8+JiN4YTsJPC9nPiYjeGE7CTxnPiYjeGE7CQk8cGF0aCBkPSJNNDgsMTAwLjNWNzJIMjAiIGNsYXNzPSJzdDEiLz4mI3hhOwkJPHBhdGggZD0iTTI4LjUsODEuNUwyMSw3My45Yy0xLjMtMS4zLTEuMy0zLjEsMC00LjNsNy42LTcuNyIgY2xhc3M9InN0MSIvPiYjeGE7CTwvZz4mI3hhOwk8Zz4mI3hhOwkJPHBhdGggZD0iTTEwMCw3MS45SDcxLjZ2MjgiIGNsYXNzPSJzdDEiLz4mI3hhOwkJPHBhdGggZD0iTTgxLjIsOTEuNGwtNy42LDcuNWMtMS4zLDEuMy0zLjEsMS4zLTQuMywwbC03LjctNy42IiBjbGFzcz0ic3QxIi8+JiN4YTsJPC9nPiYjeGE7PC9nPiYjeGE7PC9zdmc+;" vertex="1" parent="group-clab-vt-DC2-Leaf1">
          <mxGeometry x="0.0" y="6.0" width="75" height="75" as="geometry" />
      </mxCell>
    </object><object id="clab-vt-DC2-Leaf2" label="DC2-Leaf2">
      <mxCell style="shape=image;imageAlign=center;imageVerticalAlign=middle;labelPosition=left;align=right;verticalLabelPosition=top;spacingLeft=0;verticalAlign=bottom;spacingTop=0;spacing=0;editableCssRules=\.st[0-2]$;labelBackgroundColor=none;aspect=fixed;imageAspect=0;image=data:image/svg+xml,PHN2ZyB4bWxuczp4bGluaz0iaHR0cDovL3d3dy53My5vcmcvMTk5OS94bGluayIgeG1sbnM9Imh0dHA6Ly93d3cudzMub3JnLzIwMDAvc3ZnIiB4bWw6c3BhY2U9InByZXNlcnZlIiBzdHlsZT0iZW5hYmxlLWJhY2tncm91bmQ6bmV3IDAgMCAxMjAgMTIwO2VkaXRhYmxlQ3NzUnVsZXM9Lio7IiB2aWV3Qm94PSIwIDAgMTIwIDEyMCIgeT0iMHB4IiB4PSIwcHgiIGlkPSJMYXllcl8xIiB2ZXJzaW9uPSIxLjEiPiYjeGE7PHN0eWxlIHR5cGU9InRleHQvY3NzIj4mI3hhOwkuc3Qwe2ZpbGw6IzAwMTEzNTt9JiN4YTsJLnN0MXtmaWxsOm5vbmU7c3Ryb2tlOiNGRkZGRkY7c3Ryb2tlLXdpZHRoOjQ7c3Ryb2tlLWxpbmVjYXA6cm91bmQ7c3Ryb2tlLWxpbmVqb2luOnJvdW5kO3N0cm9rZS1taXRlcmxpbWl0OjEwO30mI3hhOwkuc3Qye2ZpbGw6I0ZGRkZGRjt9JiN4YTsJLnN0M3tmaWxsOm5vbmU7c3Ryb2tlOiNGRkZGRkY7c3Ryb2tlLXdpZHRoOjQ7c3Ryb2tlLW1pdGVybGltaXQ6MTA7fSYjeGE7CS5zdDR7ZmlsbDpub25lO3N0cm9rZTojRkZGRkZGO3N0cm9rZS13aWR0aDo0O3N0cm9rZS1saW5lY2FwOnJvdW5kO3N0cm9rZS1saW5lam9pbjpyb3VuZDt9JiN4YTsJLnN0NXtmaWxsOiNGRkZGRkY7c3Ryb2tlOiNGRkZGRkY7c3Ryb2tlLXdpZHRoOjQ7c3Ryb2tlLWxpbmVjYXA6cm91bmQ7c3Ryb2tlLWxpbmVqb2luOnJvdW5kO3N0cm9rZS1taXRlcmxpbWl0OjEwO30mI3hhOwkuc3Q2e2ZpbGw6bm9uZTtzdHJva2U6I0ZGRkZGRjtzdHJva2Utd2lkdGg6NC4yMzMzO3N0cm9rZS1saW5lY2FwOnJvdW5kO3N0cm9rZS1saW5lam9pbjpyb3VuZDtzdHJva2UtbWl0ZXJsaW1pdDoxMDt9JiN4YTsJLnN0N3tmaWxsOm5vbmU7c3Ryb2tlOiNGRkZGRkY7c3Ryb2tlLXdpZHRoOjQ7c3Ryb2tlLWxpbmVjYXA6cm91bmQ7c3Ryb2tlLW1pdGVybGltaXQ6MTA7fSYjeGE7CS5zdDh7ZmlsbDojRkZGRkZGO3N0cm9rZTojRkZGRkZGO3N0cm9rZS13aWR0aDo0O3N0cm9rZS1taXRlcmxpbWl0OjEwO30mI3hhOwkuc3Q5e2ZpbGw6I0ZGRkZGRjtzdHJva2U6I0ZGRkZGRjtzdHJva2Utd2lkdGg6NDt9JiN4YTsJLnN0MTB7ZmlsbDpub25lO3N0cm9rZTojRkZGRkZGO3N0cm9rZS13aWR0aDo0O30mI3hhOwkuc3QxMXtmaWxsOiMyNjI2MjY7c3Ryb2tlOiNGRkZGRkY7c3Ryb2tlLXdpZHRoOjQuMjMzMzt9JiN4YTsJLnN0MTJ7ZmlsbC1ydWxlOmV2ZW5vZGQ7Y2xpcC1ydWxlOmV2ZW5vZGQ7ZmlsbDpub25lO3N0cm9rZTojRkZGRkZGO3N0cm9rZS13aWR0aDo0O3N0cm9rZS1taXRlcmxpbWl0OjEwO30mI3hhOwkuc3QxM3tmaWxsLXJ1bGU6ZXZlbm9kZDtjbGlwLXJ1bGU6ZXZlbm9kZDtmaWxsOiNGRkZGRkY7c3Ryb2tlOiNGRkZGRkY7c3Ryb2tlLXdpZHRoOjQ7fSYjeGE7CS5zdDE0e2ZpbGw6bm9uZTtzdHJva2U6I0ZGRkZGRjtzdHJva2Utd2lkdGg6NC4yMzMzO3N0cm9rZS1saW5lY2FwOnJvdW5kO3N0cm9rZS1saW5lam9pbjpyb3VuZDt9JiN4YTsJLnN0MTV7ZmlsbDpub25lO3N0cm9rZTojRkZGRkZGO3N0cm9rZS13aWR0aDo0O3N0cm9rZS1saW5lY2FwOnJvdW5kO30mI3hhOwkuc3QxNntmaWxsOiNGRkZGRkY7c3Ryb2tlOiNGRkZGRkY7c3Ryb2tlLW1pdGVybGltaXQ6MTA7fSYjeGE7CS5zdDE3e2ZpbGw6IzI2MjYyNjtzdHJva2U6I0ZGRkZGRjtzdHJva2Utd2lkdGg6NDtzdHJva2UtbWl0ZXJsaW1pdDoxMDt9JiN4YTsJLnN0MTh7ZmlsbDojRkZGRkZGO3N0cm9rZTojRkZGRkZGO3N0cm9rZS13aWR0aDo0O3N0cm9rZS1saW5lY2FwOnJvdW5kO3N0cm9rZS1saW5lam9pbjpyb3VuZDt9JiN4YTs8L3N0eWxlPiYjeGE7PHJlY3QgaGVpZ2h0PSIxMjAiIHdpZHRoPSIxMjAiIGNsYXNzPSJzdDAiLz4mI3hhOzxnPiYjeGE7CTxnPiYjeGE7CQk8cGF0aCBkPSJNNzEuNywxOS43VjQ4aDI4IiBjbGFzcz0ic3QxIi8+JiN4YTsJCTxwYXRoIGQ9Ik05MS4yLDM4LjVsNy41LDcuNmMxLjMsMS4zLDEuMywzLjEsMCw0LjNMOTEuMSw1OCIgY2xhc3M9InN0MSIvPiYjeGE7CTwvZz4mI3hhOwk8Zz4mI3hhOwkJPHBhdGggZD0iTTIwLDQ3LjhoMjguNHYtMjgiIGNsYXNzPSJzdDEiLz4mI3hhOwkJPHBhdGggZD0iTTM4LjgsMjguM2w3LjYtNy41YzEuMy0xLjMsMy4xLTEuMyw0LjMsMGw3LjcsNy42IiBjbGFzcz0ic3QxIi8+JiN4YTsJPC9nPiYjeGE7CTxnPiYjeGE7CQk8cGF0aCBkPSJNNDgsMTAwLjNWNzJIMjAiIGNsYXNzPSJzdDEiLz4mI3hhOwkJPHBhdGggZD0iTTI4LjUsODEuNUwyMSw3My45Yy0xLjMtMS4zLTEuMy0zLjEsMC00LjNsNy42LTcuNyIgY2xhc3M9InN0MSIvPiYjeGE7CTwvZz4mI3hhOwk8Zz4mI3hhOwkJPHBhdGggZD0iTTEwMCw3MS45SDcxLjZ2MjgiIGNsYXNzPSJzdDEiLz4mI3hhOwkJPHBhdGggZD0iTTgxLjIsOTEuNGwtNy42LDcuNWMtMS4zLDEuMy0zLjEsMS4zLTQuMywwbC03LjctNy42IiBjbGFzcz0ic3QxIi8+JiN4YTsJPC9nPiYjeGE7PC9nPiYjeGE7PC9zdmc+;" vertex="1" parent="group-clab-vt-DC2-Leaf2">
          <mxGeometry x="0.0" y="6.0" width="75" height="75" as="geometry" />
      </mxCell>
    </object><object id="clab-vt-DC1-Spine1" label="DC1-Spine1">
      <mxCell style="shape=image;imageAlign=center;imageVerticalAlign=middle;labelPosition=left;align=right;verticalLabelPosition=top;spacingLeft=0;verticalAlign=bottom;spacingTop=0;spacing=0;editableCssRules=\.st[0-2]$;labelBackgroundColor=none;aspect=fixed;imageAspect=0;image=data:image/svg+xml,PHN2ZyB4bWxuczp4bGluaz0iaHR0cDovL3d3dy53My5vcmcvMTk5OS94bGluayIgeG1sbnM9Imh0dHA6Ly93d3cudzMub3JnLzIwMDAvc3ZnIiB4bWw6c3BhY2U9InByZXNlcnZlIiBzdHlsZT0iZW5hYmxlLWJhY2tncm91bmQ6bmV3IDAgMCAxMjAgMTIwO2VkaXRhYmxlQ3NzUnVsZXM9Lio7IiB2aWV3Qm94PSIwIDAgMTIwIDEyMCIgeT0iMHB4IiB4PSIwcHgiIGlkPSJMYXllcl8xIiB2ZXJzaW9uPSIxLjEiPiYjeGE7PHN0eWxlIHR5cGU9InRleHQvY3NzIj4mI3hhOwkuc3Qwe2ZpbGw6IzAwMTEzNTt9JiN4YTsJLnN0MXtmaWxsOm5vbmU7c3Ryb2tlOiNGRkZGRkY7c3Ryb2tlLXdpZHRoOjQ7c3Ryb2tlLWxpbmVjYXA6cm91bmQ7c3Ryb2tlLWxpbmVqb2luOnJvdW5kO3N0cm9rZS1taXRlcmxpbWl0OjEwO30mI3hhOwkuc3Qye2ZpbGw6I0ZGRkZGRjt9JiN4YTsJLnN0M3tmaWxsOm5vbmU7c3Ryb2tlOiNGRkZGRkY7c3Ryb2tlLXdpZHRoOjQ7c3Ryb2tlLW1pdGVybGltaXQ6MTA7fSYjeGE7CS5zdDR7ZmlsbDpub25lO3N0cm9rZTojRkZGRkZGO3N0cm9rZS13aWR0aDo0O3N0cm9rZS1saW5lY2FwOnJvdW5kO3N0cm9rZS1saW5lam9pbjpyb3VuZDt9JiN4YTsJLnN0NXtmaWxsOiNGRkZGRkY7c3Ryb2tlOiNGRkZGRkY7c3Ryb2tlLXdpZHRoOjQ7c3Ryb2tlLWxpbmVjYXA6cm91bmQ7c3Ryb2tlLWxpbmVqb2luOnJvdW5kO3N0cm9rZS1taXRlcmxpbWl0OjEwO30mI3hhOwkuc3Q2e2ZpbGw6bm9uZTtzdHJva2U6I0ZGRkZGRjtzdHJva2Utd2lkdGg6NC4yMzMzO3N0cm9rZS1saW5lY2FwOnJvdW5kO3N0cm9rZS1saW5lam9pbjpyb3VuZDtzdHJva2UtbWl0ZXJsaW1pdDoxMDt9JiN4YTsJLnN0N3tmaWxsOm5vbmU7c3Ryb2tlOiNGRkZGRkY7c3Ryb2tlLXdpZHRoOjQ7c3Ryb2tlLWxpbmVjYXA6cm91bmQ7c3Ryb2tlLW1pdGVybGltaXQ6MTA7fSYjeGE7CS5zdDh7ZmlsbDojRkZGRkZGO3N0cm9rZTojRkZGRkZGO3N0cm9rZS13aWR0aDo0O3N0cm9rZS1taXRlcmxpbWl0OjEwO30mI3hhOwkuc3Q5e2ZpbGw6I0ZGRkZGRjtzdHJva2U6I0ZGRkZGRjtzdHJva2Utd2lkdGg6NDt9JiN4YTsJLnN0MTB7ZmlsbDpub25lO3N0cm9rZTojRkZGRkZGO3N0cm9rZS13aWR0aDo0O30mI3hhOwkuc3QxMXtmaWxsOiMyNjI2MjY7c3Ryb2tlOiNGRkZGRkY7c3Ryb2tlLXdpZHRoOjQuMjMzMzt9JiN4YTsJLnN0MTJ7ZmlsbC1ydWxlOmV2ZW5vZGQ7Y2xpcC1ydWxlOmV2ZW5vZGQ7ZmlsbDpub25lO3N0cm9rZTojRkZGRkZGO3N0cm9rZS13aWR0aDo0O3N0cm9rZS1taXRlcmxpbWl0OjEwO30mI3hhOwkuc3QxM3tmaWxsLXJ1bGU6ZXZlbm9kZDtjbGlwLXJ1bGU6ZXZlbm9kZDtmaWxsOiNGRkZGRkY7c3Ryb2tlOiNGRkZGRkY7c3Ryb2tlLXdpZHRoOjQ7fSYjeGE7CS5zdDE0e2ZpbGw6bm9uZTtzdHJva2U6I0ZGRkZGRjtzdHJva2Utd2lkdGg6NC4yMzMzO3N0cm9rZS1saW5lY2FwOnJvdW5kO3N0cm9rZS1saW5lam9pbjpyb3VuZDt9JiN4YTsJLnN0MTV7ZmlsbDpub25lO3N0cm9rZTojRkZGRkZGO3N0cm9rZS13aWR0aDo0O3N0cm9rZS1saW5lY2FwOnJvdW5kO30mI3hhOwkuc3QxNntmaWxsOiNGRkZGRkY7c3Ryb2tlOiNGRkZGRkY7c3Ryb2tlLW1pdGVybGltaXQ6MTA7fSYjeGE7CS5zdDE3e2ZpbGw6IzI2MjYyNjtzdHJva2U6I0ZGRkZGRjtzdHJva2Utd2lkdGg6NDtzdHJva2UtbWl0ZXJsaW1pdDoxMDt9JiN4YTsJLnN0MTh7ZmlsbDojRkZGRkZGO3N0cm9rZTojRkZGRkZGO3N0cm9rZS13aWR0aDo0O3N0cm9rZS1saW5lY2FwOnJvdW5kO3N0cm9rZS1saW5lam9pbjpyb3VuZDt9JiN4YTs8L3N0eWxlPiYjeGE7PHJlY3QgaGVpZ2h0PSIxMjAiIHdpZHRoPSIxMjAiIGNsYXNzPSJzdDAiLz4mI3hhOzxnPiYjeGE7CTxnPiYjeGE7CQk8cGF0aCBkPSJNNzEuNywxOS43VjQ4aDI4IiBjbGFzcz0ic3QxIi8+JiN4YTsJCTxwYXRoIGQ9Ik05MS4yLDM4LjVsNy41LDcuNmMxLjMsMS4zLDEuMywzLjEsMCw0LjNMOTEuMSw1OCIgY2xhc3M9InN0MSIvPiYjeGE7CTwvZz4mI3hhOwk8Zz4mI3hhOwkJPHBhdGggZD0iTTIwLDQ3LjhoMjguNHYtMjgiIGNsYXNzPSJzdDEiLz4mI3hhOwkJPHBhdGggZD0iTTM4LjgsMjguM2w3LjYtNy41YzEuMy0xLjMsMy4xLTEuMyw0LjMsMGw3LjcsNy42IiBjbGFzcz0ic3QxIi8+JiN4YTsJPC9nPiYjeGE7CTxnPiYjeGE7CQk8cGF0aCBkPSJNNDgsMTAwLjNWNzJIMjAiIGNsYXNzPSJzdDEiLz4mI3hhOwkJPHBhdGggZD0iTTI4LjUsODEuNUwyMSw3My45Yy0xLjMtMS4zLTEuMy0zLjEsMC00LjNsNy42LTcuNyIgY2xhc3M9InN0MSIvPiYjeGE7CTwvZz4mI3hhOwk8Zz4mI3hhOwkJPHBhdGggZD0iTTEwMCw3MS45SDcxLjZ2MjgiIGNsYXNzPSJzdDEiLz4mI3hhOwkJPHBhdGggZD0iTTgxLjIsOTEuNGwtNy42LDcuNWMtMS4zLDEuMy0zLjEsMS4zLTQuMywwbC03LjctNy42IiBjbGFzcz0ic3QxIi8+JiN4YTsJPC9nPiYjeGE7PC9nPiYjeGE7PC9zdmc+;" vertex="1" parent="group-clab-vt-DC1-Spine1">
          <mxGeometry x="0.0" y="6.0" width="75" height="75" as="geometry" />
      </mxCell>
    </object><object id="clab-vt-DC1-Spine2" label="DC1-Spine2">
      <mxCell style="shape=image;imageAlign=center;imageVerticalAlign=middle;labelPosition=left;align=right;verticalLabelPosition=top;spacingLeft=0;verticalAlign=bottom;spacingTop=0;spacing=0;editableCssRules=\.st[0-2]$;labelBackgroundColor=none;aspect=fixed;imageAspect=0;image=data:image/svg+xml,PHN2ZyB4bWxuczp4bGluaz0iaHR0cDovL3d3dy53My5vcmcvMTk5OS94bGluayIgeG1sbnM9Imh0dHA6Ly93d3cudzMub3JnLzIwMDAvc3ZnIiB4bWw6c3BhY2U9InByZXNlcnZlIiBzdHlsZT0iZW5hYmxlLWJhY2tncm91bmQ6bmV3IDAgMCAxMjAgMTIwO2VkaXRhYmxlQ3NzUnVsZXM9Lio7IiB2aWV3Qm94PSIwIDAgMTIwIDEyMCIgeT0iMHB4IiB4PSIwcHgiIGlkPSJMYXllcl8xIiB2ZXJzaW9uPSIxLjEiPiYjeGE7PHN0eWxlIHR5cGU9InRleHQvY3NzIj4mI3hhOwkuc3Qwe2ZpbGw6IzAwMTEzNTt9JiN4YTsJLnN0MXtmaWxsOm5vbmU7c3Ryb2tlOiNGRkZGRkY7c3Ryb2tlLXdpZHRoOjQ7c3Ryb2tlLWxpbmVjYXA6cm91bmQ7c3Ryb2tlLWxpbmVqb2luOnJvdW5kO3N0cm9rZS1taXRlcmxpbWl0OjEwO30mI3hhOwkuc3Qye2ZpbGw6I0ZGRkZGRjt9JiN4YTsJLnN0M3tmaWxsOm5vbmU7c3Ryb2tlOiNGRkZGRkY7c3Ryb2tlLXdpZHRoOjQ7c3Ryb2tlLW1pdGVybGltaXQ6MTA7fSYjeGE7CS5zdDR7ZmlsbDpub25lO3N0cm9rZTojRkZGRkZGO3N0cm9rZS13aWR0aDo0O3N0cm9rZS1saW5lY2FwOnJvdW5kO3N0cm9rZS1saW5lam9pbjpyb3VuZDt9JiN4YTsJLnN0NXtmaWxsOiNGRkZGRkY7c3Ryb2tlOiNGRkZGRkY7c3Ryb2tlLXdpZHRoOjQ7c3Ryb2tlLWxpbmVjYXA6cm91bmQ7c3Ryb2tlLWxpbmVqb2luOnJvdW5kO3N0cm9rZS1taXRlcmxpbWl0OjEwO30mI3hhOwkuc3Q2e2ZpbGw6bm9uZTtzdHJva2U6I0ZGRkZGRjtzdHJva2Utd2lkdGg6NC4yMzMzO3N0cm9rZS1saW5lY2FwOnJvdW5kO3N0cm9rZS1saW5lam9pbjpyb3VuZDtzdHJva2UtbWl0ZXJsaW1pdDoxMDt9JiN4YTsJLnN0N3tmaWxsOm5vbmU7c3Ryb2tlOiNGRkZGRkY7c3Ryb2tlLXdpZHRoOjQ7c3Ryb2tlLWxpbmVjYXA6cm91bmQ7c3Ryb2tlLW1pdGVybGltaXQ6MTA7fSYjeGE7CS5zdDh7ZmlsbDojRkZGRkZGO3N0cm9rZTojRkZGRkZGO3N0cm9rZS13aWR0aDo0O3N0cm9rZS1taXRlcmxpbWl0OjEwO30mI3hhOwkuc3Q5e2ZpbGw6I0ZGRkZGRjtzdHJva2U6I0ZGRkZGRjtzdHJva2Utd2lkdGg6NDt9JiN4YTsJLnN0MTB7ZmlsbDpub25lO3N0cm9rZTojRkZGRkZGO3N0cm9rZS13aWR0aDo0O30mI3hhOwkuc3QxMXtmaWxsOiMyNjI2MjY7c3Ryb2tlOiNGRkZGRkY7c3Ryb2tlLXdpZHRoOjQuMjMzMzt9JiN4YTsJLnN0MTJ7ZmlsbC1ydWxlOmV2ZW5vZGQ7Y2xpcC1ydWxlOmV2ZW5vZGQ7ZmlsbDpub25lO3N0cm9rZTojRkZGRkZGO3N0cm9rZS13aWR0aDo0O3N0cm9rZS1taXRlcmxpbWl0OjEwO30mI3hhOwkuc3QxM3tmaWxsLXJ1bGU6ZXZlbm9kZDtjbGlwLXJ1bGU6ZXZlbm9kZDtmaWxsOiNGRkZGRkY7c3Ryb2tlOiNGRkZGRkY7c3Ryb2tlLXdpZHRoOjQ7fSYjeGE7CS5zdDE0e2ZpbGw6bm9uZTtzdHJva2U6I0ZGRkZGRjtzdHJva2Utd2lkdGg6NC4yMzMzO3N0cm9rZS1saW5lY2FwOnJvdW5kO3N0cm9rZS1saW5lam9pbjpyb3VuZDt9JiN4YTsJLnN0MTV7ZmlsbDpub25lO3N0cm9rZTojRkZGRkZGO3N0cm9rZS13aWR0aDo0O3N0cm9rZS1saW5lY2FwOnJvdW5kO30mI3hhOwkuc3QxNntmaWxsOiNGRkZGRkY7c3Ryb2tlOiNGRkZGRkY7c3Ryb2tlLW1pdGVybGltaXQ6MTA7fSYjeGE7CS5zdDE3e2ZpbGw6IzI2MjYyNjtzdHJva2U6I0ZGRkZGRjtzdHJva2Utd2lkdGg6NDtzdHJva2UtbWl0ZXJsaW1pdDoxMDt9JiN4YTsJLnN0MTh7ZmlsbDojRkZGRkZGO3N0cm9rZTojRkZGRkZGO3N0cm9rZS13aWR0aDo0O3N0cm9rZS1saW5lY2FwOnJvdW5kO3N0cm9rZS1saW5lam9pbjpyb3VuZDt9JiN4YTs8L3N0eWxlPiYjeGE7PHJlY3QgaGVpZ2h0PSIxMjAiIHdpZHRoPSIxMjAiIGNsYXNzPSJzdDAiLz4mI3hhOzxnPiYjeGE7CTxnPiYjeGE7CQk8cGF0aCBkPSJNNzEuNywxOS43VjQ4aDI4IiBjbGFzcz0ic3QxIi8+JiN4YTsJCTxwYXRoIGQ9Ik05MS4yLDM4LjVsNy41LDcuNmMxLjMsMS4zLDEuMywzLjEsMCw0LjNMOTEuMSw1OCIgY2xhc3M9InN0MSIvPiYjeGE7CTwvZz4mI3hhOwk8Zz4mI3hhOwkJPHBhdGggZD0iTTIwLDQ3LjhoMjguNHYtMjgiIGNsYXNzPSJzdDEiLz4mI3hhOwkJPHBhdGggZD0iTTM4LjgsMjguM2w3LjYtNy41YzEuMy0xLjMsMy4xLTEuMyw0LjMsMGw3LjcsNy42IiBjbGFzcz0ic3QxIi8+JiN4YTsJPC9nPiYjeGE7CTxnPiYjeGE7CQk8cGF0aCBkPSJNNDgsMTAwLjNWNzJIMjAiIGNsYXNzPSJzdDEiLz4mI3hhOwkJPHBhdGggZD0iTTI4LjUsODEuNUwyMSw3My45Yy0xLjMtMS4zLTEuMy0zLjEsMC00LjNsNy42LTcuNyIgY2xhc3M9InN0MSIvPiYjeGE7CTwvZz4mI3hhOwk8Zz4mI3hhOwkJPHBhdGggZD0iTTEwMCw3MS45SDcxLjZ2MjgiIGNsYXNzPSJzdDEiLz4mI3hhOwkJPHBhdGggZD0iTTgxLjIsOTEuNGwtNy42LDcuNWMtMS4zLDEuMy0zLjEsMS4zLTQuMywwbC03LjctNy42IiBjbGFzcz0ic3QxIi8+JiN4YTsJPC9nPiYjeGE7PC9nPiYjeGE7PC9zdmc+;" vertex="1" parent="group-clab-vt-DC1-Spine2">
          <mxGeometry x="0.0" y="6.0" width="75" height="75" as="geometry" />
      </mxCell>
    </object><object id="clab-vt-DC2-Spine1" label="DC2-Spine1">
      <mxCell style="shape=image;imageAlign=center;imageVerticalAlign=middle;labelPosition=left;align=right;verticalLabelPosition=top;spacingLeft=0;verticalAlign=bottom;spacingTop=0;spacing=0;editableCssRules=\.st[0-2]$;labelBackgroundColor=none;aspect=fixed;imageAspect=0;image=data:image/svg+xml,PHN2ZyB4bWxuczp4bGluaz0iaHR0cDovL3d3dy53My5vcmcvMTk5OS94bGluayIgeG1sbnM9Imh0dHA6Ly93d3cudzMub3JnLzIwMDAvc3ZnIiB4bWw6c3BhY2U9InByZXNlcnZlIiBzdHlsZT0iZW5hYmxlLWJhY2tncm91bmQ6bmV3IDAgMCAxMjAgMTIwO2VkaXRhYmxlQ3NzUnVsZXM9Lio7IiB2aWV3Qm94PSIwIDAgMTIwIDEyMCIgeT0iMHB4IiB4PSIwcHgiIGlkPSJMYXllcl8xIiB2ZXJzaW9uPSIxLjEiPiYjeGE7PHN0eWxlIHR5cGU9InRleHQvY3NzIj4mI3hhOwkuc3Qwe2ZpbGw6IzAwMTEzNTt9JiN4YTsJLnN0MXtmaWxsOm5vbmU7c3Ryb2tlOiNGRkZGRkY7c3Ryb2tlLXdpZHRoOjQ7c3Ryb2tlLWxpbmVjYXA6cm91bmQ7c3Ryb2tlLWxpbmVqb2luOnJvdW5kO3N0cm9rZS1taXRlcmxpbWl0OjEwO30mI3hhOwkuc3Qye2ZpbGw6I0ZGRkZGRjt9JiN4YTsJLnN0M3tmaWxsOm5vbmU7c3Ryb2tlOiNGRkZGRkY7c3Ryb2tlLXdpZHRoOjQ7c3Ryb2tlLW1pdGVybGltaXQ6MTA7fSYjeGE7CS5zdDR7ZmlsbDpub25lO3N0cm9rZTojRkZGRkZGO3N0cm9rZS13aWR0aDo0O3N0cm9rZS1saW5lY2FwOnJvdW5kO3N0cm9rZS1saW5lam9pbjpyb3VuZDt9JiN4YTsJLnN0NXtmaWxsOiNGRkZGRkY7c3Ryb2tlOiNGRkZGRkY7c3Ryb2tlLXdpZHRoOjQ7c3Ryb2tlLWxpbmVjYXA6cm91bmQ7c3Ryb2tlLWxpbmVqb2luOnJvdW5kO3N0cm9rZS1taXRlcmxpbWl0OjEwO30mI3hhOwkuc3Q2e2ZpbGw6bm9uZTtzdHJva2U6I0ZGRkZGRjtzdHJva2Utd2lkdGg6NC4yMzMzO3N0cm9rZS1saW5lY2FwOnJvdW5kO3N0cm9rZS1saW5lam9pbjpyb3VuZDtzdHJva2UtbWl0ZXJsaW1pdDoxMDt9JiN4YTsJLnN0N3tmaWxsOm5vbmU7c3Ryb2tlOiNGRkZGRkY7c3Ryb2tlLXdpZHRoOjQ7c3Ryb2tlLWxpbmVjYXA6cm91bmQ7c3Ryb2tlLW1pdGVybGltaXQ6MTA7fSYjeGE7CS5zdDh7ZmlsbDojRkZGRkZGO3N0cm9rZTojRkZGRkZGO3N0cm9rZS13aWR0aDo0O3N0cm9rZS1taXRlcmxpbWl0OjEwO30mI3hhOwkuc3Q5e2ZpbGw6I0ZGRkZGRjtzdHJva2U6I0ZGRkZGRjtzdHJva2Utd2lkdGg6NDt9JiN4YTsJLnN0MTB7ZmlsbDpub25lO3N0cm9rZTojRkZGRkZGO3N0cm9rZS13aWR0aDo0O30mI3hhOwkuc3QxMXtmaWxsOiMyNjI2MjY7c3Ryb2tlOiNGRkZGRkY7c3Ryb2tlLXdpZHRoOjQuMjMzMzt9JiN4YTsJLnN0MTJ7ZmlsbC1ydWxlOmV2ZW5vZGQ7Y2xpcC1ydWxlOmV2ZW5vZGQ7ZmlsbDpub25lO3N0cm9rZTojRkZGRkZGO3N0cm9rZS13aWR0aDo0O3N0cm9rZS1taXRlcmxpbWl0OjEwO30mI3hhOwkuc3QxM3tmaWxsLXJ1bGU6ZXZlbm9kZDtjbGlwLXJ1bGU6ZXZlbm9kZDtmaWxsOiNGRkZGRkY7c3Ryb2tlOiNGRkZGRkY7c3Ryb2tlLXdpZHRoOjQ7fSYjeGE7CS5zdDE0e2ZpbGw6bm9uZTtzdHJva2U6I0ZGRkZGRjtzdHJva2Utd2lkdGg6NC4yMzMzO3N0cm9rZS1saW5lY2FwOnJvdW5kO3N0cm9rZS1saW5lam9pbjpyb3VuZDt9JiN4YTsJLnN0MTV7ZmlsbDpub25lO3N0cm9rZTojRkZGRkZGO3N0cm9rZS13aWR0aDo0O3N0cm9rZS1saW5lY2FwOnJvdW5kO30mI3hhOwkuc3QxNntmaWxsOiNGRkZGRkY7c3Ryb2tlOiNGRkZGRkY7c3Ryb2tlLW1pdGVybGltaXQ6MTA7fSYjeGE7CS5zdDE3e2ZpbGw6IzI2MjYyNjtzdHJva2U6I0ZGRkZGRjtzdHJva2Utd2lkdGg6NDtzdHJva2UtbWl0ZXJsaW1pdDoxMDt9JiN4YTsJLnN0MTh7ZmlsbDojRkZGRkZGO3N0cm9rZTojRkZGRkZGO3N0cm9rZS13aWR0aDo0O3N0cm9rZS1saW5lY2FwOnJvdW5kO3N0cm9rZS1saW5lam9pbjpyb3VuZDt9JiN4YTs8L3N0eWxlPiYjeGE7PHJlY3QgaGVpZ2h0PSIxMjAiIHdpZHRoPSIxMjAiIGNsYXNzPSJzdDAiLz4mI3hhOzxnPiYjeGE7CTxnPiYjeGE7CQk8cGF0aCBkPSJNNzEuNywxOS43VjQ4aDI4IiBjbGFzcz0ic3QxIi8+JiN4YTsJCTxwYXRoIGQ9Ik05MS4yLDM4LjVsNy41LDcuNmMxLjMsMS4zLDEuMywzLjEsMCw0LjNMOTEuMSw1OCIgY2xhc3M9InN0MSIvPiYjeGE7CTwvZz4mI3hhOwk8Zz4mI3hhOwkJPHBhdGggZD0iTTIwLDQ3LjhoMjguNHYtMjgiIGNsYXNzPSJzdDEiLz4mI3hhOwkJPHBhdGggZD0iTTM4LjgsMjguM2w3LjYtNy41YzEuMy0xLjMsMy4xLTEuMyw0LjMsMGw3LjcsNy42IiBjbGFzcz0ic3QxIi8+JiN4YTsJPC9nPiYjeGE7CTxnPiYjeGE7CQk8cGF0aCBkPSJNNDgsMTAwLjNWNzJIMjAiIGNsYXNzPSJzdDEiLz4mI3hhOwkJPHBhdGggZD0iTTI4LjUsODEuNUwyMSw3My45Yy0xLjMtMS4zLTEuMy0zLjEsMC00LjNsNy42LTcuNyIgY2xhc3M9InN0MSIvPiYjeGE7CTwvZz4mI3hhOwk8Zz4mI3hhOwkJPHBhdGggZD0iTTEwMCw3MS45SDcxLjZ2MjgiIGNsYXNzPSJzdDEiLz4mI3hhOwkJPHBhdGggZD0iTTgxLjIsOTEuNGwtNy42LDcuNWMtMS4zLDEuMy0zLjEsMS4zLTQuMywwbC03LjctNy42IiBjbGFzcz0ic3QxIi8+JiN4YTsJPC9nPiYjeGE7PC9nPiYjeGE7PC9zdmc+;" vertex="1" parent="group-clab-vt-DC2-Spine1">
          <mxGeometry x="0.0" y="6.0" width="75" height="75" as="geometry" />
      </mxCell>
    </object><object id="clab-vt-DC2-Spine2" label="DC2-Spine2">
      <mxCell style="shape=image;imageAlign=center;imageVerticalAlign=middle;labelPosition=left;align=right;verticalLabelPosition=top;spacingLeft=0;verticalAlign=bottom;spacingTop=0;spacing=0;editableCssRules=\.st[0-2]$;labelBackgroundColor=none;aspect=fixed;imageAspect=0;image=data:image/svg+xml,PHN2ZyB4bWxuczp4bGluaz0iaHR0cDovL3d3dy53My5vcmcvMTk5OS94bGluayIgeG1sbnM9Imh0dHA6Ly93d3cudzMub3JnLzIwMDAvc3ZnIiB4bWw6c3BhY2U9InByZXNlcnZlIiBzdHlsZT0iZW5hYmxlLWJhY2tncm91bmQ6bmV3IDAgMCAxMjAgMTIwO2VkaXRhYmxlQ3NzUnVsZXM9Lio7IiB2aWV3Qm94PSIwIDAgMTIwIDEyMCIgeT0iMHB4IiB4PSIwcHgiIGlkPSJMYXllcl8xIiB2ZXJzaW9uPSIxLjEiPiYjeGE7PHN0eWxlIHR5cGU9InRleHQvY3NzIj4mI3hhOwkuc3Qwe2ZpbGw6IzAwMTEzNTt9JiN4YTsJLnN0MXtmaWxsOm5vbmU7c3Ryb2tlOiNGRkZGRkY7c3Ryb2tlLXdpZHRoOjQ7c3Ryb2tlLWxpbmVjYXA6cm91bmQ7c3Ryb2tlLWxpbmVqb2luOnJvdW5kO3N0cm9rZS1taXRlcmxpbWl0OjEwO30mI3hhOwkuc3Qye2ZpbGw6I0ZGRkZGRjt9JiN4YTsJLnN0M3tmaWxsOm5vbmU7c3Ryb2tlOiNGRkZGRkY7c3Ryb2tlLXdpZHRoOjQ7c3Ryb2tlLW1pdGVybGltaXQ6MTA7fSYjeGE7CS5zdDR7ZmlsbDpub25lO3N0cm9rZTojRkZGRkZGO3N0cm9rZS13aWR0aDo0O3N0cm9rZS1saW5lY2FwOnJvdW5kO3N0cm9rZS1saW5lam9pbjpyb3VuZDt9JiN4YTsJLnN0NXtmaWxsOiNGRkZGRkY7c3Ryb2tlOiNGRkZGRkY7c3Ryb2tlLXdpZHRoOjQ7c3Ryb2tlLWxpbmVjYXA6cm91bmQ7c3Ryb2tlLWxpbmVqb2luOnJvdW5kO3N0cm9rZS1taXRlcmxpbWl0OjEwO30mI3hhOwkuc3Q2e2ZpbGw6bm9uZTtzdHJva2U6I0ZGRkZGRjtzdHJva2Utd2lkdGg6NC4yMzMzO3N0cm9rZS1saW5lY2FwOnJvdW5kO3N0cm9rZS1saW5lam9pbjpyb3VuZDtzdHJva2UtbWl0ZXJsaW1pdDoxMDt9JiN4YTsJLnN0N3tmaWxsOm5vbmU7c3Ryb2tlOiNGRkZGRkY7c3Ryb2tlLXdpZHRoOjQ7c3Ryb2tlLWxpbmVjYXA6cm91bmQ7c3Ryb2tlLW1pdGVybGltaXQ6MTA7fSYjeGE7CS5zdDh7ZmlsbDojRkZGRkZGO3N0cm9rZTojRkZGRkZGO3N0cm9rZS13aWR0aDo0O3N0cm9rZS1taXRlcmxpbWl0OjEwO30mI3hhOwkuc3Q5e2ZpbGw6I0ZGRkZGRjtzdHJva2U6I0ZGRkZGRjtzdHJva2Utd2lkdGg6NDt9JiN4YTsJLnN0MTB7ZmlsbDpub25lO3N0cm9rZTojRkZGRkZGO3N0cm9rZS13aWR0aDo0O30mI3hhOwkuc3QxMXtmaWxsOiMyNjI2MjY7c3Ryb2tlOiNGRkZGRkY7c3Ryb2tlLXdpZHRoOjQuMjMzMzt9JiN4YTsJLnN0MTJ7ZmlsbC1ydWxlOmV2ZW5vZGQ7Y2xpcC1ydWxlOmV2ZW5vZGQ7ZmlsbDpub25lO3N0cm9rZTojRkZGRkZGO3N0cm9rZS13aWR0aDo0O3N0cm9rZS1taXRlcmxpbWl0OjEwO30mI3hhOwkuc3QxM3tmaWxsLXJ1bGU6ZXZlbm9kZDtjbGlwLXJ1bGU6ZXZlbm9kZDtmaWxsOiNGRkZGRkY7c3Ryb2tlOiNGRkZGRkY7c3Ryb2tlLXdpZHRoOjQ7fSYjeGE7CS5zdDE0e2ZpbGw6bm9uZTtzdHJva2U6I0ZGRkZGRjtzdHJva2Utd2lkdGg6NC4yMzMzO3N0cm9rZS1saW5lY2FwOnJvdW5kO3N0cm9rZS1saW5lam9pbjpyb3VuZDt9JiN4YTsJLnN0MTV7ZmlsbDpub25lO3N0cm9rZTojRkZGRkZGO3N0cm9rZS13aWR0aDo0O3N0cm9rZS1saW5lY2FwOnJvdW5kO30mI3hhOwkuc3QxNntmaWxsOiNGRkZGRkY7c3Ryb2tlOiNGRkZGRkY7c3Ryb2tlLW1pdGVybGltaXQ6MTA7fSYjeGE7CS5zdDE3e2ZpbGw6IzI2MjYyNjtzdHJva2U6I0ZGRkZGRjtzdHJva2Utd2lkdGg6NDtzdHJva2UtbWl0ZXJsaW1pdDoxMDt9JiN4YTsJLnN0MTh7ZmlsbDojRkZGRkZGO3N0cm9rZTojRkZGRkZGO3N0cm9rZS13aWR0aDo0O3N0cm9rZS1saW5lY2FwOnJvdW5kO3N0cm9rZS1saW5lam9pbjpyb3VuZDt9JiN4YTs8L3N0eWxlPiYjeGE7PHJlY3QgaGVpZ2h0PSIxMjAiIHdpZHRoPSIxMjAiIGNsYXNzPSJzdDAiLz4mI3hhOzxnPiYjeGE7CTxnPiYjeGE7CQk8cGF0aCBkPSJNNzEuNywxOS43VjQ4aDI4IiBjbGFzcz0ic3QxIi8+JiN4YTsJCTxwYXRoIGQ9Ik05MS4yLDM4LjVsNy41LDcuNmMxLjMsMS4zLDEuMywzLjEsMCw0LjNMOTEuMSw1OCIgY2xhc3M9InN0MSIvPiYjeGE7CTwvZz4mI3hhOwk8Zz4mI3hhOwkJPHBhdGggZD0iTTIwLDQ3LjhoMjguNHYtMjgiIGNsYXNzPSJzdDEiLz4mI3hhOwkJPHBhdGggZD0iTTM4LjgsMjguM2w3LjYtNy41YzEuMy0xLjMsMy4xLTEuMyw0LjMsMGw3LjcsNy42IiBjbGFzcz0ic3QxIi8+JiN4YTsJPC9nPiYjeGE7CTxnPiYjeGE7CQk8cGF0aCBkPSJNNDgsMTAwLjNWNzJIMjAiIGNsYXNzPSJzdDEiLz4mI3hhOwkJPHBhdGggZD0iTTI4LjUsODEuNUwyMSw3My45Yy0xLjMtMS4zLTEuMy0zLjEsMC00LjNsNy42LTcuNyIgY2xhc3M9InN0MSIvPiYjeGE7CTwvZz4mI3hhOwk8Zz4mI3hhOwkJPHBhdGggZD0iTTEwMCw3MS45SDcxLjZ2MjgiIGNsYXNzPSJzdDEiLz4mI3hhOwkJPHBhdGggZD0iTTgxLjIsOTEuNGwtNy42LDcuNWMtMS4zLDEuMy0zLjEsMS4zLTQuMywwbC03LjctNy42IiBjbGFzcz0ic3QxIi8+JiN4YTsJPC9nPiYjeGE7PC9nPiYjeGE7PC9zdmc+;" vertex="1" parent="group-clab-vt-DC2-Spine2">
          <mxGeometry x="0.0" y="6.0" width="75" height="75" as="geometry" />
      </mxCell>
    </object><object id="clab-vt-DC1-GW1" label="DC1-GW1">
      <mxCell style="shape=image;imageAlign=center;imageVerticalAlign=middle;labelPosition=left;align=right;verticalLabelPosition=top;spacingLeft=0;verticalAlign=bottom;spacingTop=0;spacing=0;editableCssRules=\.st[0-2]$;labelBackgroundColor=none;aspect=fixed;imageAspect=0;image=data:image/svg+xml,PHN2ZyB4bWxuczp4bGluaz0iaHR0cDovL3d3dy53My5vcmcvMTk5OS94bGluayIgeG1sbnM9Imh0dHA6Ly93d3cudzMub3JnLzIwMDAvc3ZnIiB4bWw6c3BhY2U9InByZXNlcnZlIiBzdHlsZT0iZW5hYmxlLWJhY2tncm91bmQ6bmV3IDAgMCAxMjAgMTIwOyIgdmlld0JveD0iMCAwIDEyMCAxMjAiIHk9IjBweCIgeD0iMHB4IiBpZD0iTGF5ZXJfMSIgdmVyc2lvbj0iMS4xIj4mI3hhOzxzdHlsZSB0eXBlPSJ0ZXh0L2NzcyI+JiN4YTsJLnN0MHtmaWxsOiMwMDExMzU7fSYjeGE7CS5zdDF7ZmlsbDpub25lO3N0cm9rZTojRkZGRkZGO3N0cm9rZS13aWR0aDo0O3N0cm9rZS1saW5lY2FwOnJvdW5kO3N0cm9rZS1saW5lam9pbjpyb3VuZDtzdHJva2UtbWl0ZXJsaW1pdDoxMDt9JiN4YTsJLnN0MntmaWxsOiNGRkZGRkY7fSYjeGE7CS5zdDN7ZmlsbDpub25lO3N0cm9rZTojRkZGRkZGO3N0cm9rZS13aWR0aDo0O3N0cm9rZS1taXRlcmxpbWl0OjEwO30mI3hhOwkuc3Q0e2ZpbGw6bm9uZTtzdHJva2U6I0ZGRkZGRjtzdHJva2Utd2lkdGg6NDtzdHJva2UtbGluZWNhcDpyb3VuZDtzdHJva2UtbGluZWpvaW46cm91bmQ7fSYjeGE7CS5zdDV7ZmlsbDojRkZGRkZGO3N0cm9rZTojRkZGRkZGO3N0cm9rZS13aWR0aDo0O3N0cm9rZS1saW5lY2FwOnJvdW5kO3N0cm9rZS1saW5lam9pbjpyb3VuZDtzdHJva2UtbWl0ZXJsaW1pdDoxMDt9JiN4YTsJLnN0NntmaWxsOm5vbmU7c3Ryb2tlOiNGRkZGRkY7c3Ryb2tlLXdpZHRoOjQuMjMzMztzdHJva2UtbGluZWNhcDpyb3VuZDtzdHJva2UtbGluZWpvaW46cm91bmQ7c3Ryb2tlLW1pdGVybGltaXQ6MTA7fSYjeGE7CS5zdDd7ZmlsbDpub25lO3N0cm9rZTojRkZGRkZGO3N0cm9rZS13aWR0aDo0O3N0cm9rZS1saW5lY2FwOnJvdW5kO3N0cm9rZS1taXRlcmxpbWl0OjEwO30mI3hhOwkuc3Q4e2ZpbGw6I0ZGRkZGRjtzdHJva2U6I0ZGRkZGRjtzdHJva2Utd2lkdGg6NDtzdHJva2UtbWl0ZXJsaW1pdDoxMDt9JiN4YTsJLnN0OXtmaWxsOiNGRkZGRkY7c3Ryb2tlOiNGRkZGRkY7c3Ryb2tlLXdpZHRoOjQ7fSYjeGE7CS5zdDEwe2ZpbGw6bm9uZTtzdHJva2U6I0ZGRkZGRjtzdHJva2Utd2lkdGg6NDt9JiN4YTsJLnN0MTF7ZmlsbDojMjYyNjI2O3N0cm9rZTojRkZGRkZGO3N0cm9rZS13aWR0aDo0LjIzMzM7fSYjeGE7CS5zdDEye2ZpbGwtcnVsZTpldmVub2RkO2NsaXAtcnVsZTpldmVub2RkO2ZpbGw6bm9uZTtzdHJva2U6I0ZGRkZGRjtzdHJva2Utd2lkdGg6NDtzdHJva2UtbWl0ZXJsaW1pdDoxMDt9JiN4YTsJLnN0MTN7ZmlsbC1ydWxlOmV2ZW5vZGQ7Y2xpcC1ydWxlOmV2ZW5vZGQ7ZmlsbDojRkZGRkZGO3N0cm9rZTojRkZGRkZGO3N0cm9rZS13aWR0aDo0O30mI3hhOwkuc3QxNHtmaWxsOm5vbmU7c3Ryb2tlOiNGRkZGRkY7c3Ryb2tlLXdpZHRoOjQuMjMzMztzdHJva2UtbGluZWNhcDpyb3VuZDtzdHJva2UtbGluZWpvaW46cm91bmQ7fSYjeGE7CS5zdDE1e2ZpbGw6bm9uZTtzdHJva2U6I0ZGRkZGRjtzdHJva2Utd2lkdGg6NDtzdHJva2UtbGluZWNhcDpyb3VuZDt9JiN4YTsJLnN0MTZ7ZmlsbDojRkZGRkZGO3N0cm9rZTojRkZGRkZGO3N0cm9rZS1taXRlcmxpbWl0OjEwO30mI3hhOwkuc3QxN3tmaWxsOiMyNjI2MjY7c3Ryb2tlOiNGRkZGRkY7c3Ryb2tlLXdpZHRoOjQ7c3Ryb2tlLW1pdGVybGltaXQ6MTA7fSYjeGE7CS5zdDE4e2ZpbGw6I0ZGRkZGRjtzdHJva2U6I0ZGRkZGRjtzdHJva2Utd2lkdGg6NDtzdHJva2UtbGluZWNhcDpyb3VuZDtzdHJva2UtbGluZWpvaW46cm91bmQ7fSYjeGE7PC9zdHlsZT4mI3hhOzxyZWN0IGhlaWdodD0iMTIwIiB3aWR0aD0iMTIwIiBjbGFzcz0ic3QwIiB4PSIwIi8+JiN4YTs8Zz4mI3hhOwk8Zz4mI3hhOwkJPHBhdGggZD0iTTQ5LjcsNzBMMjAuMSw5OS44IiBjbGFzcz0ic3QxIi8+JiN4YTsJPC9nPiYjeGE7CTxnPiYjeGE7CQk8cGF0aCBkPSJNOTcuNyw5Ny40TDY4LDY3LjkiIGNsYXNzPSJzdDEiLz4mI3hhOwk8L2c+JiN4YTsJPGc+JiN4YTsJCTxwYXRoIGQ9Ik03MC40LDQ5LjdMOTkuOSwyMCIgY2xhc3M9InN0MSIvPiYjeGE7CTwvZz4mI3hhOwk8cGF0aCBkPSJNMjIuMywyMi4zTDUyLDUxLjkiIGNsYXNzPSJzdDEiLz4mI3hhOwk8cGF0aCBkPSJNMjAuMSwzMy45bDAtMTAuN2MwLTEuOCwxLjMtMywzLjEtMy4xbDEwLjgsMCIgY2xhc3M9InN0MSIvPiYjeGE7CTxwYXRoIGQ9Ik0zOC40LDY4bDEwLjcsMGMxLjgsMCwzLDEuMywzLjEsMy4xbDAsMTAuOCIgY2xhc3M9InN0MSIvPiYjeGE7CTxwYXRoIGQ9Ik05OS44LDg2LjJsMCwxMC43YzAsMS44LTEuMywzLTMuMSwzLjFsLTEwLjgsMCIgY2xhc3M9InN0MSIvPiYjeGE7CTxwYXRoIGQ9Ik04MS44LDUxLjlsLTEwLjcsMGMtMS44LDAtMy0xLjMtMy4xLTMuMUw2OCwzOCIgY2xhc3M9InN0MSIvPiYjeGE7PC9nPiYjeGE7PC9zdmc+;" vertex="1" parent="group-clab-vt-DC1-GW1">
          <mxGeometry x="0.0" y="6.0" width="75" height="75" as="geometry" />
      </mxCell>
    </object><object id="clab-vt-DC1-GW2" label="DC1-GW2">
      <mxCell style="shape=image;imageAlign=center;imageVerticalAlign=middle;labelPosition=left;align=right;verticalLabelPosition=top;spacingLeft=0;verticalAlign=bottom;spacingTop=0;spacing=0;editableCssRules=\.st[0-2]$;labelBackgroundColor=none;aspect=fixed;imageAspect=0;image=data:image/svg+xml,PHN2ZyB4bWxuczp4bGluaz0iaHR0cDovL3d3dy53My5vcmcvMTk5OS94bGluayIgeG1sbnM9Imh0dHA6Ly93d3cudzMub3JnLzIwMDAvc3ZnIiB4bWw6c3BhY2U9InByZXNlcnZlIiBzdHlsZT0iZW5hYmxlLWJhY2tncm91bmQ6bmV3IDAgMCAxMjAgMTIwOyIgdmlld0JveD0iMCAwIDEyMCAxMjAiIHk9IjBweCIgeD0iMHB4IiBpZD0iTGF5ZXJfMSIgdmVyc2lvbj0iMS4xIj4mI3hhOzxzdHlsZSB0eXBlPSJ0ZXh0L2NzcyI+JiN4YTsJLnN0MHtmaWxsOiMwMDExMzU7fSYjeGE7CS5zdDF7ZmlsbDpub25lO3N0cm9rZTojRkZGRkZGO3N0cm9rZS13aWR0aDo0O3N0cm9rZS1saW5lY2FwOnJvdW5kO3N0cm9rZS1saW5lam9pbjpyb3VuZDtzdHJva2UtbWl0ZXJsaW1pdDoxMDt9JiN4YTsJLnN0MntmaWxsOiNGRkZGRkY7fSYjeGE7CS5zdDN7ZmlsbDpub25lO3N0cm9rZTojRkZGRkZGO3N0cm9rZS13aWR0aDo0O3N0cm9rZS1taXRlcmxpbWl0OjEwO30mI3hhOwkuc3Q0e2ZpbGw6bm9uZTtzdHJva2U6I0ZGRkZGRjtzdHJva2Utd2lkdGg6NDtzdHJva2UtbGluZWNhcDpyb3VuZDtzdHJva2UtbGluZWpvaW46cm91bmQ7fSYjeGE7CS5zdDV7ZmlsbDojRkZGRkZGO3N0cm9rZTojRkZGRkZGO3N0cm9rZS13aWR0aDo0O3N0cm9rZS1saW5lY2FwOnJvdW5kO3N0cm9rZS1saW5lam9pbjpyb3VuZDtzdHJva2UtbWl0ZXJsaW1pdDoxMDt9JiN4YTsJLnN0NntmaWxsOm5vbmU7c3Ryb2tlOiNGRkZGRkY7c3Ryb2tlLXdpZHRoOjQuMjMzMztzdHJva2UtbGluZWNhcDpyb3VuZDtzdHJva2UtbGluZWpvaW46cm91bmQ7c3Ryb2tlLW1pdGVybGltaXQ6MTA7fSYjeGE7CS5zdDd7ZmlsbDpub25lO3N0cm9rZTojRkZGRkZGO3N0cm9rZS13aWR0aDo0O3N0cm9rZS1saW5lY2FwOnJvdW5kO3N0cm9rZS1taXRlcmxpbWl0OjEwO30mI3hhOwkuc3Q4e2ZpbGw6I0ZGRkZGRjtzdHJva2U6I0ZGRkZGRjtzdHJva2Utd2lkdGg6NDtzdHJva2UtbWl0ZXJsaW1pdDoxMDt9JiN4YTsJLnN0OXtmaWxsOiNGRkZGRkY7c3Ryb2tlOiNGRkZGRkY7c3Ryb2tlLXdpZHRoOjQ7fSYjeGE7CS5zdDEwe2ZpbGw6bm9uZTtzdHJva2U6I0ZGRkZGRjtzdHJva2Utd2lkdGg6NDt9JiN4YTsJLnN0MTF7ZmlsbDojMjYyNjI2O3N0cm9rZTojRkZGRkZGO3N0cm9rZS13aWR0aDo0LjIzMzM7fSYjeGE7CS5zdDEye2ZpbGwtcnVsZTpldmVub2RkO2NsaXAtcnVsZTpldmVub2RkO2ZpbGw6bm9uZTtzdHJva2U6I0ZGRkZGRjtzdHJva2Utd2lkdGg6NDtzdHJva2UtbWl0ZXJsaW1pdDoxMDt9JiN4YTsJLnN0MTN7ZmlsbC1ydWxlOmV2ZW5vZGQ7Y2xpcC1ydWxlOmV2ZW5vZGQ7ZmlsbDojRkZGRkZGO3N0cm9rZTojRkZGRkZGO3N0cm9rZS13aWR0aDo0O30mI3hhOwkuc3QxNHtmaWxsOm5vbmU7c3Ryb2tlOiNGRkZGRkY7c3Ryb2tlLXdpZHRoOjQuMjMzMztzdHJva2UtbGluZWNhcDpyb3VuZDtzdHJva2UtbGluZWpvaW46cm91bmQ7fSYjeGE7CS5zdDE1e2ZpbGw6bm9uZTtzdHJva2U6I0ZGRkZGRjtzdHJva2Utd2lkdGg6NDtzdHJva2UtbGluZWNhcDpyb3VuZDt9JiN4YTsJLnN0MTZ7ZmlsbDojRkZGRkZGO3N0cm9rZTojRkZGRkZGO3N0cm9rZS1taXRlcmxpbWl0OjEwO30mI3hhOwkuc3QxN3tmaWxsOiMyNjI2MjY7c3Ryb2tlOiNGRkZGRkY7c3Ryb2tlLXdpZHRoOjQ7c3Ryb2tlLW1pdGVybGltaXQ6MTA7fSYjeGE7CS5zdDE4e2ZpbGw6I0ZGRkZGRjtzdHJva2U6I0ZGRkZGRjtzdHJva2Utd2lkdGg6NDtzdHJva2UtbGluZWNhcDpyb3VuZDtzdHJva2UtbGluZWpvaW46cm91bmQ7fSYjeGE7PC9zdHlsZT4mI3hhOzxyZWN0IGhlaWdodD0iMTIwIiB3aWR0aD0iMTIwIiBjbGFzcz0ic3QwIiB4PSIwIi8+JiN4YTs8Zz4mI3hhOwk8Zz4mI3hhOwkJPHBhdGggZD0iTTQ5LjcsNzBMMjAuMSw5OS44IiBjbGFzcz0ic3QxIi8+JiN4YTsJPC9nPiYjeGE7CTxnPiYjeGE7CQk8cGF0aCBkPSJNOTcuNyw5Ny40TDY4LDY3LjkiIGNsYXNzPSJzdDEiLz4mI3hhOwk8L2c+JiN4YTsJPGc+JiN4YTsJCTxwYXRoIGQ9Ik03MC40LDQ5LjdMOTkuOSwyMCIgY2xhc3M9InN0MSIvPiYjeGE7CTwvZz4mI3hhOwk8cGF0aCBkPSJNMjIuMywyMi4zTDUyLDUxLjkiIGNsYXNzPSJzdDEiLz4mI3hhOwk8cGF0aCBkPSJNMjAuMSwzMy45bDAtMTAuN2MwLTEuOCwxLjMtMywzLjEtMy4xbDEwLjgsMCIgY2xhc3M9InN0MSIvPiYjeGE7CTxwYXRoIGQ9Ik0zOC40LDY4bDEwLjcsMGMxLjgsMCwzLDEuMywzLjEsMy4xbDAsMTAuOCIgY2xhc3M9InN0MSIvPiYjeGE7CTxwYXRoIGQ9Ik05OS44LDg2LjJsMCwxMC43YzAsMS44LTEuMywzLTMuMSwzLjFsLTEwLjgsMCIgY2xhc3M9InN0MSIvPiYjeGE7CTxwYXRoIGQ9Ik04MS44LDUxLjlsLTEwLjcsMGMtMS44LDAtMy0xLjMtMy4xLTMuMUw2OCwzOCIgY2xhc3M9InN0MSIvPiYjeGE7PC9nPiYjeGE7PC9zdmc+;" vertex="1" parent="group-clab-vt-DC1-GW2">
          <mxGeometry x="0.0" y="6.0" width="75" height="75" as="geometry" />
      </mxCell>
    </object><object id="clab-vt-DC2-GW1" label="DC2-GW1">
      <mxCell style="shape=image;imageAlign=center;imageVerticalAlign=middle;labelPosition=left;align=right;verticalLabelPosition=top;spacingLeft=0;verticalAlign=bottom;spacingTop=0;spacing=0;editableCssRules=\.st[0-2]$;labelBackgroundColor=none;aspect=fixed;imageAspect=0;image=data:image/svg+xml,PHN2ZyB4bWxuczp4bGluaz0iaHR0cDovL3d3dy53My5vcmcvMTk5OS94bGluayIgeG1sbnM9Imh0dHA6Ly93d3cudzMub3JnLzIwMDAvc3ZnIiB4bWw6c3BhY2U9InByZXNlcnZlIiBzdHlsZT0iZW5hYmxlLWJhY2tncm91bmQ6bmV3IDAgMCAxMjAgMTIwOyIgdmlld0JveD0iMCAwIDEyMCAxMjAiIHk9IjBweCIgeD0iMHB4IiBpZD0iTGF5ZXJfMSIgdmVyc2lvbj0iMS4xIj4mI3hhOzxzdHlsZSB0eXBlPSJ0ZXh0L2NzcyI+JiN4YTsJLnN0MHtmaWxsOiMwMDExMzU7fSYjeGE7CS5zdDF7ZmlsbDpub25lO3N0cm9rZTojRkZGRkZGO3N0cm9rZS13aWR0aDo0O3N0cm9rZS1saW5lY2FwOnJvdW5kO3N0cm9rZS1saW5lam9pbjpyb3VuZDtzdHJva2UtbWl0ZXJsaW1pdDoxMDt9JiN4YTsJLnN0MntmaWxsOiNGRkZGRkY7fSYjeGE7CS5zdDN7ZmlsbDpub25lO3N0cm9rZTojRkZGRkZGO3N0cm9rZS13aWR0aDo0O3N0cm9rZS1taXRlcmxpbWl0OjEwO30mI3hhOwkuc3Q0e2ZpbGw6bm9uZTtzdHJva2U6I0ZGRkZGRjtzdHJva2Utd2lkdGg6NDtzdHJva2UtbGluZWNhcDpyb3VuZDtzdHJva2UtbGluZWpvaW46cm91bmQ7fSYjeGE7CS5zdDV7ZmlsbDojRkZGRkZGO3N0cm9rZTojRkZGRkZGO3N0cm9rZS13aWR0aDo0O3N0cm9rZS1saW5lY2FwOnJvdW5kO3N0cm9rZS1saW5lam9pbjpyb3VuZDtzdHJva2UtbWl0ZXJsaW1pdDoxMDt9JiN4YTsJLnN0NntmaWxsOm5vbmU7c3Ryb2tlOiNGRkZGRkY7c3Ryb2tlLXdpZHRoOjQuMjMzMztzdHJva2UtbGluZWNhcDpyb3VuZDtzdHJva2UtbGluZWpvaW46cm91bmQ7c3Ryb2tlLW1pdGVybGltaXQ6MTA7fSYjeGE7CS5zdDd7ZmlsbDpub25lO3N0cm9rZTojRkZGRkZGO3N0cm9rZS13aWR0aDo0O3N0cm9rZS1saW5lY2FwOnJvdW5kO3N0cm9rZS1taXRlcmxpbWl0OjEwO30mI3hhOwkuc3Q4e2ZpbGw6I0ZGRkZGRjtzdHJva2U6I0ZGRkZGRjtzdHJva2Utd2lkdGg6NDtzdHJva2UtbWl0ZXJsaW1pdDoxMDt9JiN4YTsJLnN0OXtmaWxsOiNGRkZGRkY7c3Ryb2tlOiNGRkZGRkY7c3Ryb2tlLXdpZHRoOjQ7fSYjeGE7CS5zdDEwe2ZpbGw6bm9uZTtzdHJva2U6I0ZGRkZGRjtzdHJva2Utd2lkdGg6NDt9JiN4YTsJLnN0MTF7ZmlsbDojMjYyNjI2O3N0cm9rZTojRkZGRkZGO3N0cm9rZS13aWR0aDo0LjIzMzM7fSYjeGE7CS5zdDEye2ZpbGwtcnVsZTpldmVub2RkO2NsaXAtcnVsZTpldmVub2RkO2ZpbGw6bm9uZTtzdHJva2U6I0ZGRkZGRjtzdHJva2Utd2lkdGg6NDtzdHJva2UtbWl0ZXJsaW1pdDoxMDt9JiN4YTsJLnN0MTN7ZmlsbC1ydWxlOmV2ZW5vZGQ7Y2xpcC1ydWxlOmV2ZW5vZGQ7ZmlsbDojRkZGRkZGO3N0cm9rZTojRkZGRkZGO3N0cm9rZS13aWR0aDo0O30mI3hhOwkuc3QxNHtmaWxsOm5vbmU7c3Ryb2tlOiNGRkZGRkY7c3Ryb2tlLXdpZHRoOjQuMjMzMztzdHJva2UtbGluZWNhcDpyb3VuZDtzdHJva2UtbGluZWpvaW46cm91bmQ7fSYjeGE7CS5zdDE1e2ZpbGw6bm9uZTtzdHJva2U6I0ZGRkZGRjtzdHJva2Utd2lkdGg6NDtzdHJva2UtbGluZWNhcDpyb3VuZDt9JiN4YTsJLnN0MTZ7ZmlsbDojRkZGRkZGO3N0cm9rZTojRkZGRkZGO3N0cm9rZS1taXRlcmxpbWl0OjEwO30mI3hhOwkuc3QxN3tmaWxsOiMyNjI2MjY7c3Ryb2tlOiNGRkZGRkY7c3Ryb2tlLXdpZHRoOjQ7c3Ryb2tlLW1pdGVybGltaXQ6MTA7fSYjeGE7CS5zdDE4e2ZpbGw6I0ZGRkZGRjtzdHJva2U6I0ZGRkZGRjtzdHJva2Utd2lkdGg6NDtzdHJva2UtbGluZWNhcDpyb3VuZDtzdHJva2UtbGluZWpvaW46cm91bmQ7fSYjeGE7PC9zdHlsZT4mI3hhOzxyZWN0IGhlaWdodD0iMTIwIiB3aWR0aD0iMTIwIiBjbGFzcz0ic3QwIiB4PSIwIi8+JiN4YTs8Zz4mI3hhOwk8Zz4mI3hhOwkJPHBhdGggZD0iTTQ5LjcsNzBMMjAuMSw5OS44IiBjbGFzcz0ic3QxIi8+JiN4YTsJPC9nPiYjeGE7CTxnPiYjeGE7CQk8cGF0aCBkPSJNOTcuNyw5Ny40TDY4LDY3LjkiIGNsYXNzPSJzdDEiLz4mI3hhOwk8L2c+JiN4YTsJPGc+JiN4YTsJCTxwYXRoIGQ9Ik03MC40LDQ5LjdMOTkuOSwyMCIgY2xhc3M9InN0MSIvPiYjeGE7CTwvZz4mI3hhOwk8cGF0aCBkPSJNMjIuMywyMi4zTDUyLDUxLjkiIGNsYXNzPSJzdDEiLz4mI3hhOwk8cGF0aCBkPSJNMjAuMSwzMy45bDAtMTAuN2MwLTEuOCwxLjMtMywzLjEtMy4xbDEwLjgsMCIgY2xhc3M9InN0MSIvPiYjeGE7CTxwYXRoIGQ9Ik0zOC40LDY4bDEwLjcsMGMxLjgsMCwzLDEuMywzLjEsMy4xbDAsMTAuOCIgY2xhc3M9InN0MSIvPiYjeGE7CTxwYXRoIGQ9Ik05OS44LDg2LjJsMCwxMC43YzAsMS44LTEuMywzLTMuMSwzLjFsLTEwLjgsMCIgY2xhc3M9InN0MSIvPiYjeGE7CTxwYXRoIGQ9Ik04MS44LDUxLjlsLTEwLjcsMGMtMS44LDAtMy0xLjMtMy4xLTMuMUw2OCwzOCIgY2xhc3M9InN0MSIvPiYjeGE7PC9nPiYjeGE7PC9zdmc+;" vertex="1" parent="group-clab-vt-DC2-GW1">
          <mxGeometry x="0.0" y="6.0" width="75" height="75" as="geometry" />
      </mxCell>
    </object><object id="clab-vt-DC2-GW2" label="DC2-GW2">
      <mxCell style="shape=image;imageAlign=center;imageVerticalAlign=middle;labelPosition=left;align=right;verticalLabelPosition=top;spacingLeft=0;verticalAlign=bottom;spacingTop=0;spacing=0;editableCssRules=\.st[0-2]$;labelBackgroundColor=none;aspect=fixed;imageAspect=0;image=data:image/svg+xml,PHN2ZyB4bWxuczp4bGluaz0iaHR0cDovL3d3dy53My5vcmcvMTk5OS94bGluayIgeG1sbnM9Imh0dHA6Ly93d3cudzMub3JnLzIwMDAvc3ZnIiB4bWw6c3BhY2U9InByZXNlcnZlIiBzdHlsZT0iZW5hYmxlLWJhY2tncm91bmQ6bmV3IDAgMCAxMjAgMTIwOyIgdmlld0JveD0iMCAwIDEyMCAxMjAiIHk9IjBweCIgeD0iMHB4IiBpZD0iTGF5ZXJfMSIgdmVyc2lvbj0iMS4xIj4mI3hhOzxzdHlsZSB0eXBlPSJ0ZXh0L2NzcyI+JiN4YTsJLnN0MHtmaWxsOiMwMDExMzU7fSYjeGE7CS5zdDF7ZmlsbDpub25lO3N0cm9rZTojRkZGRkZGO3N0cm9rZS13aWR0aDo0O3N0cm9rZS1saW5lY2FwOnJvdW5kO3N0cm9rZS1saW5lam9pbjpyb3VuZDtzdHJva2UtbWl0ZXJsaW1pdDoxMDt9JiN4YTsJLnN0MntmaWxsOiNGRkZGRkY7fSYjeGE7CS5zdDN7ZmlsbDpub25lO3N0cm9rZTojRkZGRkZGO3N0cm9rZS13aWR0aDo0O3N0cm9rZS1taXRlcmxpbWl0OjEwO30mI3hhOwkuc3Q0e2ZpbGw6bm9uZTtzdHJva2U6I0ZGRkZGRjtzdHJva2Utd2lkdGg6NDtzdHJva2UtbGluZWNhcDpyb3VuZDtzdHJva2UtbGluZWpvaW46cm91bmQ7fSYjeGE7CS5zdDV7ZmlsbDojRkZGRkZGO3N0cm9rZTojRkZGRkZGO3N0cm9rZS13aWR0aDo0O3N0cm9rZS1saW5lY2FwOnJvdW5kO3N0cm9rZS1saW5lam9pbjpyb3VuZDtzdHJva2UtbWl0ZXJsaW1pdDoxMDt9JiN4YTsJLnN0NntmaWxsOm5vbmU7c3Ryb2tlOiNGRkZGRkY7c3Ryb2tlLXdpZHRoOjQuMjMzMztzdHJva2UtbGluZWNhcDpyb3VuZDtzdHJva2UtbGluZWpvaW46cm91bmQ7c3Ryb2tlLW1pdGVybGltaXQ6MTA7fSYjeGE7CS5zdDd7ZmlsbDpub25lO3N0cm9rZTojRkZGRkZGO3N0cm9rZS13aWR0aDo0O3N0cm9rZS1saW5lY2FwOnJvdW5kO3N0cm9rZS1taXRlcmxpbWl0OjEwO30mI3hhOwkuc3Q4e2ZpbGw6I0ZGRkZGRjtzdHJva2U6I0ZGRkZGRjtzdHJva2Utd2lkdGg6NDtzdHJva2UtbWl0ZXJsaW1pdDoxMDt9JiN4YTsJLnN0OXtmaWxsOiNGRkZGRkY7c3Ryb2tlOiNGRkZGRkY7c3Ryb2tlLXdpZHRoOjQ7fSYjeGE7CS5zdDEwe2ZpbGw6bm9uZTtzdHJva2U6I0ZGRkZGRjtzdHJva2Utd2lkdGg6NDt9JiN4YTsJLnN0MTF7ZmlsbDojMjYyNjI2O3N0cm9rZTojRkZGRkZGO3N0cm9rZS13aWR0aDo0LjIzMzM7fSYjeGE7CS5zdDEye2ZpbGwtcnVsZTpldmVub2RkO2NsaXAtcnVsZTpldmVub2RkO2ZpbGw6bm9uZTtzdHJva2U6I0ZGRkZGRjtzdHJva2Utd2lkdGg6NDtzdHJva2UtbWl0ZXJsaW1pdDoxMDt9JiN4YTsJLnN0MTN7ZmlsbC1ydWxlOmV2ZW5vZGQ7Y2xpcC1ydWxlOmV2ZW5vZGQ7ZmlsbDojRkZGRkZGO3N0cm9rZTojRkZGRkZGO3N0cm9rZS13aWR0aDo0O30mI3hhOwkuc3QxNHtmaWxsOm5vbmU7c3Ryb2tlOiNGRkZGRkY7c3Ryb2tlLXdpZHRoOjQuMjMzMztzdHJva2UtbGluZWNhcDpyb3VuZDtzdHJva2UtbGluZWpvaW46cm91bmQ7fSYjeGE7CS5zdDE1e2ZpbGw6bm9uZTtzdHJva2U6I0ZGRkZGRjtzdHJva2Utd2lkdGg6NDtzdHJva2UtbGluZWNhcDpyb3VuZDt9JiN4YTsJLnN0MTZ7ZmlsbDojRkZGRkZGO3N0cm9rZTojRkZGRkZGO3N0cm9rZS1taXRlcmxpbWl0OjEwO30mI3hhOwkuc3QxN3tmaWxsOiMyNjI2MjY7c3Ryb2tlOiNGRkZGRkY7c3Ryb2tlLXdpZHRoOjQ7c3Ryb2tlLW1pdGVybGltaXQ6MTA7fSYjeGE7CS5zdDE4e2ZpbGw6I0ZGRkZGRjtzdHJva2U6I0ZGRkZGRjtzdHJva2Utd2lkdGg6NDtzdHJva2UtbGluZWNhcDpyb3VuZDtzdHJva2UtbGluZWpvaW46cm91bmQ7fSYjeGE7PC9zdHlsZT4mI3hhOzxyZWN0IGhlaWdodD0iMTIwIiB3aWR0aD0iMTIwIiBjbGFzcz0ic3QwIiB4PSIwIi8+JiN4YTs8Zz4mI3hhOwk8Zz4mI3hhOwkJPHBhdGggZD0iTTQ5LjcsNzBMMjAuMSw5OS44IiBjbGFzcz0ic3QxIi8+JiN4YTsJPC9nPiYjeGE7CTxnPiYjeGE7CQk8cGF0aCBkPSJNOTcuNyw5Ny40TDY4LDY3LjkiIGNsYXNzPSJzdDEiLz4mI3hhOwk8L2c+JiN4YTsJPGc+JiN4YTsJCTxwYXRoIGQ9Ik03MC40LDQ5LjdMOTkuOSwyMCIgY2xhc3M9InN0MSIvPiYjeGE7CTwvZz4mI3hhOwk8cGF0aCBkPSJNMjIuMywyMi4zTDUyLDUxLjkiIGNsYXNzPSJzdDEiLz4mI3hhOwk8cGF0aCBkPSJNMjAuMSwzMy45bDAtMTAuN2MwLTEuOCwxLjMtMywzLjEtMy4xbDEwLjgsMCIgY2xhc3M9InN0MSIvPiYjeGE7CTxwYXRoIGQ9Ik0zOC40LDY4bDEwLjcsMGMxLjgsMCwzLDEuMywzLjEsMy4xbDAsMTAuOCIgY2xhc3M9InN0MSIvPiYjeGE7CTxwYXRoIGQ9Ik05OS44LDg2LjJsMCwxMC43YzAsMS44LTEuMywzLTMuMSwzLjFsLTEwLjgsMCIgY2xhc3M9InN0MSIvPiYjeGE7CTxwYXRoIGQ9Ik04MS44LDUxLjlsLTEwLjcsMGMtMS44LDAtMy0xLjMtMy4xLTMuMUw2OCwzOCIgY2xhc3M9InN0MSIvPiYjeGE7PC9nPiYjeGE7PC9zdmc+;" vertex="1" parent="group-clab-vt-DC2-GW2">
          <mxGeometry x="0.0" y="6.0" width="75" height="75" as="geometry" />
      </mxCell>
    </object><object id="clab-vt-BB1" label="BB1">
      <mxCell style="shape=image;imageAlign=center;imageVerticalAlign=middle;labelPosition=left;align=right;verticalLabelPosition=top;spacingLeft=0;verticalAlign=bottom;spacingTop=0;spacing=0;editableCssRules=\.st[0-2]$;labelBackgroundColor=none;aspect=fixed;imageAspect=0;image=data:image/svg+xml,PHN2ZyB4bWxuczp4bGluaz0iaHR0cDovL3d3dy53My5vcmcvMTk5OS94bGluayIgeG1sbnM9Imh0dHA6Ly93d3cudzMub3JnLzIwMDAvc3ZnIiB4bWw6c3BhY2U9InByZXNlcnZlIiBzdHlsZT0iZW5hYmxlLWJhY2tncm91bmQ6bmV3IDAgMCAxMjAgMTIwOyIgdmlld0JveD0iMCAwIDEyMCAxMjAiIHk9IjBweCIgeD0iMHB4IiBpZD0iTGF5ZXJfMSIgdmVyc2lvbj0iMS4xIj4mI3hhOzxzdHlsZSB0eXBlPSJ0ZXh0L2NzcyI+JiN4YTsJLnN0MHtmaWxsOiMwMDExMzU7fSYjeGE7CS5zdDF7ZmlsbDpub25lO3N0cm9rZTojRkZGRkZGO3N0cm9rZS13aWR0aDo0O3N0cm9rZS1saW5lY2FwOnJvdW5kO3N0cm9rZS1saW5lam9pbjpyb3VuZDtzdHJva2UtbWl0ZXJsaW1pdDoxMDt9JiN4YTsJLnN0MntmaWxsOiNGRkZGRkY7fSYjeGE7CS5zdDN7ZmlsbDpub25lO3N0cm9rZTojRkZGRkZGO3N0cm9rZS13aWR0aDo0O3N0cm9rZS1taXRlcmxpbWl0OjEwO30mI3hhOwkuc3Q0e2ZpbGw6bm9uZTtzdHJva2U6I0ZGRkZGRjtzdHJva2Utd2lkdGg6NDtzdHJva2UtbGluZWNhcDpyb3VuZDtzdHJva2UtbGluZWpvaW46cm91bmQ7fSYjeGE7CS5zdDV7ZmlsbDojRkZGRkZGO3N0cm9rZTojRkZGRkZGO3N0cm9rZS13aWR0aDo0O3N0cm9rZS1saW5lY2FwOnJvdW5kO3N0cm9rZS1saW5lam9pbjpyb3VuZDtzdHJva2UtbWl0ZXJsaW1pdDoxMDt9JiN4YTsJLnN0NntmaWxsOm5vbmU7c3Ryb2tlOiNGRkZGRkY7c3Ryb2tlLXdpZHRoOjQuMjMzMztzdHJva2UtbGluZWNhcDpyb3VuZDtzdHJva2UtbGluZWpvaW46cm91bmQ7c3Ryb2tlLW1pdGVybGltaXQ6MTA7fSYjeGE7CS5zdDd7ZmlsbDpub25lO3N0cm9rZTojRkZGRkZGO3N0cm9rZS13aWR0aDo0O3N0cm9rZS1saW5lY2FwOnJvdW5kO3N0cm9rZS1taXRlcmxpbWl0OjEwO30mI3hhOwkuc3Q4e2ZpbGw6I0ZGRkZGRjtzdHJva2U6I0ZGRkZGRjtzdHJva2Utd2lkdGg6NDtzdHJva2UtbWl0ZXJsaW1pdDoxMDt9JiN4YTsJLnN0OXtmaWxsOiNGRkZGRkY7c3Ryb2tlOiNGRkZGRkY7c3Ryb2tlLXdpZHRoOjQ7fSYjeGE7CS5zdDEwe2ZpbGw6bm9uZTtzdHJva2U6I0ZGRkZGRjtzdHJva2Utd2lkdGg6NDt9JiN4YTsJLnN0MTF7ZmlsbDojMjYyNjI2O3N0cm9rZTojRkZGRkZGO3N0cm9rZS13aWR0aDo0LjIzMzM7fSYjeGE7CS5zdDEye2ZpbGwtcnVsZTpldmVub2RkO2NsaXAtcnVsZTpldmVub2RkO2ZpbGw6bm9uZTtzdHJva2U6I0ZGRkZGRjtzdHJva2Utd2lkdGg6NDtzdHJva2UtbWl0ZXJsaW1pdDoxMDt9JiN4YTsJLnN0MTN7ZmlsbC1ydWxlOmV2ZW5vZGQ7Y2xpcC1ydWxlOmV2ZW5vZGQ7ZmlsbDojRkZGRkZGO3N0cm9rZTojRkZGRkZGO3N0cm9rZS13aWR0aDo0O30mI3hhOwkuc3QxNHtmaWxsOm5vbmU7c3Ryb2tlOiNGRkZGRkY7c3Ryb2tlLXdpZHRoOjQuMjMzMztzdHJva2UtbGluZWNhcDpyb3VuZDtzdHJva2UtbGluZWpvaW46cm91bmQ7fSYjeGE7CS5zdDE1e2ZpbGw6bm9uZTtzdHJva2U6I0ZGRkZGRjtzdHJva2Utd2lkdGg6NDtzdHJva2UtbGluZWNhcDpyb3VuZDt9JiN4YTsJLnN0MTZ7ZmlsbDojRkZGRkZGO3N0cm9rZTojRkZGRkZGO3N0cm9rZS1taXRlcmxpbWl0OjEwO30mI3hhOwkuc3QxN3tmaWxsOiMyNjI2MjY7c3Ryb2tlOiNGRkZGRkY7c3Ryb2tlLXdpZHRoOjQ7c3Ryb2tlLW1pdGVybGltaXQ6MTA7fSYjeGE7CS5zdDE4e2ZpbGw6I0ZGRkZGRjtzdHJva2U6I0ZGRkZGRjtzdHJva2Utd2lkdGg6NDtzdHJva2UtbGluZWNhcDpyb3VuZDtzdHJva2UtbGluZWpvaW46cm91bmQ7fSYjeGE7PC9zdHlsZT4mI3hhOzxyZWN0IGhlaWdodD0iMTIwIiB3aWR0aD0iMTIwIiBjbGFzcz0ic3QwIiB4PSIwIi8+JiN4YTs8Zz4mI3hhOwk8Zz4mI3hhOwkJPHBhdGggZD0iTTQ5LjcsNzBMMjAuMSw5OS44IiBjbGFzcz0ic3QxIi8+JiN4YTsJPC9nPiYjeGE7CTxnPiYjeGE7CQk8cGF0aCBkPSJNOTcuNyw5Ny40TDY4LDY3LjkiIGNsYXNzPSJzdDEiLz4mI3hhOwk8L2c+JiN4YTsJPGc+JiN4YTsJCTxwYXRoIGQ9Ik03MC40LDQ5LjdMOTkuOSwyMCIgY2xhc3M9InN0MSIvPiYjeGE7CTwvZz4mI3hhOwk8cGF0aCBkPSJNMjIuMywyMi4zTDUyLDUxLjkiIGNsYXNzPSJzdDEiLz4mI3hhOwk8cGF0aCBkPSJNMjAuMSwzMy45bDAtMTAuN2MwLTEuOCwxLjMtMywzLjEtMy4xbDEwLjgsMCIgY2xhc3M9InN0MSIvPiYjeGE7CTxwYXRoIGQ9Ik0zOC40LDY4bDEwLjcsMGMxLjgsMCwzLDEuMywzLjEsMy4xbDAsMTAuOCIgY2xhc3M9InN0MSIvPiYjeGE7CTxwYXRoIGQ9Ik05OS44LDg2LjJsMCwxMC43YzAsMS44LTEuMywzLTMuMSwzLjFsLTEwLjgsMCIgY2xhc3M9InN0MSIvPiYjeGE7CTxwYXRoIGQ9Ik04MS44LDUxLjlsLTEwLjcsMGMtMS44LDAtMy0xLjMtMy4xLTMuMUw2OCwzOCIgY2xhc3M9InN0MSIvPiYjeGE7PC9nPiYjeGE7PC9zdmc+;" vertex="1" parent="group-clab-vt-BB1">
          <mxGeometry x="6.0" y="6.0" width="75" height="75" as="geometry" />
      </mxCell>
    </object><object id="clab-vt-BB2" label="BB2">
      <mxCell style="shape=image;imageAlign=center;imageVerticalAlign=middle;labelPosition=left;align=right;verticalLabelPosition=top;spacingLeft=0;verticalAlign=bottom;spacingTop=0;spacing=0;editableCssRules=\.st[0-2]$;labelBackgroundColor=none;aspect=fixed;imageAspect=0;image=data:image/svg+xml,PHN2ZyB4bWxuczp4bGluaz0iaHR0cDovL3d3dy53My5vcmcvMTk5OS94bGluayIgeG1sbnM9Imh0dHA6Ly93d3cudzMub3JnLzIwMDAvc3ZnIiB4bWw6c3BhY2U9InByZXNlcnZlIiBzdHlsZT0iZW5hYmxlLWJhY2tncm91bmQ6bmV3IDAgMCAxMjAgMTIwOyIgdmlld0JveD0iMCAwIDEyMCAxMjAiIHk9IjBweCIgeD0iMHB4IiBpZD0iTGF5ZXJfMSIgdmVyc2lvbj0iMS4xIj4mI3hhOzxzdHlsZSB0eXBlPSJ0ZXh0L2NzcyI+JiN4YTsJLnN0MHtmaWxsOiMwMDExMzU7fSYjeGE7CS5zdDF7ZmlsbDpub25lO3N0cm9rZTojRkZGRkZGO3N0cm9rZS13aWR0aDo0O3N0cm9rZS1saW5lY2FwOnJvdW5kO3N0cm9rZS1saW5lam9pbjpyb3VuZDtzdHJva2UtbWl0ZXJsaW1pdDoxMDt9JiN4YTsJLnN0MntmaWxsOiNGRkZGRkY7fSYjeGE7CS5zdDN7ZmlsbDpub25lO3N0cm9rZTojRkZGRkZGO3N0cm9rZS13aWR0aDo0O3N0cm9rZS1taXRlcmxpbWl0OjEwO30mI3hhOwkuc3Q0e2ZpbGw6bm9uZTtzdHJva2U6I0ZGRkZGRjtzdHJva2Utd2lkdGg6NDtzdHJva2UtbGluZWNhcDpyb3VuZDtzdHJva2UtbGluZWpvaW46cm91bmQ7fSYjeGE7CS5zdDV7ZmlsbDojRkZGRkZGO3N0cm9rZTojRkZGRkZGO3N0cm9rZS13aWR0aDo0O3N0cm9rZS1saW5lY2FwOnJvdW5kO3N0cm9rZS1saW5lam9pbjpyb3VuZDtzdHJva2UtbWl0ZXJsaW1pdDoxMDt9JiN4YTsJLnN0NntmaWxsOm5vbmU7c3Ryb2tlOiNGRkZGRkY7c3Ryb2tlLXdpZHRoOjQuMjMzMztzdHJva2UtbGluZWNhcDpyb3VuZDtzdHJva2UtbGluZWpvaW46cm91bmQ7c3Ryb2tlLW1pdGVybGltaXQ6MTA7fSYjeGE7CS5zdDd7ZmlsbDpub25lO3N0cm9rZTojRkZGRkZGO3N0cm9rZS13aWR0aDo0O3N0cm9rZS1saW5lY2FwOnJvdW5kO3N0cm9rZS1taXRlcmxpbWl0OjEwO30mI3hhOwkuc3Q4e2ZpbGw6I0ZGRkZGRjtzdHJva2U6I0ZGRkZGRjtzdHJva2Utd2lkdGg6NDtzdHJva2UtbWl0ZXJsaW1pdDoxMDt9JiN4YTsJLnN0OXtmaWxsOiNGRkZGRkY7c3Ryb2tlOiNGRkZGRkY7c3Ryb2tlLXdpZHRoOjQ7fSYjeGE7CS5zdDEwe2ZpbGw6bm9uZTtzdHJva2U6I0ZGRkZGRjtzdHJva2Utd2lkdGg6NDt9JiN4YTsJLnN0MTF7ZmlsbDojMjYyNjI2O3N0cm9rZTojRkZGRkZGO3N0cm9rZS13aWR0aDo0LjIzMzM7fSYjeGE7CS5zdDEye2ZpbGwtcnVsZTpldmVub2RkO2NsaXAtcnVsZTpldmVub2RkO2ZpbGw6bm9uZTtzdHJva2U6I0ZGRkZGRjtzdHJva2Utd2lkdGg6NDtzdHJva2UtbWl0ZXJsaW1pdDoxMDt9JiN4YTsJLnN0MTN7ZmlsbC1ydWxlOmV2ZW5vZGQ7Y2xpcC1ydWxlOmV2ZW5vZGQ7ZmlsbDojRkZGRkZGO3N0cm9rZTojRkZGRkZGO3N0cm9rZS13aWR0aDo0O30mI3hhOwkuc3QxNHtmaWxsOm5vbmU7c3Ryb2tlOiNGRkZGRkY7c3Ryb2tlLXdpZHRoOjQuMjMzMztzdHJva2UtbGluZWNhcDpyb3VuZDtzdHJva2UtbGluZWpvaW46cm91bmQ7fSYjeGE7CS5zdDE1e2ZpbGw6bm9uZTtzdHJva2U6I0ZGRkZGRjtzdHJva2Utd2lkdGg6NDtzdHJva2UtbGluZWNhcDpyb3VuZDt9JiN4YTsJLnN0MTZ7ZmlsbDojRkZGRkZGO3N0cm9rZTojRkZGRkZGO3N0cm9rZS1taXRlcmxpbWl0OjEwO30mI3hhOwkuc3QxN3tmaWxsOiMyNjI2MjY7c3Ryb2tlOiNGRkZGRkY7c3Ryb2tlLXdpZHRoOjQ7c3Ryb2tlLW1pdGVybGltaXQ6MTA7fSYjeGE7CS5zdDE4e2ZpbGw6I0ZGRkZGRjtzdHJva2U6I0ZGRkZGRjtzdHJva2Utd2lkdGg6NDtzdHJva2UtbGluZWNhcDpyb3VuZDtzdHJva2UtbGluZWpvaW46cm91bmQ7fSYjeGE7PC9zdHlsZT4mI3hhOzxyZWN0IGhlaWdodD0iMTIwIiB3aWR0aD0iMTIwIiBjbGFzcz0ic3QwIiB4PSIwIi8+JiN4YTs8Zz4mI3hhOwk8Zz4mI3hhOwkJPHBhdGggZD0iTTQ5LjcsNzBMMjAuMSw5OS44IiBjbGFzcz0ic3QxIi8+JiN4YTsJPC9nPiYjeGE7CTxnPiYjeGE7CQk8cGF0aCBkPSJNOTcuNyw5Ny40TDY4LDY3LjkiIGNsYXNzPSJzdDEiLz4mI3hhOwk8L2c+JiN4YTsJPGc+JiN4YTsJCTxwYXRoIGQ9Ik03MC40LDQ5LjdMOTkuOSwyMCIgY2xhc3M9InN0MSIvPiYjeGE7CTwvZz4mI3hhOwk8cGF0aCBkPSJNMjIuMywyMi4zTDUyLDUxLjkiIGNsYXNzPSJzdDEiLz4mI3hhOwk8cGF0aCBkPSJNMjAuMSwzMy45bDAtMTAuN2MwLTEuOCwxLjMtMywzLjEtMy4xbDEwLjgsMCIgY2xhc3M9InN0MSIvPiYjeGE7CTxwYXRoIGQ9Ik0zOC40LDY4bDEwLjcsMGMxLjgsMCwzLDEuMywzLjEsMy4xbDAsMTAuOCIgY2xhc3M9InN0MSIvPiYjeGE7CTxwYXRoIGQ9Ik05OS44LDg2LjJsMCwxMC43YzAsMS44LTEuMywzLTMuMSwzLjFsLTEwLjgsMCIgY2xhc3M9InN0MSIvPiYjeGE7CTxwYXRoIGQ9Ik04MS44LDUxLjlsLTEwLjcsMGMtMS44LDAtMy0xLjMtMy4xLTMuMUw2OCwzOCIgY2xhc3M9InN0MSIvPiYjeGE7PC9nPiYjeGE7PC9zdmc+;" vertex="1" parent="group-clab-vt-BB2">
          <mxGeometry x="0.0" y="6.0" width="75" height="75" as="geometry" />
      </mxCell>
    </object><object id="clab-vt-RR" label="RR">
      <mxCell style="shape=image;imageAlign=center;imageVerticalAlign=middle;labelPosition=left;align=right;verticalLabelPosition=top;spacingLeft=0;verticalAlign=bottom;spacingTop=0;spacing=0;editableCssRules=\.st[0-2]$;labelBackgroundColor=none;aspect=fixed;imageAspect=0;image=data:image/svg+xml,PHN2ZyB4bWxuczp4bGluaz0iaHR0cDovL3d3dy53My5vcmcvMTk5OS94bGluayIgeG1sbnM9Imh0dHA6Ly93d3cudzMub3JnLzIwMDAvc3ZnIiB4bWw6c3BhY2U9InByZXNlcnZlIiBzdHlsZT0iZW5hYmxlLWJhY2tncm91bmQ6bmV3IDAgMCAxMjAgMTIwOyIgdmlld0JveD0iMCAwIDEyMCAxMjAiIHk9IjBweCIgeD0iMHB4IiBpZD0iTGF5ZXJfMSIgdmVyc2lvbj0iMS4xIj4mI3hhOzxzdHlsZSB0eXBlPSJ0ZXh0L2NzcyI+JiN4YTsJLnN0MHtmaWxsOiMwMDExMzU7fSYjeGE7CS5zdDF7ZmlsbDpub25lO3N0cm9rZTojRkZGRkZGO3N0cm9rZS13aWR0aDo0O3N0cm9rZS1saW5lY2FwOnJvdW5kO3N0cm9rZS1saW5lam9pbjpyb3VuZDtzdHJva2UtbWl0ZXJsaW1pdDoxMDt9JiN4YTsJLnN0MntmaWxsOiNGRkZGRkY7fSYjeGE7CS5zdDN7ZmlsbDpub25lO3N0cm9rZTojRkZGRkZGO3N0cm9rZS13aWR0aDo0O3N0cm9rZS1taXRlcmxpbWl0OjEwO30mI3hhOwkuc3Q0e2ZpbGw6bm9uZTtzdHJva2U6I0ZGRkZGRjtzdHJva2Utd2lkdGg6NDtzdHJva2UtbGluZWNhcDpyb3VuZDtzdHJva2UtbGluZWpvaW46cm91bmQ7fSYjeGE7CS5zdDV7ZmlsbDojRkZGRkZGO3N0cm9rZTojRkZGRkZGO3N0cm9rZS13aWR0aDo0O3N0cm9rZS1saW5lY2FwOnJvdW5kO3N0cm9rZS1saW5lam9pbjpyb3VuZDtzdHJva2UtbWl0ZXJsaW1pdDoxMDt9JiN4YTsJLnN0NntmaWxsOm5vbmU7c3Ryb2tlOiNGRkZGRkY7c3Ryb2tlLXdpZHRoOjQuMjMzMztzdHJva2UtbGluZWNhcDpyb3VuZDtzdHJva2UtbGluZWpvaW46cm91bmQ7c3Ryb2tlLW1pdGVybGltaXQ6MTA7fSYjeGE7CS5zdDd7ZmlsbDpub25lO3N0cm9rZTojRkZGRkZGO3N0cm9rZS13aWR0aDo0O3N0cm9rZS1saW5lY2FwOnJvdW5kO3N0cm9rZS1taXRlcmxpbWl0OjEwO30mI3hhOwkuc3Q4e2ZpbGw6I0ZGRkZGRjtzdHJva2U6I0ZGRkZGRjtzdHJva2Utd2lkdGg6NDtzdHJva2UtbWl0ZXJsaW1pdDoxMDt9JiN4YTsJLnN0OXtmaWxsOiNGRkZGRkY7c3Ryb2tlOiNGRkZGRkY7c3Ryb2tlLXdpZHRoOjQ7fSYjeGE7CS5zdDEwe2ZpbGw6bm9uZTtzdHJva2U6I0ZGRkZGRjtzdHJva2Utd2lkdGg6NDt9JiN4YTsJLnN0MTF7ZmlsbDojMjYyNjI2O3N0cm9rZTojRkZGRkZGO3N0cm9rZS13aWR0aDo0LjIzMzM7fSYjeGE7CS5zdDEye2ZpbGwtcnVsZTpldmVub2RkO2NsaXAtcnVsZTpldmVub2RkO2ZpbGw6bm9uZTtzdHJva2U6I0ZGRkZGRjtzdHJva2Utd2lkdGg6NDtzdHJva2UtbWl0ZXJsaW1pdDoxMDt9JiN4YTsJLnN0MTN7ZmlsbC1ydWxlOmV2ZW5vZGQ7Y2xpcC1ydWxlOmV2ZW5vZGQ7ZmlsbDojRkZGRkZGO3N0cm9rZTojRkZGRkZGO3N0cm9rZS13aWR0aDo0O30mI3hhOwkuc3QxNHtmaWxsOm5vbmU7c3Ryb2tlOiNGRkZGRkY7c3Ryb2tlLXdpZHRoOjQuMjMzMztzdHJva2UtbGluZWNhcDpyb3VuZDtzdHJva2UtbGluZWpvaW46cm91bmQ7fSYjeGE7CS5zdDE1e2ZpbGw6bm9uZTtzdHJva2U6I0ZGRkZGRjtzdHJva2Utd2lkdGg6NDtzdHJva2UtbGluZWNhcDpyb3VuZDt9JiN4YTsJLnN0MTZ7ZmlsbDojRkZGRkZGO3N0cm9rZTojRkZGRkZGO3N0cm9rZS1taXRlcmxpbWl0OjEwO30mI3hhOwkuc3QxN3tmaWxsOiMyNjI2MjY7c3Ryb2tlOiNGRkZGRkY7c3Ryb2tlLXdpZHRoOjQ7c3Ryb2tlLW1pdGVybGltaXQ6MTA7fSYjeGE7CS5zdDE4e2ZpbGw6I0ZGRkZGRjtzdHJva2U6I0ZGRkZGRjtzdHJva2Utd2lkdGg6NDtzdHJva2UtbGluZWNhcDpyb3VuZDtzdHJva2UtbGluZWpvaW46cm91bmQ7fSYjeGE7PC9zdHlsZT4mI3hhOzxyZWN0IGhlaWdodD0iMTIwIiB3aWR0aD0iMTIwIiBjbGFzcz0ic3QwIiB4PSIwIi8+JiN4YTs8Zz4mI3hhOwk8Zz4mI3hhOwkJPHBhdGggZD0iTTQ5LjcsNzBMMjAuMSw5OS44IiBjbGFzcz0ic3QxIi8+JiN4YTsJPC9nPiYjeGE7CTxnPiYjeGE7CQk8cGF0aCBkPSJNOTcuNyw5Ny40TDY4LDY3LjkiIGNsYXNzPSJzdDEiLz4mI3hhOwk8L2c+JiN4YTsJPGc+JiN4YTsJCTxwYXRoIGQ9Ik03MC40LDQ5LjdMOTkuOSwyMCIgY2xhc3M9InN0MSIvPiYjeGE7CTwvZz4mI3hhOwk8cGF0aCBkPSJNMjIuMywyMi4zTDUyLDUxLjkiIGNsYXNzPSJzdDEiLz4mI3hhOwk8cGF0aCBkPSJNMjAuMSwzMy45bDAtMTAuN2MwLTEuOCwxLjMtMywzLjEtMy4xbDEwLjgsMCIgY2xhc3M9InN0MSIvPiYjeGE7CTxwYXRoIGQ9Ik0zOC40LDY4bDEwLjcsMGMxLjgsMCwzLDEuMywzLjEsMy4xbDAsMTAuOCIgY2xhc3M9InN0MSIvPiYjeGE7CTxwYXRoIGQ9Ik05OS44LDg2LjJsMCwxMC43YzAsMS44LTEuMywzLTMuMSwzLjFsLTEwLjgsMCIgY2xhc3M9InN0MSIvPiYjeGE7CTxwYXRoIGQ9Ik04MS44LDUxLjlsLTEwLjcsMGMtMS44LDAtMy0xLjMtMy4xLTMuMUw2OCwzOCIgY2xhc3M9InN0MSIvPiYjeGE7PC9nPiYjeGE7PC9zdmc+;" vertex="1" parent="group-clab-vt-RR">
          <mxGeometry x="0.0" y="0.0" width="75" height="75" as="geometry" />
      </mxCell>
    </object><object id="clab-vt-Client1" label="Client1">
      <mxCell style="shape=image;imageAlign=center;imageVerticalAlign=middle;labelPosition=left;align=right;verticalLabelPosition=top;spacingLeft=0;verticalAlign=bottom;spacingTop=0;spacing=0;editableCssRules=\.st[0-2]$;labelBackgroundColor=none;aspect=fixed;imageAspect=0;image=data:image/svg+xml,PHN2ZyB4bWxuczp4bGluaz0iaHR0cDovL3d3dy53My5vcmcvMTk5OS94bGluayIgeG1sbnM9Imh0dHA6Ly93d3cudzMub3JnLzIwMDAvc3ZnIiB4bWw6c3BhY2U9InByZXNlcnZlIiBzdHlsZT0iZW5hYmxlLWJhY2tncm91bmQ6bmV3IDAgMCAxMjAgMTIwOyIgdmlld0JveD0iMCAwIDEyMCAxMjAiIHk9IjBweCIgeD0iMHB4IiBpZD0iTGF5ZXJfMSIgdmVyc2lvbj0iMS4xIj4mI3hhOzxzdHlsZSB0eXBlPSJ0ZXh0L2NzcyI+JiN4YTsJLnN0MHtmaWxsOiMwMDExMzU7fSYjeGE7CS5zdDF7ZmlsbDpub25lO3N0cm9rZTojRkZGRkZGO3N0cm9rZS13aWR0aDo0O3N0cm9rZS1saW5lY2FwOnJvdW5kO3N0cm9rZS1saW5lam9pbjpyb3VuZDtzdHJva2UtbWl0ZXJsaW1pdDoxMDt9JiN4YTsJLnN0MntmaWxsOiNGRkZGRkY7fSYjeGE7CS5zdDN7ZmlsbDpub25lO3N0cm9rZTojRkZGRkZGO3N0cm9rZS13aWR0aDo0O3N0cm9rZS1taXRlcmxpbWl0OjEwO30mI3hhOwkuc3Q0e2ZpbGw6bm9uZTtzdHJva2U6I0ZGRkZGRjtzdHJva2Utd2lkdGg6NDtzdHJva2UtbGluZWNhcDpyb3VuZDtzdHJva2UtbGluZWpvaW46cm91bmQ7fSYjeGE7CS5zdDV7ZmlsbDojRkZGRkZGO3N0cm9rZTojRkZGRkZGO3N0cm9rZS13aWR0aDo0O3N0cm9rZS1saW5lY2FwOnJvdW5kO3N0cm9rZS1saW5lam9pbjpyb3VuZDtzdHJva2UtbWl0ZXJsaW1pdDoxMDt9JiN4YTsJLnN0NntmaWxsOm5vbmU7c3Ryb2tlOiNGRkZGRkY7c3Ryb2tlLXdpZHRoOjQuMjMzMztzdHJva2UtbGluZWNhcDpyb3VuZDtzdHJva2UtbGluZWpvaW46cm91bmQ7c3Ryb2tlLW1pdGVybGltaXQ6MTA7fSYjeGE7CS5zdDd7ZmlsbDpub25lO3N0cm9rZTojRkZGRkZGO3N0cm9rZS13aWR0aDo0O3N0cm9rZS1saW5lY2FwOnJvdW5kO3N0cm9rZS1taXRlcmxpbWl0OjEwO30mI3hhOwkuc3Q4e2ZpbGw6I0ZGRkZGRjtzdHJva2U6I0ZGRkZGRjtzdHJva2Utd2lkdGg6NDtzdHJva2UtbWl0ZXJsaW1pdDoxMDt9JiN4YTsJLnN0OXtmaWxsOiNGRkZGRkY7c3Ryb2tlOiNGRkZGRkY7c3Ryb2tlLXdpZHRoOjQ7fSYjeGE7CS5zdDEwe2ZpbGw6bm9uZTtzdHJva2U6I0ZGRkZGRjtzdHJva2Utd2lkdGg6NDt9JiN4YTsJLnN0MTF7ZmlsbDojMjYyNjI2O3N0cm9rZTojRkZGRkZGO3N0cm9rZS13aWR0aDo0LjIzMzM7fSYjeGE7CS5zdDEye2ZpbGwtcnVsZTpldmVub2RkO2NsaXAtcnVsZTpldmVub2RkO2ZpbGw6bm9uZTtzdHJva2U6I0ZGRkZGRjtzdHJva2Utd2lkdGg6NDtzdHJva2UtbWl0ZXJsaW1pdDoxMDt9JiN4YTsJLnN0MTN7ZmlsbC1ydWxlOmV2ZW5vZGQ7Y2xpcC1ydWxlOmV2ZW5vZGQ7ZmlsbDojRkZGRkZGO3N0cm9rZTojRkZGRkZGO3N0cm9rZS13aWR0aDo0O30mI3hhOwkuc3QxNHtmaWxsOm5vbmU7c3Ryb2tlOiNGRkZGRkY7c3Ryb2tlLXdpZHRoOjQuMjMzMztzdHJva2UtbGluZWNhcDpyb3VuZDtzdHJva2UtbGluZWpvaW46cm91bmQ7fSYjeGE7CS5zdDE1e2ZpbGw6bm9uZTtzdHJva2U6I0ZGRkZGRjtzdHJva2Utd2lkdGg6NDtzdHJva2UtbGluZWNhcDpyb3VuZDt9JiN4YTsJLnN0MTZ7ZmlsbDojRkZGRkZGO3N0cm9rZTojRkZGRkZGO3N0cm9rZS1taXRlcmxpbWl0OjEwO30mI3hhOwkuc3QxN3tmaWxsOiMyNjI2MjY7c3Ryb2tlOiNGRkZGRkY7c3Ryb2tlLXdpZHRoOjQ7c3Ryb2tlLW1pdGVybGltaXQ6MTA7fSYjeGE7CS5zdDE4e2ZpbGw6I0ZGRkZGRjtzdHJva2U6I0ZGRkZGRjtzdHJva2Utd2lkdGg6NDtzdHJva2UtbGluZWNhcDpyb3VuZDtzdHJva2UtbGluZWpvaW46cm91bmQ7fSYjeGE7PC9zdHlsZT4mI3hhOzxyZWN0IGhlaWdodD0iMTIwIiB3aWR0aD0iMTIwIiBjbGFzcz0ic3QwIi8+JiN4YTs8Zz4mI3hhOwk8cGF0aCBkPSJNMTAwLDkxLjFIMjBIMTAweiBNODkuMSwzMi41YzAtMC41LDAtMS0wLjItMS40Yy0wLjItMC41LTAuNC0wLjktMC44LTEuMmMtMC4zLTAuMy0wLjgtMC42LTEuMi0wLjgmIzEwOyYjOTsmIzk7Yy0wLjUtMC4yLTAuOS0wLjItMS40LTAuMkgzNC42Yy0wLjUsMC0xLDAtMS40LDAuMmMtMC41LDAuMi0wLjksMC40LTEuMiwwLjhjLTAuMywwLjMtMC42LDAuOC0wLjgsMS4yYy0wLjIsMC41LTAuMiwwLjktMC4yLDEuNCYjMTA7JiM5OyYjOTtWNzZoNTguMlYzMi41eiIgY2xhc3M9InN0NCIvPiYjeGE7PC9nPiYjeGE7PC9zdmc+;" vertex="1" parent="group-clab-vt-Client1">
          <mxGeometry x="0.0" y="6.0" width="75" height="75" as="geometry" />
      </mxCell>
    </object><object id="clab-vt-Client2" label="Client2">
      <mxCell style="shape=image;imageAlign=center;imageVerticalAlign=middle;labelPosition=left;align=right;verticalLabelPosition=top;spacingLeft=0;verticalAlign=bottom;spacingTop=0;spacing=0;editableCssRules=\.st[0-2]$;labelBackgroundColor=none;aspect=fixed;imageAspect=0;image=data:image/svg+xml,PHN2ZyB4bWxuczp4bGluaz0iaHR0cDovL3d3dy53My5vcmcvMTk5OS94bGluayIgeG1sbnM9Imh0dHA6Ly93d3cudzMub3JnLzIwMDAvc3ZnIiB4bWw6c3BhY2U9InByZXNlcnZlIiBzdHlsZT0iZW5hYmxlLWJhY2tncm91bmQ6bmV3IDAgMCAxMjAgMTIwOyIgdmlld0JveD0iMCAwIDEyMCAxMjAiIHk9IjBweCIgeD0iMHB4IiBpZD0iTGF5ZXJfMSIgdmVyc2lvbj0iMS4xIj4mI3hhOzxzdHlsZSB0eXBlPSJ0ZXh0L2NzcyI+JiN4YTsJLnN0MHtmaWxsOiMwMDExMzU7fSYjeGE7CS5zdDF7ZmlsbDpub25lO3N0cm9rZTojRkZGRkZGO3N0cm9rZS13aWR0aDo0O3N0cm9rZS1saW5lY2FwOnJvdW5kO3N0cm9rZS1saW5lam9pbjpyb3VuZDtzdHJva2UtbWl0ZXJsaW1pdDoxMDt9JiN4YTsJLnN0MntmaWxsOiNGRkZGRkY7fSYjeGE7CS5zdDN7ZmlsbDpub25lO3N0cm9rZTojRkZGRkZGO3N0cm9rZS13aWR0aDo0O3N0cm9rZS1taXRlcmxpbWl0OjEwO30mI3hhOwkuc3Q0e2ZpbGw6bm9uZTtzdHJva2U6I0ZGRkZGRjtzdHJva2Utd2lkdGg6NDtzdHJva2UtbGluZWNhcDpyb3VuZDtzdHJva2UtbGluZWpvaW46cm91bmQ7fSYjeGE7CS5zdDV7ZmlsbDojRkZGRkZGO3N0cm9rZTojRkZGRkZGO3N0cm9rZS13aWR0aDo0O3N0cm9rZS1saW5lY2FwOnJvdW5kO3N0cm9rZS1saW5lam9pbjpyb3VuZDtzdHJva2UtbWl0ZXJsaW1pdDoxMDt9JiN4YTsJLnN0NntmaWxsOm5vbmU7c3Ryb2tlOiNGRkZGRkY7c3Ryb2tlLXdpZHRoOjQuMjMzMztzdHJva2UtbGluZWNhcDpyb3VuZDtzdHJva2UtbGluZWpvaW46cm91bmQ7c3Ryb2tlLW1pdGVybGltaXQ6MTA7fSYjeGE7CS5zdDd7ZmlsbDpub25lO3N0cm9rZTojRkZGRkZGO3N0cm9rZS13aWR0aDo0O3N0cm9rZS1saW5lY2FwOnJvdW5kO3N0cm9rZS1taXRlcmxpbWl0OjEwO30mI3hhOwkuc3Q4e2ZpbGw6I0ZGRkZGRjtzdHJva2U6I0ZGRkZGRjtzdHJva2Utd2lkdGg6NDtzdHJva2UtbWl0ZXJsaW1pdDoxMDt9JiN4YTsJLnN0OXtmaWxsOiNGRkZGRkY7c3Ryb2tlOiNGRkZGRkY7c3Ryb2tlLXdpZHRoOjQ7fSYjeGE7CS5zdDEwe2ZpbGw6bm9uZTtzdHJva2U6I0ZGRkZGRjtzdHJva2Utd2lkdGg6NDt9JiN4YTsJLnN0MTF7ZmlsbDojMjYyNjI2O3N0cm9rZTojRkZGRkZGO3N0cm9rZS13aWR0aDo0LjIzMzM7fSYjeGE7CS5zdDEye2ZpbGwtcnVsZTpldmVub2RkO2NsaXAtcnVsZTpldmVub2RkO2ZpbGw6bm9uZTtzdHJva2U6I0ZGRkZGRjtzdHJva2Utd2lkdGg6NDtzdHJva2UtbWl0ZXJsaW1pdDoxMDt9JiN4YTsJLnN0MTN7ZmlsbC1ydWxlOmV2ZW5vZGQ7Y2xpcC1ydWxlOmV2ZW5vZGQ7ZmlsbDojRkZGRkZGO3N0cm9rZTojRkZGRkZGO3N0cm9rZS13aWR0aDo0O30mI3hhOwkuc3QxNHtmaWxsOm5vbmU7c3Ryb2tlOiNGRkZGRkY7c3Ryb2tlLXdpZHRoOjQuMjMzMztzdHJva2UtbGluZWNhcDpyb3VuZDtzdHJva2UtbGluZWpvaW46cm91bmQ7fSYjeGE7CS5zdDE1e2ZpbGw6bm9uZTtzdHJva2U6I0ZGRkZGRjtzdHJva2Utd2lkdGg6NDtzdHJva2UtbGluZWNhcDpyb3VuZDt9JiN4YTsJLnN0MTZ7ZmlsbDojRkZGRkZGO3N0cm9rZTojRkZGRkZGO3N0cm9rZS1taXRlcmxpbWl0OjEwO30mI3hhOwkuc3QxN3tmaWxsOiMyNjI2MjY7c3Ryb2tlOiNGRkZGRkY7c3Ryb2tlLXdpZHRoOjQ7c3Ryb2tlLW1pdGVybGltaXQ6MTA7fSYjeGE7CS5zdDE4e2ZpbGw6I0ZGRkZGRjtzdHJva2U6I0ZGRkZGRjtzdHJva2Utd2lkdGg6NDtzdHJva2UtbGluZWNhcDpyb3VuZDtzdHJva2UtbGluZWpvaW46cm91bmQ7fSYjeGE7PC9zdHlsZT4mI3hhOzxyZWN0IGhlaWdodD0iMTIwIiB3aWR0aD0iMTIwIiBjbGFzcz0ic3QwIi8+JiN4YTs8Zz4mI3hhOwk8cGF0aCBkPSJNMTAwLDkxLjFIMjBIMTAweiBNODkuMSwzMi41YzAtMC41LDAtMS0wLjItMS40Yy0wLjItMC41LTAuNC0wLjktMC44LTEuMmMtMC4zLTAuMy0wLjgtMC42LTEuMi0wLjgmIzEwOyYjOTsmIzk7Yy0wLjUtMC4yLTAuOS0wLjItMS40LTAuMkgzNC42Yy0wLjUsMC0xLDAtMS40LDAuMmMtMC41LDAuMi0wLjksMC40LTEuMiwwLjhjLTAuMywwLjMtMC42LDAuOC0wLjgsMS4yYy0wLjIsMC41LTAuMiwwLjktMC4yLDEuNCYjMTA7JiM5OyYjOTtWNzZoNTguMlYzMi41eiIgY2xhc3M9InN0NCIvPiYjeGE7PC9nPiYjeGE7PC9zdmc+;" vertex="1" parent="group-clab-vt-Client2">
          <mxGeometry x="0.0" y="6.0" width="75" height="75" as="geometry" />
      </mxCell>
    </object><object id="clab-vt-Client3" label="Client3">
      <mxCell style="shape=image;imageAlign=center;imageVerticalAlign=middle;labelPosition=left;align=right;verticalLabelPosition=top;spacingLeft=0;verticalAlign=bottom;spacingTop=0;spacing=0;editableCssRules=\.st[0-2]$;labelBackgroundColor=none;aspect=fixed;imageAspect=0;image=data:image/svg+xml,PHN2ZyB4bWxuczp4bGluaz0iaHR0cDovL3d3dy53My5vcmcvMTk5OS94bGluayIgeG1sbnM9Imh0dHA6Ly93d3cudzMub3JnLzIwMDAvc3ZnIiB4bWw6c3BhY2U9InByZXNlcnZlIiBzdHlsZT0iZW5hYmxlLWJhY2tncm91bmQ6bmV3IDAgMCAxMjAgMTIwOyIgdmlld0JveD0iMCAwIDEyMCAxMjAiIHk9IjBweCIgeD0iMHB4IiBpZD0iTGF5ZXJfMSIgdmVyc2lvbj0iMS4xIj4mI3hhOzxzdHlsZSB0eXBlPSJ0ZXh0L2NzcyI+JiN4YTsJLnN0MHtmaWxsOiMwMDExMzU7fSYjeGE7CS5zdDF7ZmlsbDpub25lO3N0cm9rZTojRkZGRkZGO3N0cm9rZS13aWR0aDo0O3N0cm9rZS1saW5lY2FwOnJvdW5kO3N0cm9rZS1saW5lam9pbjpyb3VuZDtzdHJva2UtbWl0ZXJsaW1pdDoxMDt9JiN4YTsJLnN0MntmaWxsOiNGRkZGRkY7fSYjeGE7CS5zdDN7ZmlsbDpub25lO3N0cm9rZTojRkZGRkZGO3N0cm9rZS13aWR0aDo0O3N0cm9rZS1taXRlcmxpbWl0OjEwO30mI3hhOwkuc3Q0e2ZpbGw6bm9uZTtzdHJva2U6I0ZGRkZGRjtzdHJva2Utd2lkdGg6NDtzdHJva2UtbGluZWNhcDpyb3VuZDtzdHJva2UtbGluZWpvaW46cm91bmQ7fSYjeGE7CS5zdDV7ZmlsbDojRkZGRkZGO3N0cm9rZTojRkZGRkZGO3N0cm9rZS13aWR0aDo0O3N0cm9rZS1saW5lY2FwOnJvdW5kO3N0cm9rZS1saW5lam9pbjpyb3VuZDtzdHJva2UtbWl0ZXJsaW1pdDoxMDt9JiN4YTsJLnN0NntmaWxsOm5vbmU7c3Ryb2tlOiNGRkZGRkY7c3Ryb2tlLXdpZHRoOjQuMjMzMztzdHJva2UtbGluZWNhcDpyb3VuZDtzdHJva2UtbGluZWpvaW46cm91bmQ7c3Ryb2tlLW1pdGVybGltaXQ6MTA7fSYjeGE7CS5zdDd7ZmlsbDpub25lO3N0cm9rZTojRkZGRkZGO3N0cm9rZS13aWR0aDo0O3N0cm9rZS1saW5lY2FwOnJvdW5kO3N0cm9rZS1taXRlcmxpbWl0OjEwO30mI3hhOwkuc3Q4e2ZpbGw6I0ZGRkZGRjtzdHJva2U6I0ZGRkZGRjtzdHJva2Utd2lkdGg6NDtzdHJva2UtbWl0ZXJsaW1pdDoxMDt9JiN4YTsJLnN0OXtmaWxsOiNGRkZGRkY7c3Ryb2tlOiNGRkZGRkY7c3Ryb2tlLXdpZHRoOjQ7fSYjeGE7CS5zdDEwe2ZpbGw6bm9uZTtzdHJva2U6I0ZGRkZGRjtzdHJva2Utd2lkdGg6NDt9JiN4YTsJLnN0MTF7ZmlsbDojMjYyNjI2O3N0cm9rZTojRkZGRkZGO3N0cm9rZS13aWR0aDo0LjIzMzM7fSYjeGE7CS5zdDEye2ZpbGwtcnVsZTpldmVub2RkO2NsaXAtcnVsZTpldmVub2RkO2ZpbGw6bm9uZTtzdHJva2U6I0ZGRkZGRjtzdHJva2Utd2lkdGg6NDtzdHJva2UtbWl0ZXJsaW1pdDoxMDt9JiN4YTsJLnN0MTN7ZmlsbC1ydWxlOmV2ZW5vZGQ7Y2xpcC1ydWxlOmV2ZW5vZGQ7ZmlsbDojRkZGRkZGO3N0cm9rZTojRkZGRkZGO3N0cm9rZS13aWR0aDo0O30mI3hhOwkuc3QxNHtmaWxsOm5vbmU7c3Ryb2tlOiNGRkZGRkY7c3Ryb2tlLXdpZHRoOjQuMjMzMztzdHJva2UtbGluZWNhcDpyb3VuZDtzdHJva2UtbGluZWpvaW46cm91bmQ7fSYjeGE7CS5zdDE1e2ZpbGw6bm9uZTtzdHJva2U6I0ZGRkZGRjtzdHJva2Utd2lkdGg6NDtzdHJva2UtbGluZWNhcDpyb3VuZDt9JiN4YTsJLnN0MTZ7ZmlsbDojRkZGRkZGO3N0cm9rZTojRkZGRkZGO3N0cm9rZS1taXRlcmxpbWl0OjEwO30mI3hhOwkuc3QxN3tmaWxsOiMyNjI2MjY7c3Ryb2tlOiNGRkZGRkY7c3Ryb2tlLXdpZHRoOjQ7c3Ryb2tlLW1pdGVybGltaXQ6MTA7fSYjeGE7CS5zdDE4e2ZpbGw6I0ZGRkZGRjtzdHJva2U6I0ZGRkZGRjtzdHJva2Utd2lkdGg6NDtzdHJva2UtbGluZWNhcDpyb3VuZDtzdHJva2UtbGluZWpvaW46cm91bmQ7fSYjeGE7PC9zdHlsZT4mI3hhOzxyZWN0IGhlaWdodD0iMTIwIiB3aWR0aD0iMTIwIiBjbGFzcz0ic3QwIi8+JiN4YTs8Zz4mI3hhOwk8cGF0aCBkPSJNMTAwLDkxLjFIMjBIMTAweiBNODkuMSwzMi41YzAtMC41LDAtMS0wLjItMS40Yy0wLjItMC41LTAuNC0wLjktMC44LTEuMmMtMC4zLTAuMy0wLjgtMC42LTEuMi0wLjgmIzEwOyYjOTsmIzk7Yy0wLjUtMC4yLTAuOS0wLjItMS40LTAuMkgzNC42Yy0wLjUsMC0xLDAtMS40LDAuMmMtMC41LDAuMi0wLjksMC40LTEuMiwwLjhjLTAuMywwLjMtMC42LDAuOC0wLjgsMS4yYy0wLjIsMC41LTAuMiwwLjktMC4yLDEuNCYjMTA7JiM5OyYjOTtWNzZoNTguMlYzMi41eiIgY2xhc3M9InN0NCIvPiYjeGE7PC9nPiYjeGE7PC9zdmc+;" vertex="1" parent="group-clab-vt-Client3">
          <mxGeometry x="0.0" y="6.0" width="75" height="75" as="geometry" />
      </mxCell>
    </object><object id="clab-vt-Client4" label="Client4">
      <mxCell style="shape=image;imageAlign=center;imageVerticalAlign=middle;labelPosition=left;align=right;verticalLabelPosition=top;spacingLeft=0;verticalAlign=bottom;spacingTop=0;spacing=0;editableCssRules=\.st[0-2]$;labelBackgroundColor=none;aspect=fixed;imageAspect=0;image=data:image/svg+xml,PHN2ZyB4bWxuczp4bGluaz0iaHR0cDovL3d3dy53My5vcmcvMTk5OS94bGluayIgeG1sbnM9Imh0dHA6Ly93d3cudzMub3JnLzIwMDAvc3ZnIiB4bWw6c3BhY2U9InByZXNlcnZlIiBzdHlsZT0iZW5hYmxlLWJhY2tncm91bmQ6bmV3IDAgMCAxMjAgMTIwOyIgdmlld0JveD0iMCAwIDEyMCAxMjAiIHk9IjBweCIgeD0iMHB4IiBpZD0iTGF5ZXJfMSIgdmVyc2lvbj0iMS4xIj4mI3hhOzxzdHlsZSB0eXBlPSJ0ZXh0L2NzcyI+JiN4YTsJLnN0MHtmaWxsOiMwMDExMzU7fSYjeGE7CS5zdDF7ZmlsbDpub25lO3N0cm9rZTojRkZGRkZGO3N0cm9rZS13aWR0aDo0O3N0cm9rZS1saW5lY2FwOnJvdW5kO3N0cm9rZS1saW5lam9pbjpyb3VuZDtzdHJva2UtbWl0ZXJsaW1pdDoxMDt9JiN4YTsJLnN0MntmaWxsOiNGRkZGRkY7fSYjeGE7CS5zdDN7ZmlsbDpub25lO3N0cm9rZTojRkZGRkZGO3N0cm9rZS13aWR0aDo0O3N0cm9rZS1taXRlcmxpbWl0OjEwO30mI3hhOwkuc3Q0e2ZpbGw6bm9uZTtzdHJva2U6I0ZGRkZGRjtzdHJva2Utd2lkdGg6NDtzdHJva2UtbGluZWNhcDpyb3VuZDtzdHJva2UtbGluZWpvaW46cm91bmQ7fSYjeGE7CS5zdDV7ZmlsbDojRkZGRkZGO3N0cm9rZTojRkZGRkZGO3N0cm9rZS13aWR0aDo0O3N0cm9rZS1saW5lY2FwOnJvdW5kO3N0cm9rZS1saW5lam9pbjpyb3VuZDtzdHJva2UtbWl0ZXJsaW1pdDoxMDt9JiN4YTsJLnN0NntmaWxsOm5vbmU7c3Ryb2tlOiNGRkZGRkY7c3Ryb2tlLXdpZHRoOjQuMjMzMztzdHJva2UtbGluZWNhcDpyb3VuZDtzdHJva2UtbGluZWpvaW46cm91bmQ7c3Ryb2tlLW1pdGVybGltaXQ6MTA7fSYjeGE7CS5zdDd7ZmlsbDpub25lO3N0cm9rZTojRkZGRkZGO3N0cm9rZS13aWR0aDo0O3N0cm9rZS1saW5lY2FwOnJvdW5kO3N0cm9rZS1taXRlcmxpbWl0OjEwO30mI3hhOwkuc3Q4e2ZpbGw6I0ZGRkZGRjtzdHJva2U6I0ZGRkZGRjtzdHJva2Utd2lkdGg6NDtzdHJva2UtbWl0ZXJsaW1pdDoxMDt9JiN4YTsJLnN0OXtmaWxsOiNGRkZGRkY7c3Ryb2tlOiNGRkZGRkY7c3Ryb2tlLXdpZHRoOjQ7fSYjeGE7CS5zdDEwe2ZpbGw6bm9uZTtzdHJva2U6I0ZGRkZGRjtzdHJva2Utd2lkdGg6NDt9JiN4YTsJLnN0MTF7ZmlsbDojMjYyNjI2O3N0cm9rZTojRkZGRkZGO3N0cm9rZS13aWR0aDo0LjIzMzM7fSYjeGE7CS5zdDEye2ZpbGwtcnVsZTpldmVub2RkO2NsaXAtcnVsZTpldmVub2RkO2ZpbGw6bm9uZTtzdHJva2U6I0ZGRkZGRjtzdHJva2Utd2lkdGg6NDtzdHJva2UtbWl0ZXJsaW1pdDoxMDt9JiN4YTsJLnN0MTN7ZmlsbC1ydWxlOmV2ZW5vZGQ7Y2xpcC1ydWxlOmV2ZW5vZGQ7ZmlsbDojRkZGRkZGO3N0cm9rZTojRkZGRkZGO3N0cm9rZS13aWR0aDo0O30mI3hhOwkuc3QxNHtmaWxsOm5vbmU7c3Ryb2tlOiNGRkZGRkY7c3Ryb2tlLXdpZHRoOjQuMjMzMztzdHJva2UtbGluZWNhcDpyb3VuZDtzdHJva2UtbGluZWpvaW46cm91bmQ7fSYjeGE7CS5zdDE1e2ZpbGw6bm9uZTtzdHJva2U6I0ZGRkZGRjtzdHJva2Utd2lkdGg6NDtzdHJva2UtbGluZWNhcDpyb3VuZDt9JiN4YTsJLnN0MTZ7ZmlsbDojRkZGRkZGO3N0cm9rZTojRkZGRkZGO3N0cm9rZS1taXRlcmxpbWl0OjEwO30mI3hhOwkuc3QxN3tmaWxsOiMyNjI2MjY7c3Ryb2tlOiNGRkZGRkY7c3Ryb2tlLXdpZHRoOjQ7c3Ryb2tlLW1pdGVybGltaXQ6MTA7fSYjeGE7CS5zdDE4e2ZpbGw6I0ZGRkZGRjtzdHJva2U6I0ZGRkZGRjtzdHJva2Utd2lkdGg6NDtzdHJva2UtbGluZWNhcDpyb3VuZDtzdHJva2UtbGluZWpvaW46cm91bmQ7fSYjeGE7PC9zdHlsZT4mI3hhOzxyZWN0IGhlaWdodD0iMTIwIiB3aWR0aD0iMTIwIiBjbGFzcz0ic3QwIi8+JiN4YTs8Zz4mI3hhOwk8cGF0aCBkPSJNMTAwLDkxLjFIMjBIMTAweiBNODkuMSwzMi41YzAtMC41LDAtMS0wLjItMS40Yy0wLjItMC41LTAuNC0wLjktMC44LTEuMmMtMC4zLTAuMy0wLjgtMC42LTEuMi0wLjgmIzEwOyYjOTsmIzk7Yy0wLjUtMC4yLTAuOS0wLjItMS40LTAuMkgzNC42Yy0wLjUsMC0xLDAtMS40LDAuMmMtMC41LDAuMi0wLjksMC40LTEuMiwwLjhjLTAuMywwLjMtMC42LDAuOC0wLjgsMS4yYy0wLjIsMC41LTAuMiwwLjktMC4yLDEuNCYjMTA7JiM5OyYjOTtWNzZoNTguMlYzMi41eiIgY2xhc3M9InN0NCIvPiYjeGE7PC9nPiYjeGE7PC9zdmc+;" vertex="1" parent="group-clab-vt-Client4">
          <mxGeometry x="0.0" y="6.0" width="75" height="75" as="geometry" />
      </mxCell>
    </object><object id="clab-vt-DC1-Leaf1:e1-1:clab-vt-Client1:eth1" label="1">
      <mxCell style="ellipse;whiteSpace=wrap;html=1;aspect=fixed;fontColor=#FFFFFF;fontSize=6;strokeColor=#98A2AE;fillColor=#BEC8D2;" vertex="1" parent="group-clab-vt-DC1-Leaf1">
          <mxGeometry x="44.0" y="75.0" width="12" height="12" as="geometry" />
      </mxCell>
    </object><object id="clab-vt-Client1:eth1:clab-vt-DC1-Leaf1:e1-1" label="1">
      <mxCell style="ellipse;whiteSpace=wrap;html=1;aspect=fixed;fontColor=#FFFFFF;fontSize=6;strokeColor=#98A2AE;fillColor=#BEC8D2;" vertex="1" parent="group-clab-vt-Client1">
          <mxGeometry x="19.0" y="0.0" width="12" height="12" as="geometry" />
      </mxCell>
    </object><object id="mid:clab-vt-DC1-Leaf1:e1-1:clab-vt-Client1:eth1" label="​">
      <mxCell style="ellipse;whiteSpace=wrap;html=1;aspect=fixed;fontColor=#FFFFFF;fontSize=6;fillColor=#BEC8D2;strokeColor=none;noLabel=1;" vertex="1" parent="1">
          <mxGeometry x="199.74867154593673" y="914.3989372367494" width="4" height="4" as="geometry" />
      </mxCell>
    </object><object id="link_id:clab-vt-DC1-Leaf1:e1-1:clab-vt-Client1:eth1" label="rate" source="clab-vt-DC1-Leaf1:e1-1:clab-vt-Client1:eth1" target="mid:clab-vt-DC1-Leaf1:e1-1:clab-vt-Client1:eth1">
      <mxCell style="endArrow=none;jumpStyle=gap;" edge="1" parent="1" source="clab-vt-DC1-Leaf1:e1-1:clab-vt-Client1:eth1" target="mid:clab-vt-DC1-Leaf1:e1-1:clab-vt-Client1:eth1">
          <mxGeometry relative="1" as="geometry" />
      </mxCell>
    </object><object id="link_id:clab-vt-Client1:eth1:clab-vt-DC1-Leaf1:e1-1" label="rate" source="clab-vt-Client1:eth1:clab-vt-DC1-Leaf1:e1-1" target="mid:clab-vt-DC1-Leaf1:e1-1:clab-vt-Client1:eth1">
      <mxCell style="endArrow=none;jumpStyle=gap;" edge="1" parent="1" source="clab-vt-Client1:eth1:clab-vt-DC1-Leaf1:e1-1" target="mid:clab-vt-DC1-Leaf1:e1-1:clab-vt-Client1:eth1">
          <mxGeometry relative="1" as="geometry" />
      </mxCell>
    </object><object id="clab-vt-DC1-Leaf1:e1-2:clab-vt-Client2:eth1" label="2">
      <mxCell style="ellipse;whiteSpace=wrap;html=1;aspect=fixed;fontColor=#FFFFFF;fontSize=6;strokeColor=#98A2AE;fillColor=#BEC8D2;" vertex="1" parent="group-clab-vt-DC1-Leaf1">
          <mxGeometry x="19.0" y="75.0" width="12" height="12" as="geometry" />
      </mxCell>
    </object><object id="clab-vt-Client2:eth1:clab-vt-DC1-Leaf1:e1-2" label="1">
      <mxCell style="ellipse;whiteSpace=wrap;html=1;aspect=fixed;fontColor=#FFFFFF;fontSize=6;strokeColor=#98A2AE;fillColor=#BEC8D2;" vertex="1" parent="group-clab-vt-Client2">
          <mxGeometry x="19.0" y="0.0" width="12" height="12" as="geometry" />
      </mxCell>
    </object><object id="mid:clab-vt-DC1-Leaf1:e1-2:clab-vt-Client2:eth1" label="​">
      <mxCell style="ellipse;whiteSpace=wrap;html=1;aspect=fixed;fontColor=#FFFFFF;fontSize=6;fillColor=#BEC8D2;strokeColor=none;noLabel=1;" vertex="1" parent="1">
          <mxGeometry x="123.00000000000003" y="933.6479254523118" width="4" height="4" as="geometry" />
      </mxCell>
    </object><object id="link_id:clab-vt-DC1-Leaf1:e1-2:clab-vt-Client2:eth1" label="rate" source="clab-vt-DC1-Leaf1:e1-2:clab-vt-Client2:eth1" target="mid:clab-vt-DC1-Leaf1:e1-2:clab-vt-Client2:eth1">
      <mxCell style="endArrow=none;jumpStyle=gap;" edge="1" parent="1" source="clab-vt-DC1-Leaf1:e1-2:clab-vt-Client2:eth1" target="mid:clab-vt-DC1-Leaf1:e1-2:clab-vt-Client2:eth1">
          <mxGeometry relative="1" as="geometry" />
      </mxCell>
    </object><object id="link_id:clab-vt-Client2:eth1:clab-vt-DC1-Leaf1:e1-2" label="rate" source="clab-vt-Client2:eth1:clab-vt-DC1-Leaf1:e1-2" target="mid:clab-vt-DC1-Leaf1:e1-2:clab-vt-Client2:eth1">
      <mxCell style="endArrow=none;jumpStyle=gap;" edge="1" parent="1" source="clab-vt-Client2:eth1:clab-vt-DC1-Leaf1:e1-2" target="mid:clab-vt-DC1-Leaf1:e1-2:clab-vt-Client2:eth1">
          <mxGeometry relative="1" as="geometry" />
      </mxCell>
    </object><object id="clab-vt-DC1-Leaf2:e1-1:clab-vt-Client1:eth2" label="1">
      <mxCell style="ellipse;whiteSpace=wrap;html=1;aspect=fixed;fontColor=#FFFFFF;fontSize=6;strokeColor=#98A2AE;fillColor=#BEC8D2;" vertex="1" parent="group-clab-vt-DC1-Leaf2">
          <mxGeometry x="44.0" y="75.0" width="12" height="12" as="geometry" />
      </mxCell>
    </object><object id="clab-vt-Client1:eth2:clab-vt-DC1-Leaf2:e1-1" label="2">
      <mxCell style="ellipse;whiteSpace=wrap;html=1;aspect=fixed;fontColor=#FFFFFF;fontSize=6;strokeColor=#98A2AE;fillColor=#BEC8D2;" vertex="1" parent="group-clab-vt-Client1">
          <mxGeometry x="44.0" y="0.0" width="12" height="12" as="geometry" />
      </mxCell>
    </object><object id="mid:clab-vt-DC1-Leaf2:e1-1:clab-vt-Client1:eth2" label="​">
      <mxCell style="ellipse;whiteSpace=wrap;html=1;aspect=fixed;fontColor=#FFFFFF;fontSize=6;fillColor=#BEC8D2;strokeColor=none;noLabel=1;" vertex="1" parent="1">
          <mxGeometry x="298.0" y="910.7629359588459" width="4" height="4" as="geometry" />
      </mxCell>
    </object><object id="link_id:clab-vt-DC1-Leaf2:e1-1:clab-vt-Client1:eth2" label="rate" source="clab-vt-DC1-Leaf2:e1-1:clab-vt-Client1:eth2" target="mid:clab-vt-DC1-Leaf2:e1-1:clab-vt-Client1:eth2">
      <mxCell style="endArrow=none;jumpStyle=gap;" edge="1" parent="1" source="clab-vt-DC1-Leaf2:e1-1:clab-vt-Client1:eth2" target="mid:clab-vt-DC1-Leaf2:e1-1:clab-vt-Client1:eth2">
          <mxGeometry relative="1" as="geometry" />
      </mxCell>
    </object><object id="link_id:clab-vt-Client1:eth2:clab-vt-DC1-Leaf2:e1-1" label="rate" source="clab-vt-Client1:eth2:clab-vt-DC1-Leaf2:e1-1" target="mid:clab-vt-DC1-Leaf2:e1-1:clab-vt-Client1:eth2">
      <mxCell style="endArrow=none;jumpStyle=gap;" edge="1" parent="1" source="clab-vt-Client1:eth2:clab-vt-DC1-Leaf2:e1-1" target="mid:clab-vt-DC1-Leaf2:e1-1:clab-vt-Client1:eth2">
          <mxGeometry relative="1" as="geometry" />
      </mxCell>
    </object><object id="clab-vt-DC1-Leaf2:e1-2:clab-vt-Client2:eth2" label="2">
      <mxCell style="ellipse;whiteSpace=wrap;html=1;aspect=fixed;fontColor=#FFFFFF;fontSize=6;strokeColor=#98A2AE;fillColor=#BEC8D2;" vertex="1" parent="group-clab-vt-DC1-Leaf2">
          <mxGeometry x="19.0" y="75.0" width="12" height="12" as="geometry" />
      </mxCell>
    </object><object id="clab-vt-Client2:eth2:clab-vt-DC1-Leaf2:e1-2" label="2">
      <mxCell style="ellipse;whiteSpace=wrap;html=1;aspect=fixed;fontColor=#FFFFFF;fontSize=6;strokeColor=#98A2AE;fillColor=#BEC8D2;" vertex="1" parent="group-clab-vt-Client2">
          <mxGeometry x="44.0" y="0.0" width="12" height="12" as="geometry" />
      </mxCell>
    </object><object id="mid:clab-vt-DC1-Leaf2:e1-2:clab-vt-Client2:eth2" label="​">
      <mxCell style="ellipse;whiteSpace=wrap;html=1;aspect=fixed;fontColor=#FFFFFF;fontSize=6;fillColor=#BEC8D2;strokeColor=none;noLabel=1;" vertex="1" parent="1">
          <mxGeometry x="224.3978689231218" y="911.8817048615026" width="4" height="4" as="geometry" />
      </mxCell>
    </object><object id="link_id:clab-vt-DC1-Leaf2:e1-2:clab-vt-Client2:eth2" label="rate" source="clab-vt-DC1-Leaf2:e1-2:clab-vt-Client2:eth2" target="mid:clab-vt-DC1-Leaf2:e1-2:clab-vt-Client2:eth2">
      <mxCell style="endArrow=none;jumpStyle=gap;" edge="1" parent="1" source="clab-vt-DC1-Leaf2:e1-2:clab-vt-Client2:eth2" target="mid:clab-vt-DC1-Leaf2:e1-2:clab-vt-Client2:eth2">
          <mxGeometry relative="1" as="geometry" />
      </mxCell>
    </object><object id="link_id:clab-vt-Client2:eth2:clab-vt-DC1-Leaf2:e1-2" label="rate" source="clab-vt-Client2:eth2:clab-vt-DC1-Leaf2:e1-2" target="mid:clab-vt-DC1-Leaf2:e1-2:clab-vt-Client2:eth2">
      <mxCell style="endArrow=none;jumpStyle=gap;" edge="1" parent="1" source="clab-vt-Client2:eth2:clab-vt-DC1-Leaf2:e1-2" target="mid:clab-vt-DC1-Leaf2:e1-2:clab-vt-Client2:eth2">
          <mxGeometry relative="1" as="geometry" />
      </mxCell>
    </object><object id="clab-vt-DC2-Leaf1:e1-1:clab-vt-Client3:eth1" label="1">
      <mxCell style="ellipse;whiteSpace=wrap;html=1;aspect=fixed;fontColor=#FFFFFF;fontSize=6;strokeColor=#98A2AE;fillColor=#BEC8D2;" vertex="1" parent="group-clab-vt-DC2-Leaf1">
          <mxGeometry x="19.0" y="75.0" width="12" height="12" as="geometry" />
      </mxCell>
    </object><object id="clab-vt-Client3:eth1:clab-vt-DC2-Leaf1:e1-1" label="1">
      <mxCell style="ellipse;whiteSpace=wrap;html=1;aspect=fixed;fontColor=#FFFFFF;fontSize=6;strokeColor=#98A2AE;fillColor=#BEC8D2;" vertex="1" parent="group-clab-vt-Client3">
          <mxGeometry x="19.0" y="0.0" width="12" height="12" as="geometry" />
      </mxCell>
    </object><object id="mid:clab-vt-DC2-Leaf1:e1-1:clab-vt-Client3:eth1" label="​">
      <mxCell style="ellipse;whiteSpace=wrap;html=1;aspect=fixed;fontColor=#FFFFFF;fontSize=6;fillColor=#BEC8D2;strokeColor=none;noLabel=1;" vertex="1" parent="1">
          <mxGeometry x="423.0" y="904.8793048559761" width="4" height="4" as="geometry" />
      </mxCell>
    </object><object id="link_id:clab-vt-DC2-Leaf1:e1-1:clab-vt-Client3:eth1" label="rate" source="clab-vt-DC2-Leaf1:e1-1:clab-vt-Client3:eth1" target="mid:clab-vt-DC2-Leaf1:e1-1:clab-vt-Client3:eth1">
      <mxCell style="endArrow=none;jumpStyle=gap;" edge="1" parent="1" source="clab-vt-DC2-Leaf1:e1-1:clab-vt-Client3:eth1" target="mid:clab-vt-DC2-Leaf1:e1-1:clab-vt-Client3:eth1">
          <mxGeometry relative="1" as="geometry" />
      </mxCell>
    </object><object id="link_id:clab-vt-Client3:eth1:clab-vt-DC2-Leaf1:e1-1" label="rate" source="clab-vt-Client3:eth1:clab-vt-DC2-Leaf1:e1-1" target="mid:clab-vt-DC2-Leaf1:e1-1:clab-vt-Client3:eth1">
      <mxCell style="endArrow=none;jumpStyle=gap;" edge="1" parent="1" source="clab-vt-Client3:eth1:clab-vt-DC2-Leaf1:e1-1" target="mid:clab-vt-DC2-Leaf1:e1-1:clab-vt-Client3:eth1">
          <mxGeometry relative="1" as="geometry" />
      </mxCell>
    </object><object id="clab-vt-DC2-Leaf1:e1-2:clab-vt-Client4:eth1" label="2">
      <mxCell style="ellipse;whiteSpace=wrap;html=1;aspect=fixed;fontColor=#FFFFFF;fontSize=6;strokeColor=#98A2AE;fillColor=#BEC8D2;" vertex="1" parent="group-clab-vt-DC2-Leaf1">
          <mxGeometry x="44.0" y="75.0" width="12" height="12" as="geometry" />
      </mxCell>
    </object><object id="clab-vt-Client4:eth1:clab-vt-DC2-Leaf1:e1-2" label="1">
      <mxCell style="ellipse;whiteSpace=wrap;html=1;aspect=fixed;fontColor=#FFFFFF;fontSize=6;strokeColor=#98A2AE;fillColor=#BEC8D2;" vertex="1" parent="group-clab-vt-Client4">
          <mxGeometry x="19.0" y="0.0" width="12" height="12" as="geometry" />
      </mxCell>
    </object><object id="mid:clab-vt-DC2-Leaf1:e1-2:clab-vt-Client4:eth1" label="​">
      <mxCell style="ellipse;whiteSpace=wrap;html=1;aspect=fixed;fontColor=#FFFFFF;fontSize=6;fillColor=#BEC8D2;strokeColor=none;noLabel=1;" vertex="1" parent="1">
          <mxGeometry x="518.4112907508015" y="929.3290326006413" width="4" height="4" as="geometry" />
      </mxCell>
    </object><object id="link_id:clab-vt-DC2-Leaf1:e1-2:clab-vt-Client4:eth1" label="rate" source="clab-vt-DC2-Leaf1:e1-2:clab-vt-Client4:eth1" target="mid:clab-vt-DC2-Leaf1:e1-2:clab-vt-Client4:eth1">
      <mxCell style="endArrow=none;jumpStyle=gap;" edge="1" parent="1" source="clab-vt-DC2-Leaf1:e1-2:clab-vt-Client4:eth1" target="mid:clab-vt-DC2-Leaf1:e1-2:clab-vt-Client4:eth1">
          <mxGeometry relative="1" as="geometry" />
      </mxCell>
    </object><object id="link_id:clab-vt-Client4:eth1:clab-vt-DC2-Leaf1:e1-2" label="rate" source="clab-vt-Client4:eth1:clab-vt-DC2-Leaf1:e1-2" target="mid:clab-vt-DC2-Leaf1:e1-2:clab-vt-Client4:eth1">
      <mxCell style="endArrow=none;jumpStyle=gap;" edge="1" parent="1" source="clab-vt-Client4:eth1:clab-vt-DC2-Leaf1:e1-2" target="mid:clab-vt-DC2-Leaf1:e1-2:clab-vt-Client4:eth1">
          <mxGeometry relative="1" as="geometry" />
      </mxCell>
    </object><object id="clab-vt-DC2-Leaf2:e1-1:clab-vt-Client3:eth2" label="1">
      <mxCell style="ellipse;whiteSpace=wrap;html=1;aspect=fixed;fontColor=#FFFFFF;fontSize=6;strokeColor=#98A2AE;fillColor=#BEC8D2;" vertex="1" parent="group-clab-vt-DC2-Leaf2">
          <mxGeometry x="19.0" y="75.0" width="12" height="12" as="geometry" />
      </mxCell>
    </object><object id="clab-vt-Client3:eth2:clab-vt-DC2-Leaf2:e1-1" label="2">
      <mxCell style="ellipse;whiteSpace=wrap;html=1;aspect=fixed;fontColor=#FFFFFF;fontSize=6;strokeColor=#98A2AE;fillColor=#BEC8D2;" vertex="1" parent="group-clab-vt-Client3">
          <mxGeometry x="44.0" y="0.0" width="12" height="12" as="geometry" />
      </mxCell>
    </object><object id="mid:clab-vt-DC2-Leaf2:e1-1:clab-vt-Client3:eth2" label="​">
      <mxCell style="ellipse;whiteSpace=wrap;html=1;aspect=fixed;fontColor=#FFFFFF;fontSize=6;fillColor=#BEC8D2;strokeColor=none;noLabel=1;" vertex="1" parent="1">
          <mxGeometry x="523.698711962267" y="912.4410304301864" width="4" height="4" as="geometry" />
      </mxCell>
    </object><object id="link_id:clab-vt-DC2-Leaf2:e1-1:clab-vt-Client3:eth2" label="rate" source="clab-vt-DC2-Leaf2:e1-1:clab-vt-Client3:eth2" target="mid:clab-vt-DC2-Leaf2:e1-1:clab-vt-Client3:eth2">
      <mxCell style="endArrow=none;jumpStyle=gap;" edge="1" parent="1" source="clab-vt-DC2-Leaf2:e1-1:clab-vt-Client3:eth2" target="mid:clab-vt-DC2-Leaf2:e1-1:clab-vt-Client3:eth2">
          <mxGeometry relative="1" as="geometry" />
      </mxCell>
    </object><object id="link_id:clab-vt-Client3:eth2:clab-vt-DC2-Leaf2:e1-1" label="rate" source="clab-vt-Client3:eth2:clab-vt-DC2-Leaf2:e1-1" target="mid:clab-vt-DC2-Leaf2:e1-1:clab-vt-Client3:eth2">
      <mxCell style="endArrow=none;jumpStyle=gap;" edge="1" parent="1" source="clab-vt-Client3:eth2:clab-vt-DC2-Leaf2:e1-1" target="mid:clab-vt-DC2-Leaf2:e1-1:clab-vt-Client3:eth2">
          <mxGeometry relative="1" as="geometry" />
      </mxCell>
    </object><object id="clab-vt-DC2-Leaf2:e1-2:clab-vt-Client4:eth2" label="2">
      <mxCell style="ellipse;whiteSpace=wrap;html=1;aspect=fixed;fontColor=#FFFFFF;fontSize=6;strokeColor=#98A2AE;fillColor=#BEC8D2;" vertex="1" parent="group-clab-vt-DC2-Leaf2">
          <mxGeometry x="44.0" y="75.0" width="12" height="12" as="geometry" />
      </mxCell>
    </object><object id="clab-vt-Client4:eth2:clab-vt-DC2-Leaf2:e1-2" label="2">
      <mxCell style="ellipse;whiteSpace=wrap;html=1;aspect=fixed;fontColor=#FFFFFF;fontSize=6;strokeColor=#98A2AE;fillColor=#BEC8D2;" vertex="1" parent="group-clab-vt-Client4">
          <mxGeometry x="44.0" y="0.0" width="12" height="12" as="geometry" />
      </mxCell>
    </object><object id="mid:clab-vt-DC2-Leaf2:e1-2:clab-vt-Client4:eth2" label="​">
      <mxCell style="ellipse;whiteSpace=wrap;html=1;aspect=fixed;fontColor=#FFFFFF;fontSize=6;fillColor=#BEC8D2;strokeColor=none;noLabel=1;" vertex="1" parent="1">
          <mxGeometry x="598.0" y="908.6584298030116" width="4" height="4" as="geometry" />
      </mxCell>
    </object><object id="link_id:clab-vt-DC2-Leaf2:e1-2:clab-vt-Client4:eth2" label="rate" source="clab-vt-DC2-Leaf2:e1-2:clab-vt-Client4:eth2" target="mid:clab-vt-DC2-Leaf2:e1-2:clab-vt-Client4:eth2">
      <mxCell style="endArrow=none;jumpStyle=gap;" edge="1" parent="1" source="clab-vt-DC2-Leaf2:e1-2:clab-vt-Client4:eth2" target="mid:clab-vt-DC2-Leaf2:e1-2:clab-vt-Client4:eth2">
          <mxGeometry relative="1" as="geometry" />
      </mxCell>
    </object><object id="link_id:clab-vt-Client4:eth2:clab-vt-DC2-Leaf2:e1-2" label="rate" source="clab-vt-Client4:eth2:clab-vt-DC2-Leaf2:e1-2" target="mid:clab-vt-DC2-Leaf2:e1-2:clab-vt-Client4:eth2">
      <mxCell style="endArrow=none;jumpStyle=gap;" edge="1" parent="1" source="clab-vt-Client4:eth2:clab-vt-DC2-Leaf2:e1-2" target="mid:clab-vt-DC2-Leaf2:e1-2:clab-vt-Client4:eth2">
          <mxGeometry relative="1" as="geometry" />
      </mxCell>
    </object><object id="clab-vt-DC1-Spine1:e1-1:clab-vt-DC1-Leaf1:e1-31" label="1">
      <mxCell style="ellipse;whiteSpace=wrap;html=1;aspect=fixed;fontColor=#FFFFFF;fontSize=6;strokeColor=#98A2AE;fillColor=#BEC8D2;" vertex="1" parent="group-clab-vt-DC1-Spine1">
          <mxGeometry x="9.0" y="75.0" width="12" height="12" as="geometry" />
      </mxCell>
    </object><object id="clab-vt-DC1-Leaf1:e1-31:clab-vt-DC1-Spine1:e1-1" label="31">
      <mxCell style="ellipse;whiteSpace=wrap;html=1;aspect=fixed;fontColor=#FFFFFF;fontSize=6;strokeColor=#98A2AE;fillColor=#BEC8D2;" vertex="1" parent="group-clab-vt-DC1-Leaf1">
          <mxGeometry x="39.0" y="0.0" width="12" height="12" as="geometry" />
      </mxCell>
    </object><object id="mid:clab-vt-DC1-Spine1:e1-1:clab-vt-DC1-Leaf1:e1-31" label="​">
      <mxCell style="ellipse;whiteSpace=wrap;html=1;aspect=fixed;fontColor=#FFFFFF;fontSize=6;fillColor=#BEC8D2;strokeColor=none;noLabel=1;" vertex="1" parent="1">
          <mxGeometry x="192.37963496931127" y="756.8503041922406" width="4" height="4" as="geometry" />
      </mxCell>
    </object><object id="link_id:clab-vt-DC1-Spine1:e1-1:clab-vt-DC1-Leaf1:e1-31" label="rate" source="clab-vt-DC1-Spine1:e1-1:clab-vt-DC1-Leaf1:e1-31" target="mid:clab-vt-DC1-Spine1:e1-1:clab-vt-DC1-Leaf1:e1-31">
      <mxCell style="endArrow=none;jumpStyle=gap;" edge="1" parent="1" source="clab-vt-DC1-Spine1:e1-1:clab-vt-DC1-Leaf1:e1-31" target="mid:clab-vt-DC1-Spine1:e1-1:clab-vt-DC1-Leaf1:e1-31">
          <mxGeometry relative="1" as="geometry" />
      </mxCell>
    </object><object id="link_id:clab-vt-DC1-Leaf1:e1-31:clab-vt-DC1-Spine1:e1-1" label="rate" source="clab-vt-DC1-Leaf1:e1-31:clab-vt-DC1-Spine1:e1-1" target="mid:clab-vt-DC1-Spine1:e1-1:clab-vt-DC1-Leaf1:e1-31">
      <mxCell style="endArrow=none;jumpStyle=gap;" edge="1" parent="1" source="clab-vt-DC1-Leaf1:e1-31:clab-vt-DC1-Spine1:e1-1" target="mid:clab-vt-DC1-Spine1:e1-1:clab-vt-DC1-Leaf1:e1-31">
          <mxGeometry relative="1" as="geometry" />
      </mxCell>
    </object><object id="clab-vt-DC1-Spine1:e1-2:clab-vt-DC1-Leaf1:e1-32" label="2">
      <mxCell style="ellipse;whiteSpace=wrap;html=1;aspect=fixed;fontColor=#FFFFFF;fontSize=6;strokeColor=#98A2AE;fillColor=#BEC8D2;" vertex="1" parent="group-clab-vt-DC1-Spine1">
          <mxGeometry x="24.0" y="75.0" width="12" height="12" as="geometry" />
      </mxCell>
    </object><object id="clab-vt-DC1-Leaf1:e1-32:clab-vt-DC1-Spine1:e1-2" label="32">
      <mxCell style="ellipse;whiteSpace=wrap;html=1;aspect=fixed;fontColor=#FFFFFF;fontSize=6;strokeColor=#98A2AE;fillColor=#BEC8D2;" vertex="1" parent="group-clab-vt-DC1-Leaf1">
          <mxGeometry x="54.0" y="0.0" width="12" height="12" as="geometry" />
      </mxCell>
    </object><object id="mid:clab-vt-DC1-Spine1:e1-2:clab-vt-DC1-Leaf1:e1-32" label="​">
      <mxCell style="ellipse;whiteSpace=wrap;html=1;aspect=fixed;fontColor=#FFFFFF;fontSize=6;fillColor=#BEC8D2;strokeColor=none;noLabel=1;" vertex="1" parent="1">
          <mxGeometry x="228.44426287147317" y="739.2964476071057" width="4" height="4" as="geometry" />
      </mxCell>
    </object><object id="link_id:clab-vt-DC1-Spine1:e1-2:clab-vt-DC1-Leaf1:e1-32" label="rate" source="clab-vt-DC1-Spine1:e1-2:clab-vt-DC1-Leaf1:e1-32" target="mid:clab-vt-DC1-Spine1:e1-2:clab-vt-DC1-Leaf1:e1-32">
      <mxCell style="endArrow=none;jumpStyle=gap;" edge="1" parent="1" source="clab-vt-DC1-Spine1:e1-2:clab-vt-DC1-Leaf1:e1-32" target="mid:clab-vt-DC1-Spine1:e1-2:clab-vt-DC1-Leaf1:e1-32">
          <mxGeometry relative="1" as="geometry" />
      </mxCell>
    </object><object id="link_id:clab-vt-DC1-Leaf1:e1-32:clab-vt-DC1-Spine1:e1-2" label="rate" source="clab-vt-DC1-Leaf1:e1-32:clab-vt-DC1-Spine1:e1-2" target="mid:clab-vt-DC1-Spine1:e1-2:clab-vt-DC1-Leaf1:e1-32">
      <mxCell style="endArrow=none;jumpStyle=gap;" edge="1" parent="1" source="clab-vt-DC1-Leaf1:e1-32:clab-vt-DC1-Spine1:e1-2" target="mid:clab-vt-DC1-Spine1:e1-2:clab-vt-DC1-Leaf1:e1-32">
          <mxGeometry relative="1" as="geometry" />
      </mxCell>
    </object><object id="clab-vt-DC1-Spine1:e1-3:clab-vt-DC1-Leaf2:e1-31" label="3">
      <mxCell style="ellipse;whiteSpace=wrap;html=1;aspect=fixed;fontColor=#FFFFFF;fontSize=6;strokeColor=#98A2AE;fillColor=#BEC8D2;" vertex="1" parent="group-clab-vt-DC1-Spine1">
          <mxGeometry x="39.0" y="75.0" width="12" height="12" as="geometry" />
      </mxCell>
    </object><object id="clab-vt-DC1-Leaf2:e1-31:clab-vt-DC1-Spine1:e1-3" label="31">
      <mxCell style="ellipse;whiteSpace=wrap;html=1;aspect=fixed;fontColor=#FFFFFF;fontSize=6;strokeColor=#98A2AE;fillColor=#BEC8D2;" vertex="1" parent="group-clab-vt-DC1-Leaf2">
          <mxGeometry x="39.0" y="0.0" width="12" height="12" as="geometry" />
      </mxCell>
    </object><object id="mid:clab-vt-DC1-Spine1:e1-3:clab-vt-DC1-Leaf2:e1-31" label="​">
      <mxCell style="ellipse;whiteSpace=wrap;html=1;aspect=fixed;fontColor=#FFFFFF;fontSize=6;fillColor=#BEC8D2;strokeColor=none;noLabel=1;" vertex="1" parent="1">
          <mxGeometry x="293.0" y="760.6829449588527" width="4" height="4" as="geometry" />
      </mxCell>
    </object><object id="link_id:clab-vt-DC1-Spine1:e1-3:clab-vt-DC1-Leaf2:e1-31" label="rate" source="clab-vt-DC1-Spine1:e1-3:clab-vt-DC1-Leaf2:e1-31" target="mid:clab-vt-DC1-Spine1:e1-3:clab-vt-DC1-Leaf2:e1-31">
      <mxCell style="endArrow=none;jumpStyle=gap;" edge="1" parent="1" source="clab-vt-DC1-Spine1:e1-3:clab-vt-DC1-Leaf2:e1-31" target="mid:clab-vt-DC1-Spine1:e1-3:clab-vt-DC1-Leaf2:e1-31">
          <mxGeometry relative="1" as="geometry" />
      </mxCell>
    </object><object id="link_id:clab-vt-DC1-Leaf2:e1-31:clab-vt-DC1-Spine1:e1-3" label="rate" source="clab-vt-DC1-Leaf2:e1-31:clab-vt-DC1-Spine1:e1-3" target="mid:clab-vt-DC1-Spine1:e1-3:clab-vt-DC1-Leaf2:e1-31">
      <mxCell style="endArrow=none;jumpStyle=gap;" edge="1" parent="1" source="clab-vt-DC1-Leaf2:e1-31:clab-vt-DC1-Spine1:e1-3" target="mid:clab-vt-DC1-Spine1:e1-3:clab-vt-DC1-Leaf2:e1-31">
          <mxGeometry relative="1" as="geometry" />
      </mxCell>
    </object><object id="clab-vt-DC1-Spine1:e1-4:clab-vt-DC1-Leaf2:e1-32" label="4">
      <mxCell style="ellipse;whiteSpace=wrap;html=1;aspect=fixed;fontColor=#FFFFFF;fontSize=6;strokeColor=#98A2AE;fillColor=#BEC8D2;" vertex="1" parent="group-clab-vt-DC1-Spine1">
          <mxGeometry x="54.0" y="75.0" width="12" height="12" as="geometry" />
      </mxCell>
    </object><object id="clab-vt-DC1-Leaf2:e1-32:clab-vt-DC1-Spine1:e1-4" label="32">
      <mxCell style="ellipse;whiteSpace=wrap;html=1;aspect=fixed;fontColor=#FFFFFF;fontSize=6;strokeColor=#98A2AE;fillColor=#BEC8D2;" vertex="1" parent="group-clab-vt-DC1-Leaf2">
          <mxGeometry x="54.0" y="0.0" width="12" height="12" as="geometry" />
      </mxCell>
    </object><object id="mid:clab-vt-DC1-Spine1:e1-4:clab-vt-DC1-Leaf2:e1-32" label="​">
      <mxCell style="ellipse;whiteSpace=wrap;html=1;aspect=fixed;fontColor=#FFFFFF;fontSize=6;fillColor=#BEC8D2;strokeColor=none;noLabel=1;" vertex="1" parent="1">
          <mxGeometry x="308.0" y="766.7292067155066" width="4" height="4" as="geometry" />
      </mxCell>
    </object><object id="link_id:clab-vt-DC1-Spine1:e1-4:clab-vt-DC1-Leaf2:e1-32" label="rate" source="clab-vt-DC1-Spine1:e1-4:clab-vt-DC1-Leaf2:e1-32" target="mid:clab-vt-DC1-Spine1:e1-4:clab-vt-DC1-Leaf2:e1-32">
      <mxCell style="endArrow=none;jumpStyle=gap;" edge="1" parent="1" source="clab-vt-DC1-Spine1:e1-4:clab-vt-DC1-Leaf2:e1-32" target="mid:clab-vt-DC1-Spine1:e1-4:clab-vt-DC1-Leaf2:e1-32">
          <mxGeometry relative="1" as="geometry" />
      </mxCell>
    </object><object id="link_id:clab-vt-DC1-Leaf2:e1-32:clab-vt-DC1-Spine1:e1-4" label="rate" source="clab-vt-DC1-Leaf2:e1-32:clab-vt-DC1-Spine1:e1-4" target="mid:clab-vt-DC1-Spine1:e1-4:clab-vt-DC1-Leaf2:e1-32">
      <mxCell style="endArrow=none;jumpStyle=gap;" edge="1" parent="1" source="clab-vt-DC1-Leaf2:e1-32:clab-vt-DC1-Spine1:e1-4" target="mid:clab-vt-DC1-Spine1:e1-4:clab-vt-DC1-Leaf2:e1-32">
          <mxGeometry relative="1" as="geometry" />
      </mxCell>
    </object><object id="clab-vt-DC1-Spine1:e1-49:clab-vt-DC1-GW1:1/1/1" label="49">
      <mxCell style="ellipse;whiteSpace=wrap;html=1;aspect=fixed;fontColor=#FFFFFF;fontSize=6;strokeColor=#98A2AE;fillColor=#BEC8D2;" vertex="1" parent="group-clab-vt-DC1-Spine1">
          <mxGeometry x="39.0" y="0.0" width="12" height="12" as="geometry" />
      </mxCell>
    </object><object id="clab-vt-DC1-GW1:1/1/1:clab-vt-DC1-Spine1:e1-49" label="1">
      <mxCell style="ellipse;whiteSpace=wrap;html=1;aspect=fixed;fontColor=#FFFFFF;fontSize=6;strokeColor=#98A2AE;fillColor=#BEC8D2;" vertex="1" parent="group-clab-vt-DC1-GW1">
          <mxGeometry x="39.0" y="75.0" width="12" height="12" as="geometry" />
      </mxCell>
    </object><object id="mid:clab-vt-DC1-Spine1:e1-49:clab-vt-DC1-GW1:1/1/1" label="​">
      <mxCell style="ellipse;whiteSpace=wrap;html=1;aspect=fixed;fontColor=#FFFFFF;fontSize=6;fillColor=#BEC8D2;strokeColor=none;noLabel=1;" vertex="1" parent="1">
          <mxGeometry x="293.0" y="555.258414462056" width="4" height="4" as="geometry" />
      </mxCell>
    </object><object id="link_id:clab-vt-DC1-Spine1:e1-49:clab-vt-DC1-GW1:1/1/1" label="rate" source="clab-vt-DC1-Spine1:e1-49:clab-vt-DC1-GW1:1/1/1" target="mid:clab-vt-DC1-Spine1:e1-49:clab-vt-DC1-GW1:1/1/1">
      <mxCell style="endArrow=none;jumpStyle=gap;" edge="1" parent="1" source="clab-vt-DC1-Spine1:e1-49:clab-vt-DC1-GW1:1/1/1" target="mid:clab-vt-DC1-Spine1:e1-49:clab-vt-DC1-GW1:1/1/1">
          <mxGeometry relative="1" as="geometry" />
      </mxCell>
    </object><object id="link_id:clab-vt-DC1-GW1:1/1/1:clab-vt-DC1-Spine1:e1-49" label="rate" source="clab-vt-DC1-GW1:1/1/1:clab-vt-DC1-Spine1:e1-49" target="mid:clab-vt-DC1-Spine1:e1-49:clab-vt-DC1-GW1:1/1/1">
      <mxCell style="endArrow=none;jumpStyle=gap;" edge="1" parent="1" source="clab-vt-DC1-GW1:1/1/1:clab-vt-DC1-Spine1:e1-49" target="mid:clab-vt-DC1-Spine1:e1-49:clab-vt-DC1-GW1:1/1/1">
          <mxGeometry relative="1" as="geometry" />
      </mxCell>
    </object><object id="clab-vt-DC1-Spine1:e1-50:clab-vt-DC1-GW1:1/1/2" label="50">
      <mxCell style="ellipse;whiteSpace=wrap;html=1;aspect=fixed;fontColor=#FFFFFF;fontSize=6;strokeColor=#98A2AE;fillColor=#BEC8D2;" vertex="1" parent="group-clab-vt-DC1-Spine1">
          <mxGeometry x="54.0" y="0.0" width="12" height="12" as="geometry" />
      </mxCell>
    </object><object id="clab-vt-DC1-GW1:1/1/2:clab-vt-DC1-Spine1:e1-50" label="2">
      <mxCell style="ellipse;whiteSpace=wrap;html=1;aspect=fixed;fontColor=#FFFFFF;fontSize=6;strokeColor=#98A2AE;fillColor=#BEC8D2;" vertex="1" parent="group-clab-vt-DC1-GW1">
          <mxGeometry x="54.0" y="75.0" width="12" height="12" as="geometry" />
      </mxCell>
    </object><object id="mid:clab-vt-DC1-Spine1:e1-50:clab-vt-DC1-GW1:1/1/2" label="​">
      <mxCell style="ellipse;whiteSpace=wrap;html=1;aspect=fixed;fontColor=#FFFFFF;fontSize=6;fillColor=#BEC8D2;strokeColor=none;noLabel=1;" vertex="1" parent="1">
          <mxGeometry x="308.0" y="555.2569840690252" width="4" height="4" as="geometry" />
      </mxCell>
    </object><object id="link_id:clab-vt-DC1-Spine1:e1-50:clab-vt-DC1-GW1:1/1/2" label="rate" source="clab-vt-DC1-Spine1:e1-50:clab-vt-DC1-GW1:1/1/2" target="mid:clab-vt-DC1-Spine1:e1-50:clab-vt-DC1-GW1:1/1/2">
      <mxCell style="endArrow=none;jumpStyle=gap;" edge="1" parent="1" source="clab-vt-DC1-Spine1:e1-50:clab-vt-DC1-GW1:1/1/2" target="mid:clab-vt-DC1-Spine1:e1-50:clab-vt-DC1-GW1:1/1/2">
          <mxGeometry relative="1" as="geometry" />
      </mxCell>
    </object><object id="link_id:clab-vt-DC1-GW1:1/1/2:clab-vt-DC1-Spine1:e1-50" label="rate" source="clab-vt-DC1-GW1:1/1/2:clab-vt-DC1-Spine1:e1-50" target="mid:clab-vt-DC1-Spine1:e1-50:clab-vt-DC1-GW1:1/1/2">
      <mxCell style="endArrow=none;jumpStyle=gap;" edge="1" parent="1" source="clab-vt-DC1-GW1:1/1/2:clab-vt-DC1-Spine1:e1-50" target="mid:clab-vt-DC1-Spine1:e1-50:clab-vt-DC1-GW1:1/1/2">
          <mxGeometry relative="1" as="geometry" />
      </mxCell>
    </object><object id="clab-vt-DC1-Spine1:e1-51:clab-vt-DC1-GW2:1/1/1" label="51">
      <mxCell style="ellipse;whiteSpace=wrap;html=1;aspect=fixed;fontColor=#FFFFFF;fontSize=6;strokeColor=#98A2AE;fillColor=#BEC8D2;" vertex="1" parent="group-clab-vt-DC1-Spine1">
          <mxGeometry x="9.0" y="0.0" width="12" height="12" as="geometry" />
      </mxCell>
    </object><object id="clab-vt-DC1-GW2:1/1/1:clab-vt-DC1-Spine1:e1-51" label="1">
      <mxCell style="ellipse;whiteSpace=wrap;html=1;aspect=fixed;fontColor=#FFFFFF;fontSize=6;strokeColor=#98A2AE;fillColor=#BEC8D2;" vertex="1" parent="group-clab-vt-DC1-GW2">
          <mxGeometry x="39.0" y="75.0" width="12" height="12" as="geometry" />
      </mxCell>
    </object><object id="mid:clab-vt-DC1-Spine1:e1-51:clab-vt-DC1-GW2:1/1/1" label="​">
      <mxCell style="ellipse;whiteSpace=wrap;html=1;aspect=fixed;fontColor=#FFFFFF;fontSize=6;fillColor=#BEC8D2;strokeColor=none;noLabel=1;" vertex="1" parent="1">
          <mxGeometry x="213.02955071608523" y="581.357958930071" width="4" height="4" as="geometry" />
      </mxCell>
    </object><object id="link_id:clab-vt-DC1-Spine1:e1-51:clab-vt-DC1-GW2:1/1/1" label="rate" source="clab-vt-DC1-Spine1:e1-51:clab-vt-DC1-GW2:1/1/1" target="mid:clab-vt-DC1-Spine1:e1-51:clab-vt-DC1-GW2:1/1/1">
      <mxCell style="endArrow=none;jumpStyle=gap;" edge="1" parent="1" source="clab-vt-DC1-Spine1:e1-51:clab-vt-DC1-GW2:1/1/1" target="mid:clab-vt-DC1-Spine1:e1-51:clab-vt-DC1-GW2:1/1/1">
          <mxGeometry relative="1" as="geometry" />
      </mxCell>
    </object><object id="link_id:clab-vt-DC1-GW2:1/1/1:clab-vt-DC1-Spine1:e1-51" label="rate" source="clab-vt-DC1-GW2:1/1/1:clab-vt-DC1-Spine1:e1-51" target="mid:clab-vt-DC1-Spine1:e1-51:clab-vt-DC1-GW2:1/1/1">
      <mxCell style="endArrow=none;jumpStyle=gap;" edge="1" parent="1" source="clab-vt-DC1-GW2:1/1/1:clab-vt-DC1-Spine1:e1-51" target="mid:clab-vt-DC1-Spine1:e1-51:clab-vt-DC1-GW2:1/1/1">
          <mxGeometry relative="1" as="geometry" />
      </mxCell>
    </object><object id="clab-vt-DC1-Spine1:e1-52:clab-vt-DC1-GW2:1/1/2" label="52">
      <mxCell style="ellipse;whiteSpace=wrap;html=1;aspect=fixed;fontColor=#FFFFFF;fontSize=6;strokeColor=#98A2AE;fillColor=#BEC8D2;" vertex="1" parent="group-clab-vt-DC1-Spine1">
          <mxGeometry x="24.0" y="0.0" width="12" height="12" as="geometry" />
      </mxCell>
    </object><object id="clab-vt-DC1-GW2:1/1/2:clab-vt-DC1-Spine1:e1-52" label="2">
      <mxCell style="ellipse;whiteSpace=wrap;html=1;aspect=fixed;fontColor=#FFFFFF;fontSize=6;strokeColor=#98A2AE;fillColor=#BEC8D2;" vertex="1" parent="group-clab-vt-DC1-GW2">
          <mxGeometry x="54.0" y="75.0" width="12" height="12" as="geometry" />
      </mxCell>
    </object><object id="mid:clab-vt-DC1-Spine1:e1-52:clab-vt-DC1-GW2:1/1/2" label="​">
      <mxCell style="ellipse;whiteSpace=wrap;html=1;aspect=fixed;fontColor=#FFFFFF;fontSize=6;fillColor=#BEC8D2;strokeColor=none;noLabel=1;" vertex="1" parent="1">
          <mxGeometry x="208.59497883301356" y="565.1624823608446" width="4" height="4" as="geometry" />
      </mxCell>
    </object><object id="link_id:clab-vt-DC1-Spine1:e1-52:clab-vt-DC1-GW2:1/1/2" label="rate" source="clab-vt-DC1-Spine1:e1-52:clab-vt-DC1-GW2:1/1/2" target="mid:clab-vt-DC1-Spine1:e1-52:clab-vt-DC1-GW2:1/1/2">
      <mxCell style="endArrow=none;jumpStyle=gap;" edge="1" parent="1" source="clab-vt-DC1-Spine1:e1-52:clab-vt-DC1-GW2:1/1/2" target="mid:clab-vt-DC1-Spine1:e1-52:clab-vt-DC1-GW2:1/1/2">
          <mxGeometry relative="1" as="geometry" />
      </mxCell>
    </object><object id="link_id:clab-vt-DC1-GW2:1/1/2:clab-vt-DC1-Spine1:e1-52" label="rate" source="clab-vt-DC1-GW2:1/1/2:clab-vt-DC1-Spine1:e1-52" target="mid:clab-vt-DC1-Spine1:e1-52:clab-vt-DC1-GW2:1/1/2">
      <mxCell style="endArrow=none;jumpStyle=gap;" edge="1" parent="1" source="clab-vt-DC1-GW2:1/1/2:clab-vt-DC1-Spine1:e1-52" target="mid:clab-vt-DC1-Spine1:e1-52:clab-vt-DC1-GW2:1/1/2">
          <mxGeometry relative="1" as="geometry" />
      </mxCell>
    </object><object id="clab-vt-DC1-Spine2:e1-1:clab-vt-DC1-Leaf1:e1-33" label="1">
      <mxCell style="ellipse;whiteSpace=wrap;html=1;aspect=fixed;fontColor=#FFFFFF;fontSize=6;strokeColor=#98A2AE;fillColor=#BEC8D2;" vertex="1" parent="group-clab-vt-DC1-Spine2">
          <mxGeometry x="9.0" y="75.0" width="12" height="12" as="geometry" />
      </mxCell>
    </object><object id="clab-vt-DC1-Leaf1:e1-33:clab-vt-DC1-Spine2:e1-1" label="33">
      <mxCell style="ellipse;whiteSpace=wrap;html=1;aspect=fixed;fontColor=#FFFFFF;fontSize=6;strokeColor=#98A2AE;fillColor=#BEC8D2;" vertex="1" parent="group-clab-vt-DC1-Leaf1">
          <mxGeometry x="9.0" y="0.0" width="12" height="12" as="geometry" />
      </mxCell>
    </object><object id="mid:clab-vt-DC1-Spine2:e1-1:clab-vt-DC1-Leaf1:e1-33" label="​">
      <mxCell style="ellipse;whiteSpace=wrap;html=1;aspect=fixed;fontColor=#FFFFFF;fontSize=6;fillColor=#BEC8D2;strokeColor=none;noLabel=1;" vertex="1" parent="1">
          <mxGeometry x="113.00000000000001" y="732.9580600210129" width="4" height="4" as="geometry" />
      </mxCell>
    </object><object id="link_id:clab-vt-DC1-Spine2:e1-1:clab-vt-DC1-Leaf1:e1-33" label="rate" source="clab-vt-DC1-Spine2:e1-1:clab-vt-DC1-Leaf1:e1-33" target="mid:clab-vt-DC1-Spine2:e1-1:clab-vt-DC1-Leaf1:e1-33">
      <mxCell style="endArrow=none;jumpStyle=gap;" edge="1" parent="1" source="clab-vt-DC1-Spine2:e1-1:clab-vt-DC1-Leaf1:e1-33" target="mid:clab-vt-DC1-Spine2:e1-1:clab-vt-DC1-Leaf1:e1-33">
          <mxGeometry relative="1" as="geometry" />
      </mxCell>
    </object><object id="link_id:clab-vt-DC1-Leaf1:e1-33:clab-vt-DC1-Spine2:e1-1" label="rate" source="clab-vt-DC1-Leaf1:e1-33:clab-vt-DC1-Spine2:e1-1" target="mid:clab-vt-DC1-Spine2:e1-1:clab-vt-DC1-Leaf1:e1-33">
      <mxCell style="endArrow=none;jumpStyle=gap;" edge="1" parent="1" source="clab-vt-DC1-Leaf1:e1-33:clab-vt-DC1-Spine2:e1-1" target="mid:clab-vt-DC1-Spine2:e1-1:clab-vt-DC1-Leaf1:e1-33">
          <mxGeometry relative="1" as="geometry" />
      </mxCell>
    </object><object id="clab-vt-DC1-Spine2:e1-2:clab-vt-DC1-Leaf1:e1-34" label="2">
      <mxCell style="ellipse;whiteSpace=wrap;html=1;aspect=fixed;fontColor=#FFFFFF;fontSize=6;strokeColor=#98A2AE;fillColor=#BEC8D2;" vertex="1" parent="group-clab-vt-DC1-Spine2">
          <mxGeometry x="24.0" y="75.0" width="12" height="12" as="geometry" />
      </mxCell>
    </object><object id="clab-vt-DC1-Leaf1:e1-34:clab-vt-DC1-Spine2:e1-2" label="34">
      <mxCell style="ellipse;whiteSpace=wrap;html=1;aspect=fixed;fontColor=#FFFFFF;fontSize=6;strokeColor=#98A2AE;fillColor=#BEC8D2;" vertex="1" parent="group-clab-vt-DC1-Leaf1">
          <mxGeometry x="24.0" y="0.0" width="12" height="12" as="geometry" />
      </mxCell>
    </object><object id="mid:clab-vt-DC1-Spine2:e1-2:clab-vt-DC1-Leaf1:e1-34" label="​">
      <mxCell style="ellipse;whiteSpace=wrap;html=1;aspect=fixed;fontColor=#FFFFFF;fontSize=6;fillColor=#BEC8D2;strokeColor=none;noLabel=1;" vertex="1" parent="1">
          <mxGeometry x="128.0" y="763.4571912976244" width="4" height="4" as="geometry" />
      </mxCell>
    </object><object id="link_id:clab-vt-DC1-Spine2:e1-2:clab-vt-DC1-Leaf1:e1-34" label="rate" source="clab-vt-DC1-Spine2:e1-2:clab-vt-DC1-Leaf1:e1-34" target="mid:clab-vt-DC1-Spine2:e1-2:clab-vt-DC1-Leaf1:e1-34">
      <mxCell style="endArrow=none;jumpStyle=gap;" edge="1" parent="1" source="clab-vt-DC1-Spine2:e1-2:clab-vt-DC1-Leaf1:e1-34" target="mid:clab-vt-DC1-Spine2:e1-2:clab-vt-DC1-Leaf1:e1-34">
          <mxGeometry relative="1" as="geometry" />
      </mxCell>
    </object><object id="link_id:clab-vt-DC1-Leaf1:e1-34:clab-vt-DC1-Spine2:e1-2" label="rate" source="clab-vt-DC1-Leaf1:e1-34:clab-vt-DC1-Spine2:e1-2" target="mid:clab-vt-DC1-Spine2:e1-2:clab-vt-DC1-Leaf1:e1-34">
      <mxCell style="endArrow=none;jumpStyle=gap;" edge="1" parent="1" source="clab-vt-DC1-Leaf1:e1-34:clab-vt-DC1-Spine2:e1-2" target="mid:clab-vt-DC1-Spine2:e1-2:clab-vt-DC1-Leaf1:e1-34">
          <mxGeometry relative="1" as="geometry" />
      </mxCell>
    </object><object id="clab-vt-DC1-Spine2:e1-3:clab-vt-DC1-Leaf2:e1-33" label="3">
      <mxCell style="ellipse;whiteSpace=wrap;html=1;aspect=fixed;fontColor=#FFFFFF;fontSize=6;strokeColor=#98A2AE;fillColor=#BEC8D2;" vertex="1" parent="group-clab-vt-DC1-Spine2">
          <mxGeometry x="39.0" y="75.0" width="12" height="12" as="geometry" />
      </mxCell>
    </object><object id="clab-vt-DC1-Leaf2:e1-33:clab-vt-DC1-Spine2:e1-3" label="33">
      <mxCell style="ellipse;whiteSpace=wrap;html=1;aspect=fixed;fontColor=#FFFFFF;fontSize=6;strokeColor=#98A2AE;fillColor=#BEC8D2;" vertex="1" parent="group-clab-vt-DC1-Leaf2">
          <mxGeometry x="9.0" y="0.0" width="12" height="12" as="geometry" />
      </mxCell>
    </object><object id="mid:clab-vt-DC1-Spine2:e1-3:clab-vt-DC1-Leaf2:e1-33" label="​">
      <mxCell style="ellipse;whiteSpace=wrap;html=1;aspect=fixed;fontColor=#FFFFFF;fontSize=6;fillColor=#BEC8D2;strokeColor=none;noLabel=1;" vertex="1" parent="1">
          <mxGeometry x="215.79425355108341" y="758.6618779592362" width="4" height="4" as="geometry" />
      </mxCell>
    </object><object id="link_id:clab-vt-DC1-Spine2:e1-3:clab-vt-DC1-Leaf2:e1-33" label="rate" source="clab-vt-DC1-Spine2:e1-3:clab-vt-DC1-Leaf2:e1-33" target="mid:clab-vt-DC1-Spine2:e1-3:clab-vt-DC1-Leaf2:e1-33">
      <mxCell style="endArrow=none;jumpStyle=gap;" edge="1" parent="1" source="clab-vt-DC1-Spine2:e1-3:clab-vt-DC1-Leaf2:e1-33" target="mid:clab-vt-DC1-Spine2:e1-3:clab-vt-DC1-Leaf2:e1-33">
          <mxGeometry relative="1" as="geometry" />
      </mxCell>
    </object><object id="link_id:clab-vt-DC1-Leaf2:e1-33:clab-vt-DC1-Spine2:e1-3" label="rate" source="clab-vt-DC1-Leaf2:e1-33:clab-vt-DC1-Spine2:e1-3" target="mid:clab-vt-DC1-Spine2:e1-3:clab-vt-DC1-Leaf2:e1-33">
      <mxCell style="endArrow=none;jumpStyle=gap;" edge="1" parent="1" source="clab-vt-DC1-Leaf2:e1-33:clab-vt-DC1-Spine2:e1-3" target="mid:clab-vt-DC1-Spine2:e1-3:clab-vt-DC1-Leaf2:e1-33">
          <mxGeometry relative="1" as="geometry" />
      </mxCell>
    </object><object id="clab-vt-DC1-Spine2:e1-4:clab-vt-DC1-Leaf2:e1-34" label="4">
      <mxCell style="ellipse;whiteSpace=wrap;html=1;aspect=fixed;fontColor=#FFFFFF;fontSize=6;strokeColor=#98A2AE;fillColor=#BEC8D2;" vertex="1" parent="group-clab-vt-DC1-Spine2">
          <mxGeometry x="54.0" y="75.0" width="12" height="12" as="geometry" />
      </mxCell>
    </object><object id="clab-vt-DC1-Leaf2:e1-34:clab-vt-DC1-Spine2:e1-4" label="34">
      <mxCell style="ellipse;whiteSpace=wrap;html=1;aspect=fixed;fontColor=#FFFFFF;fontSize=6;strokeColor=#98A2AE;fillColor=#BEC8D2;" vertex="1" parent="group-clab-vt-DC1-Leaf2">
          <mxGeometry x="24.0" y="0.0" width="12" height="12" as="geometry" />
      </mxCell>
    </object><object id="mid:clab-vt-DC1-Spine2:e1-4:clab-vt-DC1-Leaf2:e1-34" label="​">
      <mxCell style="ellipse;whiteSpace=wrap;html=1;aspect=fixed;fontColor=#FFFFFF;fontSize=6;fillColor=#BEC8D2;strokeColor=none;noLabel=1;" vertex="1" parent="1">
          <mxGeometry x="204.46705172061436" y="736.722543100512" width="4" height="4" as="geometry" />
      </mxCell>
    </object><object id="link_id:clab-vt-DC1-Spine2:e1-4:clab-vt-DC1-Leaf2:e1-34" label="rate" source="clab-vt-DC1-Spine2:e1-4:clab-vt-DC1-Leaf2:e1-34" target="mid:clab-vt-DC1-Spine2:e1-4:clab-vt-DC1-Leaf2:e1-34">
      <mxCell style="endArrow=none;jumpStyle=gap;" edge="1" parent="1" source="clab-vt-DC1-Spine2:e1-4:clab-vt-DC1-Leaf2:e1-34" target="mid:clab-vt-DC1-Spine2:e1-4:clab-vt-DC1-Leaf2:e1-34">
          <mxGeometry relative="1" as="geometry" />
      </mxCell>
    </object><object id="link_id:clab-vt-DC1-Leaf2:e1-34:clab-vt-DC1-Spine2:e1-4" label="rate" source="clab-vt-DC1-Leaf2:e1-34:clab-vt-DC1-Spine2:e1-4" target="mid:clab-vt-DC1-Spine2:e1-4:clab-vt-DC1-Leaf2:e1-34">
      <mxCell style="endArrow=none;jumpStyle=gap;" edge="1" parent="1" source="clab-vt-DC1-Leaf2:e1-34:clab-vt-DC1-Spine2:e1-4" target="mid:clab-vt-DC1-Spine2:e1-4:clab-vt-DC1-Leaf2:e1-34">
          <mxGeometry relative="1" as="geometry" />
      </mxCell>
    </object><object id="clab-vt-DC1-Spine2:e1-49:clab-vt-DC1-GW1:1/1/3" label="49">
      <mxCell style="ellipse;whiteSpace=wrap;html=1;aspect=fixed;fontColor=#FFFFFF;fontSize=6;strokeColor=#98A2AE;fillColor=#BEC8D2;" vertex="1" parent="group-clab-vt-DC1-Spine2">
          <mxGeometry x="39.0" y="0.0" width="12" height="12" as="geometry" />
      </mxCell>
    </object><object id="clab-vt-DC1-GW1:1/1/3:clab-vt-DC1-Spine2:e1-49" label="3">
      <mxCell style="ellipse;whiteSpace=wrap;html=1;aspect=fixed;fontColor=#FFFFFF;fontSize=6;strokeColor=#98A2AE;fillColor=#BEC8D2;" vertex="1" parent="group-clab-vt-DC1-GW1">
          <mxGeometry x="9.0" y="75.0" width="12" height="12" as="geometry" />
      </mxCell>
    </object><object id="mid:clab-vt-DC1-Spine2:e1-49:clab-vt-DC1-GW1:1/1/3" label="​">
      <mxCell style="ellipse;whiteSpace=wrap;html=1;aspect=fixed;fontColor=#FFFFFF;fontSize=6;fillColor=#BEC8D2;strokeColor=none;noLabel=1;" vertex="1" parent="1">
          <mxGeometry x="191.31805059726364" y="582.7349578356136" width="4" height="4" as="geometry" />
      </mxCell>
    </object><object id="link_id:clab-vt-DC1-Spine2:e1-49:clab-vt-DC1-GW1:1/1/3" label="rate" source="clab-vt-DC1-Spine2:e1-49:clab-vt-DC1-GW1:1/1/3" target="mid:clab-vt-DC1-Spine2:e1-49:clab-vt-DC1-GW1:1/1/3">
      <mxCell style="endArrow=none;jumpStyle=gap;" edge="1" parent="1" source="clab-vt-DC1-Spine2:e1-49:clab-vt-DC1-GW1:1/1/3" target="mid:clab-vt-DC1-Spine2:e1-49:clab-vt-DC1-GW1:1/1/3">
          <mxGeometry relative="1" as="geometry" />
      </mxCell>
    </object><object id="link_id:clab-vt-DC1-GW1:1/1/3:clab-vt-DC1-Spine2:e1-49" label="rate" source="clab-vt-DC1-GW1:1/1/3:clab-vt-DC1-Spine2:e1-49" target="mid:clab-vt-DC1-Spine2:e1-49:clab-vt-DC1-GW1:1/1/3">
      <mxCell style="endArrow=none;jumpStyle=gap;" edge="1" parent="1" source="clab-vt-DC1-GW1:1/1/3:clab-vt-DC1-Spine2:e1-49" target="mid:clab-vt-DC1-Spine2:e1-49:clab-vt-DC1-GW1:1/1/3">
          <mxGeometry relative="1" as="geometry" />
      </mxCell>
    </object><object id="clab-vt-DC1-Spine2:e1-50:clab-vt-DC1-GW1:1/1/4" label="50">
      <mxCell style="ellipse;whiteSpace=wrap;html=1;aspect=fixed;fontColor=#FFFFFF;fontSize=6;strokeColor=#98A2AE;fillColor=#BEC8D2;" vertex="1" parent="group-clab-vt-DC1-Spine2">
          <mxGeometry x="54.0" y="0.0" width="12" height="12" as="geometry" />
      </mxCell>
    </object><object id="clab-vt-DC1-GW1:1/1/4:clab-vt-DC1-Spine2:e1-50" label="4">
      <mxCell style="ellipse;whiteSpace=wrap;html=1;aspect=fixed;fontColor=#FFFFFF;fontSize=6;strokeColor=#98A2AE;fillColor=#BEC8D2;" vertex="1" parent="group-clab-vt-DC1-GW1">
          <mxGeometry x="24.0" y="75.0" width="12" height="12" as="geometry" />
      </mxCell>
    </object><object id="mid:clab-vt-DC1-Spine2:e1-50:clab-vt-DC1-GW1:1/1/4" label="​">
      <mxCell style="ellipse;whiteSpace=wrap;html=1;aspect=fixed;fontColor=#FFFFFF;fontSize=6;fillColor=#BEC8D2;strokeColor=none;noLabel=1;" vertex="1" parent="1">
          <mxGeometry x="227.41606366512266" y="565.1532802790645" width="4" height="4" as="geometry" />
      </mxCell>
    </object><object id="link_id:clab-vt-DC1-Spine2:e1-50:clab-vt-DC1-GW1:1/1/4" label="rate" source="clab-vt-DC1-Spine2:e1-50:clab-vt-DC1-GW1:1/1/4" target="mid:clab-vt-DC1-Spine2:e1-50:clab-vt-DC1-GW1:1/1/4">
      <mxCell style="endArrow=none;jumpStyle=gap;" edge="1" parent="1" source="clab-vt-DC1-Spine2:e1-50:clab-vt-DC1-GW1:1/1/4" target="mid:clab-vt-DC1-Spine2:e1-50:clab-vt-DC1-GW1:1/1/4">
          <mxGeometry relative="1" as="geometry" />
      </mxCell>
    </object><object id="link_id:clab-vt-DC1-GW1:1/1/4:clab-vt-DC1-Spine2:e1-50" label="rate" source="clab-vt-DC1-GW1:1/1/4:clab-vt-DC1-Spine2:e1-50" target="mid:clab-vt-DC1-Spine2:e1-50:clab-vt-DC1-GW1:1/1/4">
      <mxCell style="endArrow=none;jumpStyle=gap;" edge="1" parent="1" source="clab-vt-DC1-GW1:1/1/4:clab-vt-DC1-Spine2:e1-50" target="mid:clab-vt-DC1-Spine2:e1-50:clab-vt-DC1-GW1:1/1/4">
          <mxGeometry relative="1" as="geometry" />
      </mxCell>
    </object><object id="clab-vt-DC1-Spine2:e1-51:clab-vt-DC1-GW2:1/1/3" label="51">
      <mxCell style="ellipse;whiteSpace=wrap;html=1;aspect=fixed;fontColor=#FFFFFF;fontSize=6;strokeColor=#98A2AE;fillColor=#BEC8D2;" vertex="1" parent="group-clab-vt-DC1-Spine2">
          <mxGeometry x="9.0" y="0.0" width="12" height="12" as="geometry" />
      </mxCell>
    </object><object id="clab-vt-DC1-GW2:1/1/3:clab-vt-DC1-Spine2:e1-51" label="3">
      <mxCell style="ellipse;whiteSpace=wrap;html=1;aspect=fixed;fontColor=#FFFFFF;fontSize=6;strokeColor=#98A2AE;fillColor=#BEC8D2;" vertex="1" parent="group-clab-vt-DC1-GW2">
          <mxGeometry x="9.0" y="75.0" width="12" height="12" as="geometry" />
      </mxCell>
    </object><object id="mid:clab-vt-DC1-Spine2:e1-51:clab-vt-DC1-GW2:1/1/3" label="​">
      <mxCell style="ellipse;whiteSpace=wrap;html=1;aspect=fixed;fontColor=#FFFFFF;fontSize=6;fillColor=#BEC8D2;strokeColor=none;noLabel=1;" vertex="1" parent="1">
          <mxGeometry x="113.0" y="586.6289670850207" width="4" height="4" as="geometry" />
      </mxCell>
    </object><object id="link_id:clab-vt-DC1-Spine2:e1-51:clab-vt-DC1-GW2:1/1/3" label="rate" source="clab-vt-DC1-Spine2:e1-51:clab-vt-DC1-GW2:1/1/3" target="mid:clab-vt-DC1-Spine2:e1-51:clab-vt-DC1-GW2:1/1/3">
      <mxCell style="endArrow=none;jumpStyle=gap;" edge="1" parent="1" source="clab-vt-DC1-Spine2:e1-51:clab-vt-DC1-GW2:1/1/3" target="mid:clab-vt-DC1-Spine2:e1-51:clab-vt-DC1-GW2:1/1/3">
          <mxGeometry relative="1" as="geometry" />
      </mxCell>
    </object><object id="link_id:clab-vt-DC1-GW2:1/1/3:clab-vt-DC1-Spine2:e1-51" label="rate" source="clab-vt-DC1-GW2:1/1/3:clab-vt-DC1-Spine2:e1-51" target="mid:clab-vt-DC1-Spine2:e1-51:clab-vt-DC1-GW2:1/1/3">
      <mxCell style="endArrow=none;jumpStyle=gap;" edge="1" parent="1" source="clab-vt-DC1-GW2:1/1/3:clab-vt-DC1-Spine2:e1-51" target="mid:clab-vt-DC1-Spine2:e1-51:clab-vt-DC1-GW2:1/1/3">
          <mxGeometry relative="1" as="geometry" />
      </mxCell>
    </object><object id="clab-vt-DC1-Spine2:e1-52:clab-vt-DC1-GW2:1/1/4" label="52">
      <mxCell style="ellipse;whiteSpace=wrap;html=1;aspect=fixed;fontColor=#FFFFFF;fontSize=6;strokeColor=#98A2AE;fillColor=#BEC8D2;" vertex="1" parent="group-clab-vt-DC1-Spine2">
          <mxGeometry x="24.0" y="0.0" width="12" height="12" as="geometry" />
      </mxCell>
    </object><object id="clab-vt-DC1-GW2:1/1/4:clab-vt-DC1-Spine2:e1-52" label="4">
      <mxCell style="ellipse;whiteSpace=wrap;html=1;aspect=fixed;fontColor=#FFFFFF;fontSize=6;strokeColor=#98A2AE;fillColor=#BEC8D2;" vertex="1" parent="group-clab-vt-DC1-GW2">
          <mxGeometry x="24.0" y="75.0" width="12" height="12" as="geometry" />
      </mxCell>
    </object><object id="mid:clab-vt-DC1-Spine2:e1-52:clab-vt-DC1-GW2:1/1/4" label="​">
      <mxCell style="ellipse;whiteSpace=wrap;html=1;aspect=fixed;fontColor=#FFFFFF;fontSize=6;fillColor=#BEC8D2;strokeColor=none;noLabel=1;" vertex="1" parent="1">
          <mxGeometry x="128.0" y="556.3013119945771" width="4" height="4" as="geometry" />
      </mxCell>
    </object><object id="link_id:clab-vt-DC1-Spine2:e1-52:clab-vt-DC1-GW2:1/1/4" label="rate" source="clab-vt-DC1-Spine2:e1-52:clab-vt-DC1-GW2:1/1/4" target="mid:clab-vt-DC1-Spine2:e1-52:clab-vt-DC1-GW2:1/1/4">
      <mxCell style="endArrow=none;jumpStyle=gap;" edge="1" parent="1" source="clab-vt-DC1-Spine2:e1-52:clab-vt-DC1-GW2:1/1/4" target="mid:clab-vt-DC1-Spine2:e1-52:clab-vt-DC1-GW2:1/1/4">
          <mxGeometry relative="1" as="geometry" />
      </mxCell>
    </object><object id="link_id:clab-vt-DC1-GW2:1/1/4:clab-vt-DC1-Spine2:e1-52" label="rate" source="clab-vt-DC1-GW2:1/1/4:clab-vt-DC1-Spine2:e1-52" target="mid:clab-vt-DC1-Spine2:e1-52:clab-vt-DC1-GW2:1/1/4">
      <mxCell style="endArrow=none;jumpStyle=gap;" edge="1" parent="1" source="clab-vt-DC1-GW2:1/1/4:clab-vt-DC1-Spine2:e1-52" target="mid:clab-vt-DC1-Spine2:e1-52:clab-vt-DC1-GW2:1/1/4">
          <mxGeometry relative="1" as="geometry" />
      </mxCell>
    </object><object id="clab-vt-DC2-Spine1:e1-1:clab-vt-DC2-Leaf1:e1-33" label="1">
      <mxCell style="ellipse;whiteSpace=wrap;html=1;aspect=fixed;fontColor=#FFFFFF;fontSize=6;strokeColor=#98A2AE;fillColor=#BEC8D2;" vertex="1" parent="group-clab-vt-DC2-Spine1">
          <mxGeometry x="19.0" y="75.0" width="12" height="12" as="geometry" />
      </mxCell>
    </object><object id="clab-vt-DC2-Leaf1:e1-33:clab-vt-DC2-Spine1:e1-1" label="33">
      <mxCell style="ellipse;whiteSpace=wrap;html=1;aspect=fixed;fontColor=#FFFFFF;fontSize=6;strokeColor=#98A2AE;fillColor=#BEC8D2;" vertex="1" parent="group-clab-vt-DC2-Leaf1">
          <mxGeometry x="19.0" y="0.0" width="12" height="12" as="geometry" />
      </mxCell>
    </object><object id="mid:clab-vt-DC2-Spine1:e1-1:clab-vt-DC2-Leaf1:e1-33" label="​">
      <mxCell style="ellipse;whiteSpace=wrap;html=1;aspect=fixed;fontColor=#FFFFFF;fontSize=6;fillColor=#BEC8D2;strokeColor=none;noLabel=1;" vertex="1" parent="1">
          <mxGeometry x="423.0" y="737.6102072247882" width="4" height="4" as="geometry" />
      </mxCell>
    </object><object id="link_id:clab-vt-DC2-Spine1:e1-1:clab-vt-DC2-Leaf1:e1-33" label="rate" source="clab-vt-DC2-Spine1:e1-1:clab-vt-DC2-Leaf1:e1-33" target="mid:clab-vt-DC2-Spine1:e1-1:clab-vt-DC2-Leaf1:e1-33">
      <mxCell style="endArrow=none;jumpStyle=gap;" edge="1" parent="1" source="clab-vt-DC2-Spine1:e1-1:clab-vt-DC2-Leaf1:e1-33" target="mid:clab-vt-DC2-Spine1:e1-1:clab-vt-DC2-Leaf1:e1-33">
          <mxGeometry relative="1" as="geometry" />
      </mxCell>
    </object><object id="link_id:clab-vt-DC2-Leaf1:e1-33:clab-vt-DC2-Spine1:e1-1" label="rate" source="clab-vt-DC2-Leaf1:e1-33:clab-vt-DC2-Spine1:e1-1" target="mid:clab-vt-DC2-Spine1:e1-1:clab-vt-DC2-Leaf1:e1-33">
      <mxCell style="endArrow=none;jumpStyle=gap;" edge="1" parent="1" source="clab-vt-DC2-Leaf1:e1-33:clab-vt-DC2-Spine1:e1-1" target="mid:clab-vt-DC2-Spine1:e1-1:clab-vt-DC2-Leaf1:e1-33">
          <mxGeometry relative="1" as="geometry" />
      </mxCell>
    </object><object id="clab-vt-DC2-Spine1:e1-2:clab-vt-DC2-Leaf2:e1-33" label="2">
      <mxCell style="ellipse;whiteSpace=wrap;html=1;aspect=fixed;fontColor=#FFFFFF;fontSize=6;strokeColor=#98A2AE;fillColor=#BEC8D2;" vertex="1" parent="group-clab-vt-DC2-Spine1">
          <mxGeometry x="44.0" y="75.0" width="12" height="12" as="geometry" />
      </mxCell>
    </object><object id="clab-vt-DC2-Leaf2:e1-33:clab-vt-DC2-Spine1:e1-2" label="33">
      <mxCell style="ellipse;whiteSpace=wrap;html=1;aspect=fixed;fontColor=#FFFFFF;fontSize=6;strokeColor=#98A2AE;fillColor=#BEC8D2;" vertex="1" parent="group-clab-vt-DC2-Leaf2">
          <mxGeometry x="19.0" y="0.0" width="12" height="12" as="geometry" />
      </mxCell>
    </object><object id="mid:clab-vt-DC2-Spine1:e1-2:clab-vt-DC2-Leaf2:e1-33" label="​">
      <mxCell style="ellipse;whiteSpace=wrap;html=1;aspect=fixed;fontColor=#FFFFFF;fontSize=6;fillColor=#BEC8D2;strokeColor=none;noLabel=1;" vertex="1" parent="1">
          <mxGeometry x="521.1591317610126" y="756.5273054088101" width="4" height="4" as="geometry" />
      </mxCell>
    </object><object id="link_id:clab-vt-DC2-Spine1:e1-2:clab-vt-DC2-Leaf2:e1-33" label="rate" source="clab-vt-DC2-Spine1:e1-2:clab-vt-DC2-Leaf2:e1-33" target="mid:clab-vt-DC2-Spine1:e1-2:clab-vt-DC2-Leaf2:e1-33">
      <mxCell style="endArrow=none;jumpStyle=gap;" edge="1" parent="1" source="clab-vt-DC2-Spine1:e1-2:clab-vt-DC2-Leaf2:e1-33" target="mid:clab-vt-DC2-Spine1:e1-2:clab-vt-DC2-Leaf2:e1-33">
          <mxGeometry relative="1" as="geometry" />
      </mxCell>
    </object><object id="link_id:clab-vt-DC2-Leaf2:e1-33:clab-vt-DC2-Spine1:e1-2" label="rate" source="clab-vt-DC2-Leaf2:e1-33:clab-vt-DC2-Spine1:e1-2" target="mid:clab-vt-DC2-Spine1:e1-2:clab-vt-DC2-Leaf2:e1-33">
      <mxCell style="endArrow=none;jumpStyle=gap;" edge="1" parent="1" source="clab-vt-DC2-Leaf2:e1-33:clab-vt-DC2-Spine1:e1-2" target="mid:clab-vt-DC2-Spine1:e1-2:clab-vt-DC2-Leaf2:e1-33">
          <mxGeometry relative="1" as="geometry" />
      </mxCell>
    </object><object id="clab-vt-DC2-Spine1:e1-49:clab-vt-DC2-GW1:1/1/1" label="49">
      <mxCell style="ellipse;whiteSpace=wrap;html=1;aspect=fixed;fontColor=#FFFFFF;fontSize=6;strokeColor=#98A2AE;fillColor=#BEC8D2;" vertex="1" parent="group-clab-vt-DC2-Spine1">
          <mxGeometry x="19.0" y="0.0" width="12" height="12" as="geometry" />
      </mxCell>
    </object><object id="clab-vt-DC2-GW1:1/1/1:clab-vt-DC2-Spine1:e1-49" label="1">
      <mxCell style="ellipse;whiteSpace=wrap;html=1;aspect=fixed;fontColor=#FFFFFF;fontSize=6;strokeColor=#98A2AE;fillColor=#BEC8D2;" vertex="1" parent="group-clab-vt-DC2-GW1">
          <mxGeometry x="19.0" y="75.0" width="12" height="12" as="geometry" />
      </mxCell>
    </object><object id="mid:clab-vt-DC2-Spine1:e1-49:clab-vt-DC2-GW1:1/1/1" label="​">
      <mxCell style="ellipse;whiteSpace=wrap;html=1;aspect=fixed;fontColor=#FFFFFF;fontSize=6;fillColor=#BEC8D2;strokeColor=none;noLabel=1;" vertex="1" parent="1">
          <mxGeometry x="423.0" y="556.4088289238332" width="4" height="4" as="geometry" />
      </mxCell>
    </object><object id="link_id:clab-vt-DC2-Spine1:e1-49:clab-vt-DC2-GW1:1/1/1" label="rate" source="clab-vt-DC2-Spine1:e1-49:clab-vt-DC2-GW1:1/1/1" target="mid:clab-vt-DC2-Spine1:e1-49:clab-vt-DC2-GW1:1/1/1">
      <mxCell style="endArrow=none;jumpStyle=gap;" edge="1" parent="1" source="clab-vt-DC2-Spine1:e1-49:clab-vt-DC2-GW1:1/1/1" target="mid:clab-vt-DC2-Spine1:e1-49:clab-vt-DC2-GW1:1/1/1">
          <mxGeometry relative="1" as="geometry" />
      </mxCell>
    </object><object id="link_id:clab-vt-DC2-GW1:1/1/1:clab-vt-DC2-Spine1:e1-49" label="rate" source="clab-vt-DC2-GW1:1/1/1:clab-vt-DC2-Spine1:e1-49" target="mid:clab-vt-DC2-Spine1:e1-49:clab-vt-DC2-GW1:1/1/1">
      <mxCell style="endArrow=none;jumpStyle=gap;" edge="1" parent="1" source="clab-vt-DC2-GW1:1/1/1:clab-vt-DC2-Spine1:e1-49" target="mid:clab-vt-DC2-Spine1:e1-49:clab-vt-DC2-GW1:1/1/1">
          <mxGeometry relative="1" as="geometry" />
      </mxCell>
    </object><object id="clab-vt-DC2-Spine1:e1-50:clab-vt-DC2-GW2:1/1/1" label="50">
      <mxCell style="ellipse;whiteSpace=wrap;html=1;aspect=fixed;fontColor=#FFFFFF;fontSize=6;strokeColor=#98A2AE;fillColor=#BEC8D2;" vertex="1" parent="group-clab-vt-DC2-Spine1">
          <mxGeometry x="44.0" y="0.0" width="12" height="12" as="geometry" />
      </mxCell>
    </object><object id="clab-vt-DC2-GW2:1/1/1:clab-vt-DC2-Spine1:e1-50" label="1">
      <mxCell style="ellipse;whiteSpace=wrap;html=1;aspect=fixed;fontColor=#FFFFFF;fontSize=6;strokeColor=#98A2AE;fillColor=#BEC8D2;" vertex="1" parent="group-clab-vt-DC2-GW2">
          <mxGeometry x="19.0" y="75.0" width="12" height="12" as="geometry" />
      </mxCell>
    </object><object id="mid:clab-vt-DC2-Spine1:e1-50:clab-vt-DC2-GW2:1/1/1" label="​">
      <mxCell style="ellipse;whiteSpace=wrap;html=1;aspect=fixed;fontColor=#FFFFFF;fontSize=6;fillColor=#BEC8D2;strokeColor=none;noLabel=1;" vertex="1" parent="1">
          <mxGeometry x="525.7233021999398" y="560.8213582400481" width="4" height="4" as="geometry" />
      </mxCell>
    </object><object id="link_id:clab-vt-DC2-Spine1:e1-50:clab-vt-DC2-GW2:1/1/1" label="rate" source="clab-vt-DC2-Spine1:e1-50:clab-vt-DC2-GW2:1/1/1" target="mid:clab-vt-DC2-Spine1:e1-50:clab-vt-DC2-GW2:1/1/1">
      <mxCell style="endArrow=none;jumpStyle=gap;" edge="1" parent="1" source="clab-vt-DC2-Spine1:e1-50:clab-vt-DC2-GW2:1/1/1" target="mid:clab-vt-DC2-Spine1:e1-50:clab-vt-DC2-GW2:1/1/1">
          <mxGeometry relative="1" as="geometry" />
      </mxCell>
    </object><object id="link_id:clab-vt-DC2-GW2:1/1/1:clab-vt-DC2-Spine1:e1-50" label="rate" source="clab-vt-DC2-GW2:1/1/1:clab-vt-DC2-Spine1:e1-50" target="mid:clab-vt-DC2-Spine1:e1-50:clab-vt-DC2-GW2:1/1/1">
      <mxCell style="endArrow=none;jumpStyle=gap;" edge="1" parent="1" source="clab-vt-DC2-GW2:1/1/1:clab-vt-DC2-Spine1:e1-50" target="mid:clab-vt-DC2-Spine1:e1-50:clab-vt-DC2-GW2:1/1/1">
          <mxGeometry relative="1" as="geometry" />
      </mxCell>
    </object><object id="clab-vt-DC2-Spine2:e1-1:clab-vt-DC2-Leaf1:e1-34" label="1">
      <mxCell style="ellipse;whiteSpace=wrap;html=1;aspect=fixed;fontColor=#FFFFFF;fontSize=6;strokeColor=#98A2AE;fillColor=#BEC8D2;" vertex="1" parent="group-clab-vt-DC2-Spine2">
          <mxGeometry x="19.0" y="75.0" width="12" height="12" as="geometry" />
      </mxCell>
    </object><object id="clab-vt-DC2-Leaf1:e1-34:clab-vt-DC2-Spine2:e1-1" label="34">
      <mxCell style="ellipse;whiteSpace=wrap;html=1;aspect=fixed;fontColor=#FFFFFF;fontSize=6;strokeColor=#98A2AE;fillColor=#BEC8D2;" vertex="1" parent="group-clab-vt-DC2-Leaf1">
          <mxGeometry x="44.0" y="0.0" width="12" height="12" as="geometry" />
      </mxCell>
    </object><object id="mid:clab-vt-DC2-Spine2:e1-1:clab-vt-DC2-Leaf1:e1-34" label="​">
      <mxCell style="ellipse;whiteSpace=wrap;html=1;aspect=fixed;fontColor=#FFFFFF;fontSize=6;fillColor=#BEC8D2;strokeColor=none;noLabel=1;" vertex="1" parent="1">
          <mxGeometry x="496.49659055693843" y="759.2027275544492" width="4" height="4" as="geometry" />
      </mxCell>
    </object><object id="link_id:clab-vt-DC2-Spine2:e1-1:clab-vt-DC2-Leaf1:e1-34" label="rate" source="clab-vt-DC2-Spine2:e1-1:clab-vt-DC2-Leaf1:e1-34" target="mid:clab-vt-DC2-Spine2:e1-1:clab-vt-DC2-Leaf1:e1-34">
      <mxCell style="endArrow=none;jumpStyle=gap;" edge="1" parent="1" source="clab-vt-DC2-Spine2:e1-1:clab-vt-DC2-Leaf1:e1-34" target="mid:clab-vt-DC2-Spine2:e1-1:clab-vt-DC2-Leaf1:e1-34">
          <mxGeometry relative="1" as="geometry" />
      </mxCell>
    </object><object id="link_id:clab-vt-DC2-Leaf1:e1-34:clab-vt-DC2-Spine2:e1-1" label="rate" source="clab-vt-DC2-Leaf1:e1-34:clab-vt-DC2-Spine2:e1-1" target="mid:clab-vt-DC2-Spine2:e1-1:clab-vt-DC2-Leaf1:e1-34">
      <mxCell style="endArrow=none;jumpStyle=gap;" edge="1" parent="1" source="clab-vt-DC2-Leaf1:e1-34:clab-vt-DC2-Spine2:e1-1" target="mid:clab-vt-DC2-Spine2:e1-1:clab-vt-DC2-Leaf1:e1-34">
          <mxGeometry relative="1" as="geometry" />
      </mxCell>
    </object><object id="clab-vt-DC2-Spine2:e1-2:clab-vt-DC2-Leaf2:e1-34" label="2">
      <mxCell style="ellipse;whiteSpace=wrap;html=1;aspect=fixed;fontColor=#FFFFFF;fontSize=6;strokeColor=#98A2AE;fillColor=#BEC8D2;" vertex="1" parent="group-clab-vt-DC2-Spine2">
          <mxGeometry x="44.0" y="75.0" width="12" height="12" as="geometry" />
      </mxCell>
    </object><object id="clab-vt-DC2-Leaf2:e1-34:clab-vt-DC2-Spine2:e1-2" label="34">
      <mxCell style="ellipse;whiteSpace=wrap;html=1;aspect=fixed;fontColor=#FFFFFF;fontSize=6;strokeColor=#98A2AE;fillColor=#BEC8D2;" vertex="1" parent="group-clab-vt-DC2-Leaf2">
          <mxGeometry x="44.0" y="0.0" width="12" height="12" as="geometry" />
      </mxCell>
    </object><object id="mid:clab-vt-DC2-Spine2:e1-2:clab-vt-DC2-Leaf2:e1-34" label="​">
      <mxCell style="ellipse;whiteSpace=wrap;html=1;aspect=fixed;fontColor=#FFFFFF;fontSize=6;fillColor=#BEC8D2;strokeColor=none;noLabel=1;" vertex="1" parent="1">
          <mxGeometry x="598.0" y="759.5076659821899" width="4" height="4" as="geometry" />
      </mxCell>
    </object><object id="link_id:clab-vt-DC2-Spine2:e1-2:clab-vt-DC2-Leaf2:e1-34" label="rate" source="clab-vt-DC2-Spine2:e1-2:clab-vt-DC2-Leaf2:e1-34" target="mid:clab-vt-DC2-Spine2:e1-2:clab-vt-DC2-Leaf2:e1-34">
      <mxCell style="endArrow=none;jumpStyle=gap;" edge="1" parent="1" source="clab-vt-DC2-Spine2:e1-2:clab-vt-DC2-Leaf2:e1-34" target="mid:clab-vt-DC2-Spine2:e1-2:clab-vt-DC2-Leaf2:e1-34">
          <mxGeometry relative="1" as="geometry" />
      </mxCell>
    </object><object id="link_id:clab-vt-DC2-Leaf2:e1-34:clab-vt-DC2-Spine2:e1-2" label="rate" source="clab-vt-DC2-Leaf2:e1-34:clab-vt-DC2-Spine2:e1-2" target="mid:clab-vt-DC2-Spine2:e1-2:clab-vt-DC2-Leaf2:e1-34">
      <mxCell style="endArrow=none;jumpStyle=gap;" edge="1" parent="1" source="clab-vt-DC2-Leaf2:e1-34:clab-vt-DC2-Spine2:e1-2" target="mid:clab-vt-DC2-Spine2:e1-2:clab-vt-DC2-Leaf2:e1-34">
          <mxGeometry relative="1" as="geometry" />
      </mxCell>
    </object><object id="clab-vt-DC2-Spine2:e1-49:clab-vt-DC2-GW1:1/1/2" label="49">
      <mxCell style="ellipse;whiteSpace=wrap;html=1;aspect=fixed;fontColor=#FFFFFF;fontSize=6;strokeColor=#98A2AE;fillColor=#BEC8D2;" vertex="1" parent="group-clab-vt-DC2-Spine2">
          <mxGeometry x="19.0" y="0.0" width="12" height="12" as="geometry" />
      </mxCell>
    </object><object id="clab-vt-DC2-GW1:1/1/2:clab-vt-DC2-Spine2:e1-49" label="2">
      <mxCell style="ellipse;whiteSpace=wrap;html=1;aspect=fixed;fontColor=#FFFFFF;fontSize=6;strokeColor=#98A2AE;fillColor=#BEC8D2;" vertex="1" parent="group-clab-vt-DC2-GW1">
          <mxGeometry x="44.0" y="75.0" width="12" height="12" as="geometry" />
      </mxCell>
    </object><object id="mid:clab-vt-DC2-Spine2:e1-49:clab-vt-DC2-GW1:1/1/2" label="​">
      <mxCell style="ellipse;whiteSpace=wrap;html=1;aspect=fixed;fontColor=#FFFFFF;fontSize=6;fillColor=#BEC8D2;strokeColor=none;noLabel=1;" vertex="1" parent="1">
          <mxGeometry x="519.7900419190511" y="580.4320335352409" width="4" height="4" as="geometry" />
      </mxCell>
    </object><object id="link_id:clab-vt-DC2-Spine2:e1-49:clab-vt-DC2-GW1:1/1/2" label="rate" source="clab-vt-DC2-Spine2:e1-49:clab-vt-DC2-GW1:1/1/2" target="mid:clab-vt-DC2-Spine2:e1-49:clab-vt-DC2-GW1:1/1/2">
      <mxCell style="endArrow=none;jumpStyle=gap;" edge="1" parent="1" source="clab-vt-DC2-Spine2:e1-49:clab-vt-DC2-GW1:1/1/2" target="mid:clab-vt-DC2-Spine2:e1-49:clab-vt-DC2-GW1:1/1/2">
          <mxGeometry relative="1" as="geometry" />
      </mxCell>
    </object><object id="link_id:clab-vt-DC2-GW1:1/1/2:clab-vt-DC2-Spine2:e1-49" label="rate" source="clab-vt-DC2-GW1:1/1/2:clab-vt-DC2-Spine2:e1-49" target="mid:clab-vt-DC2-Spine2:e1-49:clab-vt-DC2-GW1:1/1/2">
      <mxCell style="endArrow=none;jumpStyle=gap;" edge="1" parent="1" source="clab-vt-DC2-GW1:1/1/2:clab-vt-DC2-Spine2:e1-49" target="mid:clab-vt-DC2-Spine2:e1-49:clab-vt-DC2-GW1:1/1/2">
          <mxGeometry relative="1" as="geometry" />
      </mxCell>
    </object><object id="clab-vt-DC2-Spine2:e1-50:clab-vt-DC2-GW2:1/1/2" label="50">
      <mxCell style="ellipse;whiteSpace=wrap;html=1;aspect=fixed;fontColor=#FFFFFF;fontSize=6;strokeColor=#98A2AE;fillColor=#BEC8D2;" vertex="1" parent="group-clab-vt-DC2-Spine2">
          <mxGeometry x="44.0" y="0.0" width="12" height="12" as="geometry" />
      </mxCell>
    </object><object id="clab-vt-DC2-GW2:1/1/2:clab-vt-DC2-Spine2:e1-50" label="2">
      <mxCell style="ellipse;whiteSpace=wrap;html=1;aspect=fixed;fontColor=#FFFFFF;fontSize=6;strokeColor=#98A2AE;fillColor=#BEC8D2;" vertex="1" parent="group-clab-vt-DC2-GW2">
          <mxGeometry x="44.0" y="75.0" width="12" height="12" as="geometry" />
      </mxCell>
    </object><object id="mid:clab-vt-DC2-Spine2:e1-50:clab-vt-DC2-GW2:1/1/2" label="​">
      <mxCell style="ellipse;whiteSpace=wrap;html=1;aspect=fixed;fontColor=#FFFFFF;fontSize=6;fillColor=#BEC8D2;strokeColor=none;noLabel=1;" vertex="1" parent="1">
          <mxGeometry x="598.0" y="588.8714012428709" width="4" height="4" as="geometry" />
      </mxCell>
    </object><object id="link_id:clab-vt-DC2-Spine2:e1-50:clab-vt-DC2-GW2:1/1/2" label="rate" source="clab-vt-DC2-Spine2:e1-50:clab-vt-DC2-GW2:1/1/2" target="mid:clab-vt-DC2-Spine2:e1-50:clab-vt-DC2-GW2:1/1/2">
      <mxCell style="endArrow=none;jumpStyle=gap;" edge="1" parent="1" source="clab-vt-DC2-Spine2:e1-50:clab-vt-DC2-GW2:1/1/2" target="mid:clab-vt-DC2-Spine2:e1-50:clab-vt-DC2-GW2:1/1/2">
          <mxGeometry relative="1" as="geometry" />
      </mxCell>
    </object><object id="link_id:clab-vt-DC2-GW2:1/1/2:clab-vt-DC2-Spine2:e1-50" label="rate" source="clab-vt-DC2-GW2:1/1/2:clab-vt-DC2-Spine2:e1-50" target="mid:clab-vt-DC2-Spine2:e1-50:clab-vt-DC2-GW2:1/1/2">
      <mxCell style="endArrow=none;jumpStyle=gap;" edge="1" parent="1" source="clab-vt-DC2-GW2:1/1/2:clab-vt-DC2-Spine2:e1-50" target="mid:clab-vt-DC2-Spine2:e1-50:clab-vt-DC2-GW2:1/1/2">
          <mxGeometry relative="1" as="geometry" />
      </mxCell>
    </object><object id="clab-vt-DC1-GW1:1/1/7:clab-vt-BB1:1/1/3" label="7">
      <mxCell style="ellipse;whiteSpace=wrap;html=1;aspect=fixed;fontColor=#FFFFFF;fontSize=6;strokeColor=#98A2AE;fillColor=#BEC8D2;" vertex="1" parent="group-clab-vt-DC1-GW1">
          <mxGeometry x="44.0" y="0.0" width="12" height="12" as="geometry" />
      </mxCell>
    </object><object id="clab-vt-BB1:1/1/3:clab-vt-DC1-GW1:1/1/7" label="3">
      <mxCell style="ellipse;whiteSpace=wrap;html=1;aspect=fixed;fontColor=#FFFFFF;fontSize=6;strokeColor=#98A2AE;fillColor=#BEC8D2;" vertex="1" parent="group-clab-vt-BB1">
          <mxGeometry x="30.0" y="75.0" width="12" height="12" as="geometry" />
      </mxCell>
    </object><object id="mid:clab-vt-DC1-GW1:1/1/7:clab-vt-BB1:1/1/3" label="​">
      <mxCell style="ellipse;whiteSpace=wrap;html=1;aspect=fixed;fontColor=#FFFFFF;fontSize=6;fillColor=#BEC8D2;strokeColor=none;noLabel=1;" vertex="1" parent="1">
          <mxGeometry x="355.01753911618835" y="404.140354526009" width="4" height="4" as="geometry" />
      </mxCell>
    </object><object id="link_id:clab-vt-DC1-GW1:1/1/7:clab-vt-BB1:1/1/3" label="rate" source="clab-vt-DC1-GW1:1/1/7:clab-vt-BB1:1/1/3" target="mid:clab-vt-DC1-GW1:1/1/7:clab-vt-BB1:1/1/3">
      <mxCell style="endArrow=none;jumpStyle=gap;" edge="1" parent="1" source="clab-vt-DC1-GW1:1/1/7:clab-vt-BB1:1/1/3" target="mid:clab-vt-DC1-GW1:1/1/7:clab-vt-BB1:1/1/3">
          <mxGeometry relative="1" as="geometry" />
      </mxCell>
    </object><object id="link_id:clab-vt-BB1:1/1/3:clab-vt-DC1-GW1:1/1/7" label="rate" source="clab-vt-BB1:1/1/3:clab-vt-DC1-GW1:1/1/7" target="mid:clab-vt-DC1-GW1:1/1/7:clab-vt-BB1:1/1/3">
      <mxCell style="endArrow=none;jumpStyle=gap;" edge="1" parent="1" source="clab-vt-BB1:1/1/3:clab-vt-DC1-GW1:1/1/7" target="mid:clab-vt-DC1-GW1:1/1/7:clab-vt-BB1:1/1/3">
          <mxGeometry relative="1" as="geometry" />
      </mxCell>
    </object><object id="clab-vt-DC1-GW1:1/1/8:clab-vt-BB2:1/1/3" label="8">
      <mxCell style="ellipse;whiteSpace=wrap;html=1;aspect=fixed;fontColor=#FFFFFF;fontSize=6;strokeColor=#98A2AE;fillColor=#BEC8D2;" vertex="1" parent="group-clab-vt-DC1-GW1">
          <mxGeometry x="24.0" y="0.0" width="12" height="12" as="geometry" />
      </mxCell>
    </object><object id="clab-vt-BB2:1/1/3:clab-vt-DC1-GW1:1/1/8" label="3">
      <mxCell style="ellipse;whiteSpace=wrap;html=1;aspect=fixed;fontColor=#FFFFFF;fontSize=6;strokeColor=#98A2AE;fillColor=#BEC8D2;" vertex="1" parent="group-clab-vt-BB2">
          <mxGeometry x="24.0" y="75.0" width="12" height="12" as="geometry" />
      </mxCell>
    </object><object id="mid:clab-vt-DC1-GW1:1/1/8:clab-vt-BB2:1/1/3" label="​">
      <mxCell style="ellipse;whiteSpace=wrap;html=1;aspect=fixed;fontColor=#FFFFFF;fontSize=6;fillColor=#BEC8D2;strokeColor=none;noLabel=1;" vertex="1" parent="1">
          <mxGeometry x="278.0" y="413.4033987067967" width="4" height="4" as="geometry" />
      </mxCell>
    </object><object id="link_id:clab-vt-DC1-GW1:1/1/8:clab-vt-BB2:1/1/3" label="rate" source="clab-vt-DC1-GW1:1/1/8:clab-vt-BB2:1/1/3" target="mid:clab-vt-DC1-GW1:1/1/8:clab-vt-BB2:1/1/3">
      <mxCell style="endArrow=none;jumpStyle=gap;" edge="1" parent="1" source="clab-vt-DC1-GW1:1/1/8:clab-vt-BB2:1/1/3" target="mid:clab-vt-DC1-GW1:1/1/8:clab-vt-BB2:1/1/3">
          <mxGeometry relative="1" as="geometry" />
      </mxCell>
    </object><object id="link_id:clab-vt-BB2:1/1/3:clab-vt-DC1-GW1:1/1/8" label="rate" source="clab-vt-BB2:1/1/3:clab-vt-DC1-GW1:1/1/8" target="mid:clab-vt-DC1-GW1:1/1/8:clab-vt-BB2:1/1/3">
      <mxCell style="endArrow=none;jumpStyle=gap;" edge="1" parent="1" source="clab-vt-BB2:1/1/3:clab-vt-DC1-GW1:1/1/8" target="mid:clab-vt-DC1-GW1:1/1/8:clab-vt-BB2:1/1/3">
          <mxGeometry relative="1" as="geometry" />
      </mxCell>
    </object><object id="clab-vt-DC1-GW2:1/1/7:clab-vt-BB1:1/1/4" label="7">
      <mxCell style="ellipse;whiteSpace=wrap;html=1;aspect=fixed;fontColor=#FFFFFF;fontSize=6;strokeColor=#98A2AE;fillColor=#BEC8D2;" vertex="1" parent="group-clab-vt-DC1-GW2">
          <mxGeometry x="44.0" y="0.0" width="12" height="12" as="geometry" />
      </mxCell>
    </object><object id="clab-vt-BB1:1/1/4:clab-vt-DC1-GW2:1/1/7" label="4">
      <mxCell style="ellipse;whiteSpace=wrap;html=1;aspect=fixed;fontColor=#FFFFFF;fontSize=6;strokeColor=#98A2AE;fillColor=#BEC8D2;" vertex="1" parent="group-clab-vt-BB1">
          <mxGeometry x="15.0" y="75.0" width="12" height="12" as="geometry" />
      </mxCell>
    </object><object id="mid:clab-vt-DC1-GW2:1/1/7:clab-vt-BB1:1/1/4" label="​">
      <mxCell style="ellipse;whiteSpace=wrap;html=1;aspect=fixed;fontColor=#FFFFFF;fontSize=6;fillColor=#BEC8D2;strokeColor=none;noLabel=1;" vertex="1" parent="1">
          <mxGeometry x="291.8511567257611" y="393.7165446317883" width="4" height="4" as="geometry" />
      </mxCell>
    </object><object id="link_id:clab-vt-DC1-GW2:1/1/7:clab-vt-BB1:1/1/4" label="rate" source="clab-vt-DC1-GW2:1/1/7:clab-vt-BB1:1/1/4" target="mid:clab-vt-DC1-GW2:1/1/7:clab-vt-BB1:1/1/4">
      <mxCell style="endArrow=none;jumpStyle=gap;" edge="1" parent="1" source="clab-vt-DC1-GW2:1/1/7:clab-vt-BB1:1/1/4" target="mid:clab-vt-DC1-GW2:1/1/7:clab-vt-BB1:1/1/4">
          <mxGeometry relative="1" as="geometry" />
      </mxCell>
    </object><object id="link_id:clab-vt-BB1:1/1/4:clab-vt-DC1-GW2:1/1/7" label="rate" source="clab-vt-BB1:1/1/4:clab-vt-DC1-GW2:1/1/7" target="mid:clab-vt-DC1-GW2:1/1/7:clab-vt-BB1:1/1/4">
      <mxCell style="endArrow=none;jumpStyle=gap;" edge="1" parent="1" source="clab-vt-BB1:1/1/4:clab-vt-DC1-GW2:1/1/7" target="mid:clab-vt-DC1-GW2:1/1/7:clab-vt-BB1:1/1/4">
          <mxGeometry relative="1" as="geometry" />
      </mxCell>
    </object><object id="clab-vt-DC1-GW2:1/1/8:clab-vt-BB2:1/1/4" label="8">
      <mxCell style="ellipse;whiteSpace=wrap;html=1;aspect=fixed;fontColor=#FFFFFF;fontSize=6;strokeColor=#98A2AE;fillColor=#BEC8D2;" vertex="1" parent="group-clab-vt-DC1-GW2">
          <mxGeometry x="19.0" y="0.0" width="12" height="12" as="geometry" />
      </mxCell>
    </object><object id="clab-vt-BB2:1/1/4:clab-vt-DC1-GW2:1/1/8" label="4">
      <mxCell style="ellipse;whiteSpace=wrap;html=1;aspect=fixed;fontColor=#FFFFFF;fontSize=6;strokeColor=#98A2AE;fillColor=#BEC8D2;" vertex="1" parent="group-clab-vt-BB2">
          <mxGeometry x="9.0" y="75.0" width="12" height="12" as="geometry" />
      </mxCell>
    </object><object id="mid:clab-vt-DC1-GW2:1/1/8:clab-vt-BB2:1/1/4" label="​">
      <mxCell style="ellipse;whiteSpace=wrap;html=1;aspect=fixed;fontColor=#FFFFFF;fontSize=6;fillColor=#BEC8D2;strokeColor=none;noLabel=1;" vertex="1" parent="1">
          <mxGeometry x="180.12061605974432" y="407.1995599573255" width="4" height="4" as="geometry" />
      </mxCell>
    </object><object id="link_id:clab-vt-DC1-GW2:1/1/8:clab-vt-BB2:1/1/4" label="rate" source="clab-vt-DC1-GW2:1/1/8:clab-vt-BB2:1/1/4" target="mid:clab-vt-DC1-GW2:1/1/8:clab-vt-BB2:1/1/4">
      <mxCell style="endArrow=none;jumpStyle=gap;" edge="1" parent="1" source="clab-vt-DC1-GW2:1/1/8:clab-vt-BB2:1/1/4" target="mid:clab-vt-DC1-GW2:1/1/8:clab-vt-BB2:1/1/4">
          <mxGeometry relative="1" as="geometry" />
      </mxCell>
    </object><object id="link_id:clab-vt-BB2:1/1/4:clab-vt-DC1-GW2:1/1/8" label="rate" source="clab-vt-BB2:1/1/4:clab-vt-DC1-GW2:1/1/8" target="mid:clab-vt-DC1-GW2:1/1/8:clab-vt-BB2:1/1/4">
      <mxCell style="endArrow=none;jumpStyle=gap;" edge="1" parent="1" source="clab-vt-BB2:1/1/4:clab-vt-DC1-GW2:1/1/8" target="mid:clab-vt-DC1-GW2:1/1/8:clab-vt-BB2:1/1/4">
          <mxGeometry relative="1" as="geometry" />
      </mxCell>
    </object><object id="clab-vt-DC2-GW1:1/1/7:clab-vt-BB1:1/1/5" label="7">
      <mxCell style="ellipse;whiteSpace=wrap;html=1;aspect=fixed;fontColor=#FFFFFF;fontSize=6;strokeColor=#98A2AE;fillColor=#BEC8D2;" vertex="1" parent="group-clab-vt-DC2-GW1">
          <mxGeometry x="39.0" y="0.0" width="12" height="12" as="geometry" />
      </mxCell>
    </object><object id="clab-vt-BB1:1/1/5:clab-vt-DC2-GW1:1/1/7" label="5">
      <mxCell style="ellipse;whiteSpace=wrap;html=1;aspect=fixed;fontColor=#FFFFFF;fontSize=6;strokeColor=#98A2AE;fillColor=#BEC8D2;" vertex="1" parent="group-clab-vt-BB1">
          <mxGeometry x="45.0" y="75.0" width="12" height="12" as="geometry" />
      </mxCell>
    </object><object id="mid:clab-vt-DC2-GW1:1/1/7:clab-vt-BB1:1/1/5" label="​">
      <mxCell style="ellipse;whiteSpace=wrap;html=1;aspect=fixed;fontColor=#FFFFFF;fontSize=6;fillColor=#BEC8D2;strokeColor=none;noLabel=1;" vertex="1" parent="1">
          <mxGeometry x="443.0" y="408.1875258235101" width="4" height="4" as="geometry" />
      </mxCell>
    </object><object id="link_id:clab-vt-DC2-GW1:1/1/7:clab-vt-BB1:1/1/5" label="rate" source="clab-vt-DC2-GW1:1/1/7:clab-vt-BB1:1/1/5" target="mid:clab-vt-DC2-GW1:1/1/7:clab-vt-BB1:1/1/5">
      <mxCell style="endArrow=none;jumpStyle=gap;" edge="1" parent="1" source="clab-vt-DC2-GW1:1/1/7:clab-vt-BB1:1/1/5" target="mid:clab-vt-DC2-GW1:1/1/7:clab-vt-BB1:1/1/5">
          <mxGeometry relative="1" as="geometry" />
      </mxCell>
    </object><object id="link_id:clab-vt-BB1:1/1/5:clab-vt-DC2-GW1:1/1/7" label="rate" source="clab-vt-BB1:1/1/5:clab-vt-DC2-GW1:1/1/7" target="mid:clab-vt-DC2-GW1:1/1/7:clab-vt-BB1:1/1/5">
      <mxCell style="endArrow=none;jumpStyle=gap;" edge="1" parent="1" source="clab-vt-BB1:1/1/5:clab-vt-DC2-GW1:1/1/7" target="mid:clab-vt-DC2-GW1:1/1/7:clab-vt-BB1:1/1/5">
          <mxGeometry relative="1" as="geometry" />
      </mxCell>
    </object><object id="clab-vt-DC2-GW1:1/1/8:clab-vt-BB2:1/1/5" label="8">
      <mxCell style="ellipse;whiteSpace=wrap;html=1;aspect=fixed;fontColor=#FFFFFF;fontSize=6;strokeColor=#98A2AE;fillColor=#BEC8D2;" vertex="1" parent="group-clab-vt-DC2-GW1">
          <mxGeometry x="19.0" y="0.0" width="12" height="12" as="geometry" />
      </mxCell>
    </object><object id="clab-vt-BB2:1/1/5:clab-vt-DC2-GW1:1/1/8" label="5">
      <mxCell style="ellipse;whiteSpace=wrap;html=1;aspect=fixed;fontColor=#FFFFFF;fontSize=6;strokeColor=#98A2AE;fillColor=#BEC8D2;" vertex="1" parent="group-clab-vt-BB2">
          <mxGeometry x="39.0" y="75.0" width="12" height="12" as="geometry" />
      </mxCell>
    </object><object id="mid:clab-vt-DC2-GW1:1/1/8:clab-vt-BB2:1/1/5" label="​">
      <mxCell style="ellipse;whiteSpace=wrap;html=1;aspect=fixed;fontColor=#FFFFFF;fontSize=6;fillColor=#BEC8D2;strokeColor=none;noLabel=1;" vertex="1" parent="1">
          <mxGeometry x="366.76140348009005" y="404.73954113853085" width="4" height="4" as="geometry" />
      </mxCell>
    </object><object id="link_id:clab-vt-DC2-GW1:1/1/8:clab-vt-BB2:1/1/5" label="rate" source="clab-vt-DC2-GW1:1/1/8:clab-vt-BB2:1/1/5" target="mid:clab-vt-DC2-GW1:1/1/8:clab-vt-BB2:1/1/5">
      <mxCell style="endArrow=none;jumpStyle=gap;" edge="1" parent="1" source="clab-vt-DC2-GW1:1/1/8:clab-vt-BB2:1/1/5" target="mid:clab-vt-DC2-GW1:1/1/8:clab-vt-BB2:1/1/5">
          <mxGeometry relative="1" as="geometry" />
      </mxCell>
    </object><object id="link_id:clab-vt-BB2:1/1/5:clab-vt-DC2-GW1:1/1/8" label="rate" source="clab-vt-BB2:1/1/5:clab-vt-DC2-GW1:1/1/8" target="mid:clab-vt-DC2-GW1:1/1/8:clab-vt-BB2:1/1/5">
      <mxCell style="endArrow=none;jumpStyle=gap;" edge="1" parent="1" source="clab-vt-BB2:1/1/5:clab-vt-DC2-GW1:1/1/8" target="mid:clab-vt-DC2-GW1:1/1/8:clab-vt-BB2:1/1/5">
          <mxGeometry relative="1" as="geometry" />
      </mxCell>
    </object><object id="clab-vt-DC2-GW2:1/1/7:clab-vt-BB1:1/1/6" label="7">
      <mxCell style="ellipse;whiteSpace=wrap;html=1;aspect=fixed;fontColor=#FFFFFF;fontSize=6;strokeColor=#98A2AE;fillColor=#BEC8D2;" vertex="1" parent="group-clab-vt-DC2-GW2">
          <mxGeometry x="44.0" y="0.0" width="12" height="12" as="geometry" />
      </mxCell>
    </object><object id="clab-vt-BB1:1/1/6:clab-vt-DC2-GW2:1/1/7" label="6">
      <mxCell style="ellipse;whiteSpace=wrap;html=1;aspect=fixed;fontColor=#FFFFFF;fontSize=6;strokeColor=#98A2AE;fillColor=#BEC8D2;" vertex="1" parent="group-clab-vt-BB1">
          <mxGeometry x="60.0" y="75.0" width="12" height="12" as="geometry" />
      </mxCell>
    </object><object id="mid:clab-vt-DC2-GW2:1/1/7:clab-vt-BB1:1/1/6" label="​">
      <mxCell style="ellipse;whiteSpace=wrap;html=1;aspect=fixed;fontColor=#FFFFFF;fontSize=6;fillColor=#BEC8D2;strokeColor=none;noLabel=1;" vertex="1" parent="1">
          <mxGeometry x="518.1586308868771" y="390.9704506334836" width="4" height="4" as="geometry" />
      </mxCell>
    </object><object id="link_id:clab-vt-DC2-GW2:1/1/7:clab-vt-BB1:1/1/6" label="rate" source="clab-vt-DC2-GW2:1/1/7:clab-vt-BB1:1/1/6" target="mid:clab-vt-DC2-GW2:1/1/7:clab-vt-BB1:1/1/6">
      <mxCell style="endArrow=none;jumpStyle=gap;" edge="1" parent="1" source="clab-vt-DC2-GW2:1/1/7:clab-vt-BB1:1/1/6" target="mid:clab-vt-DC2-GW2:1/1/7:clab-vt-BB1:1/1/6">
          <mxGeometry relative="1" as="geometry" />
      </mxCell>
    </object><object id="link_id:clab-vt-BB1:1/1/6:clab-vt-DC2-GW2:1/1/7" label="rate" source="clab-vt-BB1:1/1/6:clab-vt-DC2-GW2:1/1/7" target="mid:clab-vt-DC2-GW2:1/1/7:clab-vt-BB1:1/1/6">
      <mxCell style="endArrow=none;jumpStyle=gap;" edge="1" parent="1" source="clab-vt-BB1:1/1/6:clab-vt-DC2-GW2:1/1/7" target="mid:clab-vt-DC2-GW2:1/1/7:clab-vt-BB1:1/1/6">
          <mxGeometry relative="1" as="geometry" />
      </mxCell>
    </object><object id="clab-vt-DC2-GW2:1/1/8:clab-vt-BB2:1/1/6" label="8">
      <mxCell style="ellipse;whiteSpace=wrap;html=1;aspect=fixed;fontColor=#FFFFFF;fontSize=6;strokeColor=#98A2AE;fillColor=#BEC8D2;" vertex="1" parent="group-clab-vt-DC2-GW2">
          <mxGeometry x="19.0" y="0.0" width="12" height="12" as="geometry" />
      </mxCell>
    </object><object id="clab-vt-BB2:1/1/6:clab-vt-DC2-GW2:1/1/8" label="6">
      <mxCell style="ellipse;whiteSpace=wrap;html=1;aspect=fixed;fontColor=#FFFFFF;fontSize=6;strokeColor=#98A2AE;fillColor=#BEC8D2;" vertex="1" parent="group-clab-vt-BB2">
          <mxGeometry x="54.0" y="75.0" width="12" height="12" as="geometry" />
      </mxCell>
    </object><object id="mid:clab-vt-DC2-GW2:1/1/8:clab-vt-BB2:1/1/6" label="​">
      <mxCell style="ellipse;whiteSpace=wrap;html=1;aspect=fixed;fontColor=#FFFFFF;fontSize=6;fillColor=#BEC8D2;strokeColor=none;noLabel=1;" vertex="1" parent="1">
          <mxGeometry x="453.26248811673764" y="402.8160332515991" width="4" height="4" as="geometry" />
      </mxCell>
    </object><object id="link_id:clab-vt-DC2-GW2:1/1/8:clab-vt-BB2:1/1/6" label="rate" source="clab-vt-DC2-GW2:1/1/8:clab-vt-BB2:1/1/6" target="mid:clab-vt-DC2-GW2:1/1/8:clab-vt-BB2:1/1/6">
      <mxCell style="endArrow=none;jumpStyle=gap;" edge="1" parent="1" source="clab-vt-DC2-GW2:1/1/8:clab-vt-BB2:1/1/6" target="mid:clab-vt-DC2-GW2:1/1/8:clab-vt-BB2:1/1/6">
          <mxGeometry relative="1" as="geometry" />
      </mxCell>
    </object><object id="link_id:clab-vt-BB2:1/1/6:clab-vt-DC2-GW2:1/1/8" label="rate" source="clab-vt-BB2:1/1/6:clab-vt-DC2-GW2:1/1/8" target="mid:clab-vt-DC2-GW2:1/1/8:clab-vt-BB2:1/1/6">
      <mxCell style="endArrow=none;jumpStyle=gap;" edge="1" parent="1" source="clab-vt-BB2:1/1/6:clab-vt-DC2-GW2:1/1/8" target="mid:clab-vt-DC2-GW2:1/1/8:clab-vt-BB2:1/1/6">
          <mxGeometry relative="1" as="geometry" />
      </mxCell>
    </object><object id="clab-vt-BB1:1/1/1:clab-vt-BB2:e1/1/1" label="1">
      <mxCell style="ellipse;whiteSpace=wrap;html=1;aspect=fixed;fontColor=#FFFFFF;fontSize=6;strokeColor=#98A2AE;fillColor=#BEC8D2;" vertex="1" parent="group-clab-vt-BB1">
          <mxGeometry x="0.0" y="37.5" width="12" height="12" as="geometry" />
      </mxCell>
    </object><object id="clab-vt-BB2:e1/1/1:clab-vt-BB1:1/1/1" label="1">
      <mxCell style="ellipse;whiteSpace=wrap;html=1;aspect=fixed;fontColor=#FFFFFF;fontSize=6;strokeColor=#98A2AE;fillColor=#BEC8D2;" vertex="1" parent="group-clab-vt-BB2">
          <mxGeometry x="69.0" y="37.5" width="12" height="12" as="geometry" />
      </mxCell>
    </object><object id="mid:clab-vt-BB1:1/1/1:clab-vt-BB2:e1/1/1" label="​">
      <mxCell style="ellipse;whiteSpace=wrap;html=1;aspect=fixed;fontColor=#FFFFFF;fontSize=6;fillColor=#BEC8D2;strokeColor=none;noLabel=1;" vertex="1" parent="1">
          <mxGeometry x="372.92583506701106" y="310.5" width="4" height="4" as="geometry" />
      </mxCell>
    </object><object id="link_id:clab-vt-BB1:1/1/1:clab-vt-BB2:e1/1/1" label="rate" source="clab-vt-BB1:1/1/1:clab-vt-BB2:e1/1/1" target="mid:clab-vt-BB1:1/1/1:clab-vt-BB2:e1/1/1">
      <mxCell style="endArrow=none;jumpStyle=gap;" edge="1" parent="1" source="clab-vt-BB1:1/1/1:clab-vt-BB2:e1/1/1" target="mid:clab-vt-BB1:1/1/1:clab-vt-BB2:e1/1/1">
          <mxGeometry relative="1" as="geometry" />
      </mxCell>
    </object><object id="link_id:clab-vt-BB2:e1/1/1:clab-vt-BB1:1/1/1" label="rate" source="clab-vt-BB2:e1/1/1:clab-vt-BB1:1/1/1" target="mid:clab-vt-BB1:1/1/1:clab-vt-BB2:e1/1/1">
      <mxCell style="endArrow=none;jumpStyle=gap;" edge="1" parent="1" source="clab-vt-BB2:e1/1/1:clab-vt-BB1:1/1/1" target="mid:clab-vt-BB1:1/1/1:clab-vt-BB2:e1/1/1">
          <mxGeometry relative="1" as="geometry" />
      </mxCell>
    </object><object id="clab-vt-BB1:1/1/2:clab-vt-RR:e1/1/1" label="2">
      <mxCell style="ellipse;whiteSpace=wrap;html=1;aspect=fixed;fontColor=#FFFFFF;fontSize=6;strokeColor=#98A2AE;fillColor=#BEC8D2;" vertex="1" parent="group-clab-vt-BB1">
          <mxGeometry x="37.5" y="0.0" width="12" height="12" as="geometry" />
      </mxCell>
    </object><object id="clab-vt-RR:e1/1/1:clab-vt-BB1:1/1/2" label="1">
      <mxCell style="ellipse;whiteSpace=wrap;html=1;aspect=fixed;fontColor=#FFFFFF;fontSize=6;strokeColor=#98A2AE;fillColor=#BEC8D2;" vertex="1" parent="group-clab-vt-RR">
          <mxGeometry x="44.0" y="69.0" width="12" height="12" as="geometry" />
      </mxCell>
    </object><object id="mid:clab-vt-BB1:1/1/2:clab-vt-RR:e1/1/1" label="​">
      <mxCell style="ellipse;whiteSpace=wrap;html=1;aspect=fixed;fontColor=#FFFFFF;fontSize=6;fillColor=#BEC8D2;strokeColor=none;noLabel=1;" vertex="1" parent="1">
          <mxGeometry x="414.4431349588495" y="239.30901593415916" width="4" height="4" as="geometry" />
      </mxCell>
    </object><object id="link_id:clab-vt-BB1:1/1/2:clab-vt-RR:e1/1/1" label="rate" source="clab-vt-BB1:1/1/2:clab-vt-RR:e1/1/1" target="mid:clab-vt-BB1:1/1/2:clab-vt-RR:e1/1/1">
      <mxCell style="endArrow=none;jumpStyle=gap;" edge="1" parent="1" source="clab-vt-BB1:1/1/2:clab-vt-RR:e1/1/1" target="mid:clab-vt-BB1:1/1/2:clab-vt-RR:e1/1/1">
          <mxGeometry relative="1" as="geometry" />
      </mxCell>
    </object><object id="link_id:clab-vt-RR:e1/1/1:clab-vt-BB1:1/1/2" label="rate" source="clab-vt-RR:e1/1/1:clab-vt-BB1:1/1/2" target="mid:clab-vt-BB1:1/1/2:clab-vt-RR:e1/1/1">
      <mxCell style="endArrow=none;jumpStyle=gap;" edge="1" parent="1" source="clab-vt-RR:e1/1/1:clab-vt-BB1:1/1/2" target="mid:clab-vt-BB1:1/1/2:clab-vt-RR:e1/1/1">
          <mxGeometry relative="1" as="geometry" />
      </mxCell>
    </object><object id="clab-vt-BB2:1/1/2:clab-vt-RR:e1/1/2" label="2">
      <mxCell style="ellipse;whiteSpace=wrap;html=1;aspect=fixed;fontColor=#FFFFFF;fontSize=6;strokeColor=#98A2AE;fillColor=#BEC8D2;" vertex="1" parent="group-clab-vt-BB2">
          <mxGeometry x="31.5" y="0.0" width="12" height="12" as="geometry" />
      </mxCell>
    </object><object id="clab-vt-RR:e1/1/2:clab-vt-BB2:1/1/2" label="2">
      <mxCell style="ellipse;whiteSpace=wrap;html=1;aspect=fixed;fontColor=#FFFFFF;fontSize=6;strokeColor=#98A2AE;fillColor=#BEC8D2;" vertex="1" parent="group-clab-vt-RR">
          <mxGeometry x="19.0" y="69.0" width="12" height="12" as="geometry" />
      </mxCell>
    </object><object id="mid:clab-vt-BB2:1/1/2:clab-vt-RR:e1/1/2" label="​">
      <mxCell style="ellipse;whiteSpace=wrap;html=1;aspect=fixed;fontColor=#FFFFFF;fontSize=6;fillColor=#BEC8D2;strokeColor=none;noLabel=1;" vertex="1" parent="1">
          <mxGeometry x="309.86213938777496" y="234.0205769795601" width="4" height="4" as="geometry" />
      </mxCell>
    </object><object id="link_id:clab-vt-BB2:1/1/2:clab-vt-RR:e1/1/2" label="rate" source="clab-vt-BB2:1/1/2:clab-vt-RR:e1/1/2" target="mid:clab-vt-BB2:1/1/2:clab-vt-RR:e1/1/2">
      <mxCell style="endArrow=none;jumpStyle=gap;" edge="1" parent="1" source="clab-vt-BB2:1/1/2:clab-vt-RR:e1/1/2" target="mid:clab-vt-BB2:1/1/2:clab-vt-RR:e1/1/2">
          <mxGeometry relative="1" as="geometry" />
      </mxCell>
    </object><object id="link_id:clab-vt-RR:e1/1/2:clab-vt-BB2:1/1/2" label="rate" source="clab-vt-RR:e1/1/2:clab-vt-BB2:1/1/2" target="mid:clab-vt-BB2:1/1/2:clab-vt-RR:e1/1/2">
      <mxCell style="endArrow=none;jumpStyle=gap;" edge="1" parent="1" source="clab-vt-RR:e1/1/2:clab-vt-BB2:1/1/2" target="mid:clab-vt-BB2:1/1/2:clab-vt-RR:e1/1/2">
          <mxGeometry relative="1" as="geometry" />
      </mxCell>
    </object><mxCell id="group-clab-vt-DC1-Leaf1" value="" style="group" vertex="1" connectable="0" parent="1">
        <mxGeometry x="100.00000000000003" y="794.0" width="75.0" height="87.0" as="geometry" />
        </mxCell><mxCell id="group-clab-vt-Client1" value="" style="group" vertex="1" connectable="0" parent="1">
        <mxGeometry x="250.0" y="969.0" width="75.0" height="81.0" as="geometry" />
        </mxCell><mxCell id="group-clab-vt-Client2" value="" style="group" vertex="1" connectable="0" parent="1">
        <mxGeometry x="100.00000000000003" y="969.0" width="75.0" height="81.0" as="geometry" />
        </mxCell><mxCell id="group-clab-vt-DC1-Leaf2" value="" style="group" vertex="1" connectable="0" parent="1">
        <mxGeometry x="250.0" y="794.0" width="75.0" height="87.0" as="geometry" />
        </mxCell><mxCell id="group-clab-vt-DC2-Leaf1" value="" style="group" vertex="1" connectable="0" parent="1">
        <mxGeometry x="400.0" y="794.0" width="75.0" height="87.0" as="geometry" />
        </mxCell><mxCell id="group-clab-vt-Client3" value="" style="group" vertex="1" connectable="0" parent="1">
        <mxGeometry x="400.0" y="969.0" width="75.0" height="81.0" as="geometry" />
        </mxCell><mxCell id="group-clab-vt-Client4" value="" style="group" vertex="1" connectable="0" parent="1">
        <mxGeometry x="550.0" y="969.0" width="75.0" height="81.0" as="geometry" />
        </mxCell><mxCell id="group-clab-vt-DC2-Leaf2" value="" style="group" vertex="1" connectable="0" parent="1">
        <mxGeometry x="550.0" y="794.0" width="75.0" height="87.0" as="geometry" />
        </mxCell><mxCell id="group-clab-vt-DC1-Spine1" value="" style="group" vertex="1" connectable="0" parent="1">
        <mxGeometry x="250.0" y="619.0" width="75.0" height="87.0" as="geometry" />
        </mxCell><mxCell id="group-clab-vt-DC1-GW1" value="" style="group" vertex="1" connectable="0" parent="1">
        <mxGeometry x="250.0" y="444.0" width="75.0" height="87.0" as="geometry" />
        </mxCell><mxCell id="group-clab-vt-DC1-GW2" value="" style="group" vertex="1" connectable="0" parent="1">
        <mxGeometry x="100.0" y="444.0" width="75.0" height="87.0" as="geometry" />
        </mxCell><mxCell id="group-clab-vt-DC1-Spine2" value="" style="group" vertex="1" connectable="0" parent="1">
        <mxGeometry x="100.0" y="619.0" width="75.0" height="87.0" as="geometry" />
        </mxCell><mxCell id="group-clab-vt-DC2-Spine1" value="" style="group" vertex="1" connectable="0" parent="1">
        <mxGeometry x="400.0" y="619.0" width="75.0" height="87.0" as="geometry" />
        </mxCell><mxCell id="group-clab-vt-DC2-GW1" value="" style="group" vertex="1" connectable="0" parent="1">
        <mxGeometry x="400.0" y="444.0" width="75.0" height="87.0" as="geometry" />
        </mxCell><mxCell id="group-clab-vt-DC2-GW2" value="" style="group" vertex="1" connectable="0" parent="1">
        <mxGeometry x="550.0" y="444.0" width="75.0" height="87.0" as="geometry" />
        </mxCell><mxCell id="group-clab-vt-DC2-Spine2" value="" style="group" vertex="1" connectable="0" parent="1">
        <mxGeometry x="550.0" y="619.0" width="75.0" height="87.0" as="geometry" />
        </mxCell><mxCell id="group-clab-vt-BB1" value="" style="group" vertex="1" connectable="0" parent="1">
        <mxGeometry x="394.0" y="269.0" width="81.0" height="87.0" as="geometry" />
        </mxCell><mxCell id="group-clab-vt-BB2" value="" style="group" vertex="1" connectable="0" parent="1">
        <mxGeometry x="250.0" y="269.0" width="81.0" height="87.0" as="geometry" />
        </mxCell><mxCell id="group-clab-vt-RR" value="" style="group" vertex="1" connectable="0" parent="1">
        <mxGeometry x="325.0" y="100.0" width="75.0" height="81.0" as="geometry" />
        </mxCell></root>
          </mxGraphModel>
        </diagram></mxfile>